<mxfile host="app.diagrams.net" agent="Mozilla/5.0 (Windows NT 10.0; Win64; x64) AppleWebKit/537.36 (KHTML, like Gecko) Chrome/135.0.0.0 Safari/537.36" version="26.2.14">
  <diagram name="PÃ¡gina-1" id="rdSnKNvMdoXbIifba3kX">
    <mxGraphModel dx="1744" dy="946" grid="1" gridSize="10" guides="1" tooltips="1" connect="1" arrows="1" fold="1" page="1" pageScale="1" pageWidth="827" pageHeight="1169" math="0" shadow="0">
      <root>
        <mxCell id="0" />
        <mxCell id="1" parent="0" />
        <mxCell id="N4wvzvUzEeqzLbN_h-wU-1" value="" style="shape=image;verticalLabelPosition=bottom;labelBackgroundColor=default;verticalAlign=top;aspect=fixed;imageAspect=0;editableCssRules=.*;image=data:image/svg+xml,PHN2ZyB4bWxuczp4bGluaz0iaHR0cDovL3d3dy53My5vcmcvMTk5OS94bGluayIgeG1sbnM9Imh0dHA6Ly93d3cudzMub3JnLzIwMDAvc3ZnIiBoZWlnaHQ9IjM4MC4xNjE4NjUyMzQzNzUiIGlkPSJncmFwaC0xMDAiIHdpZHRoPSI2MjguOTU3MDMxMjUiIHN0eWxlPSJvdmVyZmxvdzogaGlkZGVuOyBtYXgtd2lkdGg6IDEwMCU7IHRvdWNoLWFjdGlvbjogbm9uZTsgdXNlci1zZWxlY3Q6IG5vbmU7IC13ZWJraXQtdXNlci1kcmFnOiBub25lOyAtd2Via2l0LXRhcC1oaWdobGlnaHQtY29sb3I6IHJnYmEoMCwgMCwgMCwgMCk7IiByb2xlPSJncmFwaGljcy1kb2N1bWVudCBkb2N1bWVudCIgYXJpYS1yb2xlZGVzY3JpcHRpb249ImM0IiB2aWV3Qm94PSIxNjEuODgxMjU2MTAzNTE1NjIgMzEuMjYxMjE5MDI0NjU4MjAzIDYyOC45NTcwMzEyNSAzODAuMTYxODY1MjM0Mzc1Ij48ZGVmcz48c3ltYm9sIGlkPSJjb21wdXRlciIgd2lkdGg9IjI0IiBoZWlnaHQ9IjI0Ij48cGF0aCB0cmFuc2Zvcm09InNjYWxlKC41KSIgZD0iTTIgMnYxM2gyMHYtMTNoLTIwem0xOCAxMWgtMTZ2LTloMTZ2OXptLTEwLjIyOCA2bC40NjYtMWgzLjUyNGwuNDY3IDFoLTQuNDU3em0xNC4yMjggM2gtMjRsMi02aDIuMTA0bC0xLjMzIDRoMTguNDVsLTEuMjk3LTRoMi4wNzNsMiA2em0tNS0xMGgtMTR2LTdoMTR2N3oiLz48L3N5bWJvbD48L2RlZnM+PGRlZnM+PHN5bWJvbCBpZD0iZGF0YWJhc2UiIGZpbGwtcnVsZT0iZXZlbm9kZCIgY2xpcC1ydWxlPSJldmVub2RkIj48cGF0aCB0cmFuc2Zvcm09InNjYWxlKC41KSIgZD0iTTEyLjI1OC4wMDFsLjI1Ni4wMDQuMjU1LjAwNS4yNTMuMDA4LjI1MS4wMS4yNDkuMDEyLjI0Ny4wMTUuMjQ2LjAxNi4yNDIuMDE5LjI0MS4wMi4yMzkuMDIzLjIzNi4wMjQuMjMzLjAyNy4yMzEuMDI4LjIyOS4wMzEuMjI1LjAzMi4yMjMuMDM0LjIyLjAzNi4yMTcuMDM4LjIxNC4wNC4yMTEuMDQxLjIwOC4wNDMuMjA1LjA0NS4yMDEuMDQ2LjE5OC4wNDguMTk0LjA1LjE5MS4wNTEuMTg3LjA1My4xODMuMDU0LjE4LjA1Ni4xNzUuMDU3LjE3Mi4wNTkuMTY4LjA2LjE2My4wNjEuMTYuMDYzLjE1NS4wNjQuMTUuMDY2LjA3NC4wMzMuMDczLjAzMy4wNzEuMDM0LjA3LjAzNC4wNjkuMDM1LjA2OC4wMzUuMDY3LjAzNS4wNjYuMDM1LjA2NC4wMzYuMDY0LjAzNi4wNjIuMDM2LjA2LjAzNi4wNi4wMzcuMDU4LjAzNy4wNTguMDM3LjA1NS4wMzguMDU1LjAzOC4wNTMuMDM4LjA1Mi4wMzguMDUxLjAzOS4wNS4wMzkuMDQ4LjAzOS4wNDcuMDM5LjA0NS4wNC4wNDQuMDQuMDQzLjA0LjA0MS4wNC4wNC4wNDEuMDM5LjA0MS4wMzcuMDQxLjAzNi4wNDEuMDM0LjA0MS4wMzMuMDQyLjAzMi4wNDIuMDMuMDQyLjAyOS4wNDIuMDI3LjA0Mi4wMjYuMDQzLjAyNC4wNDMuMDIzLjA0My4wMjEuMDQzLjAyLjA0My4wMTguMDQ0LjAxNy4wNDMuMDE1LjA0NC4wMTMuMDQ0LjAxMi4wNDQuMDExLjA0NS4wMDkuMDQ0LjAwNy4wNDUuMDA2LjA0NS4wMDQuMDQ1LjAwMi4wNDUuMDAxLjA0NXYxN2wtLjAwMS4wNDUtLjAwMi4wNDUtLjAwNC4wNDUtLjAwNi4wNDUtLjAwNy4wNDUtLjAwOS4wNDQtLjAxMS4wNDUtLjAxMi4wNDQtLjAxMy4wNDQtLjAxNS4wNDQtLjAxNy4wNDMtLjAxOC4wNDQtLjAyLjA0My0uMDIxLjA0My0uMDIzLjA0My0uMDI0LjA0My0uMDI2LjA0My0uMDI3LjA0Mi0uMDI5LjA0Mi0uMDMuMDQyLS4wMzIuMDQyLS4wMzMuMDQyLS4wMzQuMDQxLS4wMzYuMDQxLS4wMzcuMDQxLS4wMzkuMDQxLS4wNC4wNDEtLjA0MS4wNC0uMDQzLjA0LS4wNDQuMDQtLjA0NS4wNC0uMDQ3LjAzOS0uMDQ4LjAzOS0uMDUuMDM5LS4wNTEuMDM5LS4wNTIuMDM4LS4wNTMuMDM4LS4wNTUuMDM4LS4wNTUuMDM4LS4wNTguMDM3LS4wNTguMDM3LS4wNi4wMzctLjA2LjAzNi0uMDYyLjAzNi0uMDY0LjAzNi0uMDY0LjAzNi0uMDY2LjAzNS0uMDY3LjAzNS0uMDY4LjAzNS0uMDY5LjAzNS0uMDcuMDM0LS4wNzEuMDM0LS4wNzMuMDMzLS4wNzQuMDMzLS4xNS4wNjYtLjE1NS4wNjQtLjE2LjA2My0uMTYzLjA2MS0uMTY4LjA2LS4xNzIuMDU5LS4xNzUuMDU3LS4xOC4wNTYtLjE4My4wNTQtLjE4Ny4wNTMtLjE5MS4wNTEtLjE5NC4wNS0uMTk4LjA0OC0uMjAxLjA0Ni0uMjA1LjA0NS0uMjA4LjA0My0uMjExLjA0MS0uMjE0LjA0LS4yMTcuMDM4LS4yMi4wMzYtLjIyMy4wMzQtLjIyNS4wMzItLjIyOS4wMzEtLjIzMS4wMjgtLjIzMy4wMjctLjIzNi4wMjQtLjIzOS4wMjMtLjI0MS4wMi0uMjQyLjAxOS0uMjQ2LjAxNi0uMjQ3LjAxNS0uMjQ5LjAxMi0uMjUxLjAxLS4yNTMuMDA4LS4yNTUuMDA1LS4yNTYuMDA0LS4yNTguMDAxLS4yNTgtLjAwMS0uMjU2LS4wMDQtLjI1NS0uMDA1LS4yNTMtLjAwOC0uMjUxLS4wMS0uMjQ5LS4wMTItLjI0Ny0uMDE1LS4yNDUtLjAxNi0uMjQzLS4wMTktLjI0MS0uMDItLjIzOC0uMDIzLS4yMzYtLjAyNC0uMjM0LS4wMjctLjIzMS0uMDI4LS4yMjgtLjAzMS0uMjI2LS4wMzItLjIyMy0uMDM0LS4yMi0uMDM2LS4yMTctLjAzOC0uMjE0LS4wNC0uMjExLS4wNDEtLjIwOC0uMDQzLS4yMDQtLjA0NS0uMjAxLS4wNDYtLjE5OC0uMDQ4LS4xOTUtLjA1LS4xOS0uMDUxLS4xODctLjA1My0uMTg0LS4wNTQtLjE3OS0uMDU2LS4xNzYtLjA1Ny0uMTcyLS4wNTktLjE2Ny0uMDYtLjE2NC0uMDYxLS4xNTktLjA2My0uMTU1LS4wNjQtLjE1MS0uMDY2LS4wNzQtLjAzMy0uMDcyLS4wMzMtLjA3Mi0uMDM0LS4wNy0uMDM0LS4wNjktLjAzNS0uMDY4LS4wMzUtLjA2Ny0uMDM1LS4wNjYtLjAzNS0uMDY0LS4wMzYtLjA2My0uMDM2LS4wNjItLjAzNi0uMDYxLS4wMzYtLjA2LS4wMzctLjA1OC0uMDM3LS4wNTctLjAzNy0uMDU2LS4wMzgtLjA1NS0uMDM4LS4wNTMtLjAzOC0uMDUyLS4wMzgtLjA1MS0uMDM5LS4wNDktLjAzOS0uMDQ5LS4wMzktLjA0Ni0uMDM5LS4wNDYtLjA0LS4wNDQtLjA0LS4wNDMtLjA0LS4wNDEtLjA0LS4wNC0uMDQxLS4wMzktLjA0MS0uMDM3LS4wNDEtLjAzNi0uMDQxLS4wMzQtLjA0MS0uMDMzLS4wNDItLjAzMi0uMDQyLS4wMy0uMDQyLS4wMjktLjA0Mi0uMDI3LS4wNDItLjAyNi0uMDQzLS4wMjQtLjA0My0uMDIzLS4wNDMtLjAyMS0uMDQzLS4wMi0uMDQzLS4wMTgtLjA0NC0uMDE3LS4wNDMtLjAxNS0uMDQ0LS4wMTMtLjA0NC0uMDEyLS4wNDQtLjAxMS0uMDQ1LS4wMDktLjA0NC0uMDA3LS4wNDUtLjAwNi0uMDQ1LS4wMDQtLjA0NS0uMDAyLS4wNDUtLjAwMS0uMDQ1di0xN2wuMDAxLS4wNDUuMDAyLS4wNDUuMDA0LS4wNDUuMDA2LS4wNDUuMDA3LS4wNDUuMDA5LS4wNDQuMDExLS4wNDUuMDEyLS4wNDQuMDEzLS4wNDQuMDE1LS4wNDQuMDE3LS4wNDMuMDE4LS4wNDQuMDItLjA0My4wMjEtLjA0My4wMjMtLjA0My4wMjQtLjA0My4wMjYtLjA0My4wMjctLjA0Mi4wMjktLjA0Mi4wMy0uMDQyLjAzMi0uMDQyLjAzMy0uMDQyLjAzNC0uMDQxLjAzNi0uMDQxLjAzNy0uMDQxLjAzOS0uMDQxLjA0LS4wNDEuMDQxLS4wNC4wNDMtLjA0LjA0NC0uMDQuMDQ2LS4wNC4wNDYtLjAzOS4wNDktLjAzOS4wNDktLjAzOS4wNTEtLjAzOS4wNTItLjAzOC4wNTMtLjAzOC4wNTUtLjAzOC4wNTYtLjAzOC4wNTctLjAzNy4wNTgtLjAzNy4wNi0uMDM3LjA2MS0uMDM2LjA2Mi0uMDM2LjA2My0uMDM2LjA2NC0uMDM2LjA2Ni0uMDM1LjA2Ny0uMDM1LjA2OC0uMDM1LjA2OS0uMDM1LjA3LS4wMzQuMDcyLS4wMzQuMDcyLS4wMzMuMDc0LS4wMzMuMTUxLS4wNjYuMTU1LS4wNjQuMTU5LS4wNjMuMTY0LS4wNjEuMTY3LS4wNi4xNzItLjA1OS4xNzYtLjA1Ny4xNzktLjA1Ni4xODQtLjA1NC4xODctLjA1My4xOS0uMDUxLjE5NS0uMDUuMTk4LS4wNDguMjAxLS4wNDYuMjA0LS4wNDUuMjA4LS4wNDMuMjExLS4wNDEuMjE0LS4wNC4yMTctLjAzOC4yMi0uMDM2LjIyMy0uMDM0LjIyNi0uMDMyLjIyOC0uMDMxLjIzMS0uMDI4LjIzNC0uMDI3LjIzNi0uMDI0LjIzOC0uMDIzLjI0MS0uMDIuMjQzLS4wMTkuMjQ1LS4wMTYuMjQ3LS4wMTUuMjQ5LS4wMTIuMjUxLS4wMS4yNTMtLjAwOC4yNTUtLjAwNS4yNTYtLjAwNC4yNTgtLjAwMS4yNTguMDAxem0tOS4yNTggMjAuNDk5di4wMWwuMDAxLjAyMS4wMDMuMDIxLjAwNC4wMjIuMDA1LjAyMS4wMDYuMDIyLjAwNy4wMjIuMDA5LjAyMy4wMS4wMjIuMDExLjAyMy4wMTIuMDIzLjAxMy4wMjMuMDE1LjAyMy4wMTYuMDI0LjAxNy4wMjMuMDE4LjAyNC4wMTkuMDI0LjAyMS4wMjQuMDIyLjAyNS4wMjMuMDI0LjAyNC4wMjUuMDUyLjA0OS4wNTYuMDUuMDYxLjA1MS4wNjYuMDUxLjA3LjA1MS4wNzUuMDUxLjA3OS4wNTIuMDg0LjA1Mi4wODguMDUyLjA5Mi4wNTIuMDk3LjA1Mi4xMDIuMDUxLjEwNS4wNTIuMTEuMDUyLjExNC4wNTEuMTE5LjA1MS4xMjMuMDUxLjEyNy4wNS4xMzEuMDUuMTM1LjA1LjEzOS4wNDguMTQ0LjA0OS4xNDcuMDQ3LjE1Mi4wNDcuMTU1LjA0Ny4xNi4wNDUuMTYzLjA0NS4xNjcuMDQzLjE3MS4wNDMuMTc2LjA0MS4xNzguMDQxLjE4My4wMzkuMTg3LjAzOS4xOS4wMzcuMTk0LjAzNS4xOTcuMDM1LjIwMi4wMzMuMjA0LjAzMS4yMDkuMDMuMjEyLjAyOS4yMTYuMDI3LjIxOS4wMjUuMjIyLjAyNC4yMjYuMDIxLjIzLjAyLjIzMy4wMTguMjM2LjAxNi4yNC4wMTUuMjQzLjAxMi4yNDYuMDEuMjQ5LjAwOC4yNTMuMDA1LjI1Ni4wMDQuMjU5LjAwMS4yNi0uMDAxLjI1Ny0uMDA0LjI1NC0uMDA1LjI1LS4wMDguMjQ3LS4wMTEuMjQ0LS4wMTIuMjQxLS4wMTQuMjM3LS4wMTYuMjMzLS4wMTguMjMxLS4wMjEuMjI2LS4wMjEuMjI0LS4wMjQuMjItLjAyNi4yMTYtLjAyNy4yMTItLjAyOC4yMS0uMDMxLjIwNS0uMDMxLjIwMi0uMDM0LjE5OC0uMDM0LjE5NC0uMDM2LjE5MS0uMDM3LjE4Ny0uMDM5LjE4My0uMDQuMTc5LS4wNC4xNzUtLjA0Mi4xNzItLjA0My4xNjgtLjA0NC4xNjMtLjA0NS4xNi0uMDQ2LjE1NS0uMDQ2LjE1Mi0uMDQ3LjE0OC0uMDQ4LjE0My0uMDQ5LjEzOS0uMDQ5LjEzNi0uMDUuMTMxLS4wNS4xMjYtLjA1LjEyMy0uMDUxLjExOC0uMDUyLjExNC0uMDUxLjExLS4wNTIuMTA2LS4wNTIuMTAxLS4wNTIuMDk2LS4wNTIuMDkyLS4wNTIuMDg4LS4wNTMuMDgzLS4wNTEuMDc5LS4wNTIuMDc0LS4wNTIuMDctLjA1MS4wNjUtLjA1MS4wNi0uMDUxLjA1Ni0uMDUuMDUxLS4wNS4wMjMtLjAyNC4wMjMtLjAyNS4wMjEtLjAyNC4wMi0uMDI0LjAxOS0uMDI0LjAxOC0uMDI0LjAxNy0uMDI0LjAxNS0uMDIzLjAxNC0uMDI0LjAxMy0uMDIzLjAxMi0uMDIzLjAxLS4wMjMuMDEtLjAyMi4wMDgtLjAyMi4wMDYtLjAyMi4wMDYtLjAyMi4wMDQtLjAyMi4wMDQtLjAyMS4wMDEtLjAyMS4wMDEtLjAyMXYtNC4xMjdsLS4wNzcuMDU1LS4wOC4wNTMtLjA4My4wNTQtLjA4NS4wNTMtLjA4Ny4wNTItLjA5LjA1Mi0uMDkzLjA1MS0uMDk1LjA1LS4wOTcuMDUtLjEuMDQ5LS4xMDIuMDQ5LS4xMDUuMDQ4LS4xMDYuMDQ3LS4xMDkuMDQ3LS4xMTEuMDQ2LS4xMTQuMDQ1LS4xMTUuMDQ1LS4xMTguMDQ0LS4xMi4wNDMtLjEyMi4wNDItLjEyNC4wNDItLjEyNi4wNDEtLjEyOC4wNC0uMTMuMDQtLjEzMi4wMzgtLjEzNC4wMzgtLjEzNS4wMzctLjEzOC4wMzctLjEzOS4wMzUtLjE0Mi4wMzUtLjE0My4wMzQtLjE0NC4wMzMtLjE0Ny4wMzItLjE0OC4wMzEtLjE1LjAzLS4xNTEuMDMtLjE1My4wMjktLjE1NC4wMjctLjE1Ni4wMjctLjE1OC4wMjYtLjE1OS4wMjUtLjE2MS4wMjQtLjE2Mi4wMjMtLjE2My4wMjItLjE2NS4wMjEtLjE2Ni4wMi0uMTY3LjAxOS0uMTY5LjAxOC0uMTY5LjAxNy0uMTcxLjAxNi0uMTczLjAxNS0uMTczLjAxNC0uMTc1LjAxMy0uMTc1LjAxMi0uMTc3LjAxMS0uMTc4LjAxLS4xNzkuMDA4LS4xNzkuMDA4LS4xODEuMDA2LS4xODIuMDA1LS4xODIuMDA0LS4xODQuMDAzLS4xODQuMDAyaC0uMzdsLS4xODQtLjAwMi0uMTg0LS4wMDMtLjE4Mi0uMDA0LS4xODItLjAwNS0uMTgxLS4wMDYtLjE3OS0uMDA4LS4xNzktLjAwOC0uMTc4LS4wMS0uMTc2LS4wMTEtLjE3Ni0uMDEyLS4xNzUtLjAxMy0uMTczLS4wMTQtLjE3Mi0uMDE1LS4xNzEtLjAxNi0uMTctLjAxNy0uMTY5LS4wMTgtLjE2Ny0uMDE5LS4xNjYtLjAyLS4xNjUtLjAyMS0uMTYzLS4wMjItLjE2Mi0uMDIzLS4xNjEtLjAyNC0uMTU5LS4wMjUtLjE1Ny0uMDI2LS4xNTYtLjAyNy0uMTU1LS4wMjctLjE1My0uMDI5LS4xNTEtLjAzLS4xNS0uMDMtLjE0OC0uMDMxLS4xNDYtLjAzMi0uMTQ1LS4wMzMtLjE0My0uMDM0LS4xNDEtLjAzNS0uMTQtLjAzNS0uMTM3LS4wMzctLjEzNi0uMDM3LS4xMzQtLjAzOC0uMTMyLS4wMzgtLjEzLS4wNC0uMTI4LS4wNC0uMTI2LS4wNDEtLjEyNC0uMDQyLS4xMjItLjA0Mi0uMTItLjA0NC0uMTE3LS4wNDMtLjExNi0uMDQ1LS4xMTMtLjA0NS0uMTEyLS4wNDYtLjEwOS0uMDQ3LS4xMDYtLjA0Ny0uMTA1LS4wNDgtLjEwMi0uMDQ5LS4xLS4wNDktLjA5Ny0uMDUtLjA5NS0uMDUtLjA5My0uMDUyLS4wOS0uMDUxLS4wODctLjA1Mi0uMDg1LS4wNTMtLjA4My0uMDU0LS4wOC0uMDU0LS4wNzctLjA1NHY0LjEyN3ptMC01LjY1NHYuMDExbC4wMDEuMDIxLjAwMy4wMjEuMDA0LjAyMS4wMDUuMDIyLjAwNi4wMjIuMDA3LjAyMi4wMDkuMDIyLjAxLjAyMi4wMTEuMDIzLjAxMi4wMjMuMDEzLjAyMy4wMTUuMDI0LjAxNi4wMjMuMDE3LjAyNC4wMTguMDI0LjAxOS4wMjQuMDIxLjAyNC4wMjIuMDI0LjAyMy4wMjUuMDI0LjAyNC4wNTIuMDUuMDU2LjA1LjA2MS4wNS4wNjYuMDUxLjA3LjA1MS4wNzUuMDUyLjA3OS4wNTEuMDg0LjA1Mi4wODguMDUyLjA5Mi4wNTIuMDk3LjA1Mi4xMDIuMDUyLjEwNS4wNTIuMTEuMDUxLjExNC4wNTEuMTE5LjA1Mi4xMjMuMDUuMTI3LjA1MS4xMzEuMDUuMTM1LjA0OS4xMzkuMDQ5LjE0NC4wNDguMTQ3LjA0OC4xNTIuMDQ3LjE1NS4wNDYuMTYuMDQ1LjE2My4wNDUuMTY3LjA0NC4xNzEuMDQyLjE3Ni4wNDIuMTc4LjA0LjE4My4wNC4xODcuMDM4LjE5LjAzNy4xOTQuMDM2LjE5Ny4wMzQuMjAyLjAzMy4yMDQuMDMyLjIwOS4wMy4yMTIuMDI4LjIxNi4wMjcuMjE5LjAyNS4yMjIuMDI0LjIyNi4wMjIuMjMuMDIuMjMzLjAxOC4yMzYuMDE2LjI0LjAxNC4yNDMuMDEyLjI0Ni4wMS4yNDkuMDA4LjI1My4wMDYuMjU2LjAwMy4yNTkuMDAxLjI2LS4wMDEuMjU3LS4wMDMuMjU0LS4wMDYuMjUtLjAwOC4yNDctLjAxLjI0NC0uMDEyLjI0MS0uMDE1LjIzNy0uMDE2LjIzMy0uMDE4LjIzMS0uMDIuMjI2LS4wMjIuMjI0LS4wMjQuMjItLjAyNS4yMTYtLjAyNy4yMTItLjAyOS4yMS0uMDMuMjA1LS4wMzIuMjAyLS4wMzMuMTk4LS4wMzUuMTk0LS4wMzYuMTkxLS4wMzcuMTg3LS4wMzkuMTgzLS4wMzkuMTc5LS4wNDEuMTc1LS4wNDIuMTcyLS4wNDMuMTY4LS4wNDQuMTYzLS4wNDUuMTYtLjA0NS4xNTUtLjA0Ny4xNTItLjA0Ny4xNDgtLjA0OC4xNDMtLjA0OC4xMzktLjA1LjEzNi0uMDQ5LjEzMS0uMDUuMTI2LS4wNTEuMTIzLS4wNTEuMTE4LS4wNTEuMTE0LS4wNTIuMTEtLjA1Mi4xMDYtLjA1Mi4xMDEtLjA1Mi4wOTYtLjA1Mi4wOTItLjA1Mi4wODgtLjA1Mi4wODMtLjA1Mi4wNzktLjA1Mi4wNzQtLjA1MS4wNy0uMDUyLjA2NS0uMDUxLjA2LS4wNS4wNTYtLjA1MS4wNTEtLjA0OS4wMjMtLjAyNS4wMjMtLjAyNC4wMjEtLjAyNS4wMi0uMDI0LjAxOS0uMDI0LjAxOC0uMDI0LjAxNy0uMDI0LjAxNS0uMDIzLjAxNC0uMDIzLjAxMy0uMDI0LjAxMi0uMDIyLjAxLS4wMjMuMDEtLjAyMy4wMDgtLjAyMi4wMDYtLjAyMi4wMDYtLjAyMi4wMDQtLjAyMS4wMDQtLjAyMi4wMDEtLjAyMS4wMDEtLjAyMXYtNC4xMzlsLS4wNzcuMDU0LS4wOC4wNTQtLjA4My4wNTQtLjA4NS4wNTItLjA4Ny4wNTMtLjA5LjA1MS0uMDkzLjA1MS0uMDk1LjA1MS0uMDk3LjA1LS4xLjA0OS0uMTAyLjA0OS0uMTA1LjA0OC0uMTA2LjA0Ny0uMTA5LjA0Ny0uMTExLjA0Ni0uMTE0LjA0NS0uMTE1LjA0NC0uMTE4LjA0NC0uMTIuMDQ0LS4xMjIuMDQyLS4xMjQuMDQyLS4xMjYuMDQxLS4xMjguMDQtLjEzLjAzOS0uMTMyLjAzOS0uMTM0LjAzOC0uMTM1LjAzNy0uMTM4LjAzNi0uMTM5LjAzNi0uMTQyLjAzNS0uMTQzLjAzMy0uMTQ0LjAzMy0uMTQ3LjAzMy0uMTQ4LjAzMS0uMTUuMDMtLjE1MS4wMy0uMTUzLjAyOC0uMTU0LjAyOC0uMTU2LjAyNy0uMTU4LjAyNi0uMTU5LjAyNS0uMTYxLjAyNC0uMTYyLjAyMy0uMTYzLjAyMi0uMTY1LjAyMS0uMTY2LjAyLS4xNjcuMDE5LS4xNjkuMDE4LS4xNjkuMDE3LS4xNzEuMDE2LS4xNzMuMDE1LS4xNzMuMDE0LS4xNzUuMDEzLS4xNzUuMDEyLS4xNzcuMDExLS4xNzguMDA5LS4xNzkuMDA5LS4xNzkuMDA3LS4xODEuMDA3LS4xODIuMDA1LS4xODIuMDA0LS4xODQuMDAzLS4xODQuMDAyaC0uMzdsLS4xODQtLjAwMi0uMTg0LS4wMDMtLjE4Mi0uMDA0LS4xODItLjAwNS0uMTgxLS4wMDctLjE3OS0uMDA3LS4xNzktLjAwOS0uMTc4LS4wMDktLjE3Ni0uMDExLS4xNzYtLjAxMi0uMTc1LS4wMTMtLjE3My0uMDE0LS4xNzItLjAxNS0uMTcxLS4wMTYtLjE3LS4wMTctLjE2OS0uMDE4LS4xNjctLjAxOS0uMTY2LS4wMi0uMTY1LS4wMjEtLjE2My0uMDIyLS4xNjItLjAyMy0uMTYxLS4wMjQtLjE1OS0uMDI1LS4xNTctLjAyNi0uMTU2LS4wMjctLjE1NS0uMDI4LS4xNTMtLjAyOC0uMTUxLS4wMy0uMTUtLjAzLS4xNDgtLjAzMS0uMTQ2LS4wMzMtLjE0NS0uMDMzLS4xNDMtLjAzMy0uMTQxLS4wMzUtLjE0LS4wMzYtLjEzNy0uMDM2LS4xMzYtLjAzNy0uMTM0LS4wMzgtLjEzMi0uMDM5LS4xMy0uMDM5LS4xMjgtLjA0LS4xMjYtLjA0MS0uMTI0LS4wNDItLjEyMi0uMDQzLS4xMi0uMDQzLS4xMTctLjA0NC0uMTE2LS4wNDQtLjExMy0uMDQ2LS4xMTItLjA0Ni0uMTA5LS4wNDYtLjEwNi0uMDQ3LS4xMDUtLjA0OC0uMTAyLS4wNDktLjEtLjA0OS0uMDk3LS4wNS0uMDk1LS4wNTEtLjA5My0uMDUxLS4wOS0uMDUxLS4wODctLjA1My0uMDg1LS4wNTItLjA4My0uMDU0LS4wOC0uMDU0LS4wNzctLjA1NHY0LjEzOXptMC01LjY2NnYuMDExbC4wMDEuMDIuMDAzLjAyMi4wMDQuMDIxLjAwNS4wMjIuMDA2LjAyMS4wMDcuMDIyLjAwOS4wMjMuMDEuMDIyLjAxMS4wMjMuMDEyLjAyMy4wMTMuMDIzLjAxNS4wMjMuMDE2LjAyNC4wMTcuMDI0LjAxOC4wMjMuMDE5LjAyNC4wMjEuMDI1LjAyMi4wMjQuMDIzLjAyNC4wMjQuMDI1LjA1Mi4wNS4wNTYuMDUuMDYxLjA1LjA2Ni4wNTEuMDcuMDUxLjA3NS4wNTIuMDc5LjA1MS4wODQuMDUyLjA4OC4wNTIuMDkyLjA1Mi4wOTcuMDUyLjEwMi4wNTIuMTA1LjA1MS4xMS4wNTIuMTE0LjA1MS4xMTkuMDUxLjEyMy4wNTEuMTI3LjA1LjEzMS4wNS4xMzUuMDUuMTM5LjA0OS4xNDQuMDQ4LjE0Ny4wNDguMTUyLjA0Ny4xNTUuMDQ2LjE2LjA0NS4xNjMuMDQ1LjE2Ny4wNDMuMTcxLjA0My4xNzYuMDQyLjE3OC4wNC4xODMuMDQuMTg3LjAzOC4xOS4wMzcuMTk0LjAzNi4xOTcuMDM0LjIwMi4wMzMuMjA0LjAzMi4yMDkuMDMuMjEyLjAyOC4yMTYuMDI3LjIxOS4wMjUuMjIyLjAyNC4yMjYuMDIxLjIzLjAyLjIzMy4wMTguMjM2LjAxNy4yNC4wMTQuMjQzLjAxMi4yNDYuMDEuMjQ5LjAwOC4yNTMuMDA2LjI1Ni4wMDMuMjU5LjAwMS4yNi0uMDAxLjI1Ny0uMDAzLjI1NC0uMDA2LjI1LS4wMDguMjQ3LS4wMS4yNDQtLjAxMy4yNDEtLjAxNC4yMzctLjAxNi4yMzMtLjAxOC4yMzEtLjAyLjIyNi0uMDIyLjIyNC0uMDI0LjIyLS4wMjUuMjE2LS4wMjcuMjEyLS4wMjkuMjEtLjAzLjIwNS0uMDMyLjIwMi0uMDMzLjE5OC0uMDM1LjE5NC0uMDM2LjE5MS0uMDM3LjE4Ny0uMDM5LjE4My0uMDM5LjE3OS0uMDQxLjE3NS0uMDQyLjE3Mi0uMDQzLjE2OC0uMDQ0LjE2My0uMDQ1LjE2LS4wNDUuMTU1LS4wNDcuMTUyLS4wNDcuMTQ4LS4wNDguMTQzLS4wNDkuMTM5LS4wNDkuMTM2LS4wNDkuMTMxLS4wNTEuMTI2LS4wNS4xMjMtLjA1MS4xMTgtLjA1Mi4xMTQtLjA1MS4xMS0uMDUyLjEwNi0uMDUyLjEwMS0uMDUyLjA5Ni0uMDUyLjA5Mi0uMDUyLjA4OC0uMDUyLjA4My0uMDUyLjA3OS0uMDUyLjA3NC0uMDUyLjA3LS4wNTEuMDY1LS4wNTEuMDYtLjA1MS4wNTYtLjA1LjA1MS0uMDQ5LjAyMy0uMDI1LjAyMy0uMDI1LjAyMS0uMDI0LjAyLS4wMjQuMDE5LS4wMjQuMDE4LS4wMjQuMDE3LS4wMjQuMDE1LS4wMjMuMDE0LS4wMjQuMDEzLS4wMjMuMDEyLS4wMjMuMDEtLjAyMi4wMS0uMDIzLjAwOC0uMDIyLjAwNi0uMDIyLjAwNi0uMDIyLjAwNC0uMDIyLjAwNC0uMDIxLjAwMS0uMDIxLjAwMS0uMDIxdi00LjE1M2wtLjA3Ny4wNTQtLjA4LjA1NC0uMDgzLjA1My0uMDg1LjA1My0uMDg3LjA1My0uMDkuMDUxLS4wOTMuMDUxLS4wOTUuMDUxLS4wOTcuMDUtLjEuMDQ5LS4xMDIuMDQ4LS4xMDUuMDQ4LS4xMDYuMDQ4LS4xMDkuMDQ2LS4xMTEuMDQ2LS4xMTQuMDQ2LS4xMTUuMDQ0LS4xMTguMDQ0LS4xMi4wNDMtLjEyMi4wNDMtLjEyNC4wNDItLjEyNi4wNDEtLjEyOC4wNC0uMTMuMDM5LS4xMzIuMDM5LS4xMzQuMDM4LS4xMzUuMDM3LS4xMzguMDM2LS4xMzkuMDM2LS4xNDIuMDM0LS4xNDMuMDM0LS4xNDQuMDMzLS4xNDcuMDMyLS4xNDguMDMyLS4xNS4wMy0uMTUxLjAzLS4xNTMuMDI4LS4xNTQuMDI4LS4xNTYuMDI3LS4xNTguMDI2LS4xNTkuMDI0LS4xNjEuMDI0LS4xNjIuMDIzLS4xNjMuMDIzLS4xNjUuMDIxLS4xNjYuMDItLjE2Ny4wMTktLjE2OS4wMTgtLjE2OS4wMTctLjE3MS4wMTYtLjE3My4wMTUtLjE3My4wMTQtLjE3NS4wMTMtLjE3NS4wMTItLjE3Ny4wMS0uMTc4LjAxLS4xNzkuMDA5LS4xNzkuMDA3LS4xODEuMDA2LS4xODIuMDA2LS4xODIuMDA0LS4xODQuMDAzLS4xODQuMDAxLS4xODUuMDAxLS4xODUtLjAwMS0uMTg0LS4wMDEtLjE4NC0uMDAzLS4xODItLjAwNC0uMTgyLS4wMDYtLjE4MS0uMDA2LS4xNzktLjAwNy0uMTc5LS4wMDktLjE3OC0uMDEtLjE3Ni0uMDEtLjE3Ni0uMDEyLS4xNzUtLjAxMy0uMTczLS4wMTQtLjE3Mi0uMDE1LS4xNzEtLjAxNi0uMTctLjAxNy0uMTY5LS4wMTgtLjE2Ny0uMDE5LS4xNjYtLjAyLS4xNjUtLjAyMS0uMTYzLS4wMjMtLjE2Mi0uMDIzLS4xNjEtLjAyNC0uMTU5LS4wMjQtLjE1Ny0uMDI2LS4xNTYtLjAyNy0uMTU1LS4wMjgtLjE1My0uMDI4LS4xNTEtLjAzLS4xNS0uMDMtLjE0OC0uMDMyLS4xNDYtLjAzMi0uMTQ1LS4wMzMtLjE0My0uMDM0LS4xNDEtLjAzNC0uMTQtLjAzNi0uMTM3LS4wMzYtLjEzNi0uMDM3LS4xMzQtLjAzOC0uMTMyLS4wMzktLjEzLS4wMzktLjEyOC0uMDQxLS4xMjYtLjA0MS0uMTI0LS4wNDEtLjEyMi0uMDQzLS4xMi0uMDQzLS4xMTctLjA0NC0uMTE2LS4wNDQtLjExMy0uMDQ2LS4xMTItLjA0Ni0uMTA5LS4wNDYtLjEwNi0uMDQ4LS4xMDUtLjA0OC0uMTAyLS4wNDgtLjEtLjA1LS4wOTctLjA0OS0uMDk1LS4wNTEtLjA5My0uMDUxLS4wOS0uMDUyLS4wODctLjA1Mi0uMDg1LS4wNTMtLjA4My0uMDUzLS4wOC0uMDU0LS4wNzctLjA1NHY0LjE1M3ptOC43NC04LjE3OWwtLjI1Ny4wMDQtLjI1NC4wMDUtLjI1LjAwOC0uMjQ3LjAxMS0uMjQ0LjAxMi0uMjQxLjAxNC0uMjM3LjAxNi0uMjMzLjAxOC0uMjMxLjAyMS0uMjI2LjAyMi0uMjI0LjAyMy0uMjIuMDI2LS4yMTYuMDI3LS4yMTIuMDI4LS4yMS4wMzEtLjIwNS4wMzItLjIwMi4wMzMtLjE5OC4wMzQtLjE5NC4wMzYtLjE5MS4wMzgtLjE4Ny4wMzgtLjE4My4wNC0uMTc5LjA0MS0uMTc1LjA0Mi0uMTcyLjA0My0uMTY4LjA0My0uMTYzLjA0NS0uMTYuMDQ2LS4xNTUuMDQ2LS4xNTIuMDQ4LS4xNDguMDQ4LS4xNDMuMDQ4LS4xMzkuMDQ5LS4xMzYuMDUtLjEzMS4wNS0uMTI2LjA1MS0uMTIzLjA1MS0uMTE4LjA1MS0uMTE0LjA1Mi0uMTEuMDUyLS4xMDYuMDUyLS4xMDEuMDUyLS4wOTYuMDUyLS4wOTIuMDUyLS4wODguMDUyLS4wODMuMDUyLS4wNzkuMDUyLS4wNzQuMDUxLS4wNy4wNTItLjA2NS4wNTEtLjA2LjA1LS4wNTYuMDUtLjA1MS4wNS0uMDIzLjAyNS0uMDIzLjAyNC0uMDIxLjAyNC0uMDIuMDI1LS4wMTkuMDI0LS4wMTguMDI0LS4wMTcuMDIzLS4wMTUuMDI0LS4wMTQuMDIzLS4wMTMuMDIzLS4wMTIuMDIzLS4wMS4wMjMtLjAxLjAyMi0uMDA4LjAyMi0uMDA2LjAyMy0uMDA2LjAyMS0uMDA0LjAyMi0uMDA0LjAyMS0uMDAxLjAyMS0uMDAxLjAyMS4wMDEuMDIxLjAwMS4wMjEuMDA0LjAyMS4wMDQuMDIyLjAwNi4wMjEuMDA2LjAyMy4wMDguMDIyLjAxLjAyMi4wMS4wMjMuMDEyLjAyMy4wMTMuMDIzLjAxNC4wMjMuMDE1LjAyNC4wMTcuMDIzLjAxOC4wMjQuMDE5LjAyNC4wMi4wMjUuMDIxLjAyNC4wMjMuMDI0LjAyMy4wMjUuMDUxLjA1LjA1Ni4wNS4wNi4wNS4wNjUuMDUxLjA3LjA1Mi4wNzQuMDUxLjA3OS4wNTIuMDgzLjA1Mi4wODguMDUyLjA5Mi4wNTIuMDk2LjA1Mi4xMDEuMDUyLjEwNi4wNTIuMTEuMDUyLjExNC4wNTIuMTE4LjA1MS4xMjMuMDUxLjEyNi4wNTEuMTMxLjA1LjEzNi4wNS4xMzkuMDQ5LjE0My4wNDguMTQ4LjA0OC4xNTIuMDQ4LjE1NS4wNDYuMTYuMDQ2LjE2My4wNDUuMTY4LjA0My4xNzIuMDQzLjE3NS4wNDIuMTc5LjA0MS4xODMuMDQuMTg3LjAzOC4xOTEuMDM4LjE5NC4wMzYuMTk4LjAzNC4yMDIuMDMzLjIwNS4wMzIuMjEuMDMxLjIxMi4wMjguMjE2LjAyNy4yMi4wMjYuMjI0LjAyMy4yMjYuMDIyLjIzMS4wMjEuMjMzLjAxOC4yMzcuMDE2LjI0MS4wMTQuMjQ0LjAxMi4yNDcuMDExLjI1LjAwOC4yNTQuMDA1LjI1Ny4wMDQuMjYuMDAxLjI2LS4wMDEuMjU3LS4wMDQuMjU0LS4wMDUuMjUtLjAwOC4yNDctLjAxMS4yNDQtLjAxMi4yNDEtLjAxNC4yMzctLjAxNi4yMzMtLjAxOC4yMzEtLjAyMS4yMjYtLjAyMi4yMjQtLjAyMy4yMi0uMDI2LjIxNi0uMDI3LjIxMi0uMDI4LjIxLS4wMzEuMjA1LS4wMzIuMjAyLS4wMzMuMTk4LS4wMzQuMTk0LS4wMzYuMTkxLS4wMzguMTg3LS4wMzguMTgzLS4wNC4xNzktLjA0MS4xNzUtLjA0Mi4xNzItLjA0My4xNjgtLjA0My4xNjMtLjA0NS4xNi0uMDQ2LjE1NS0uMDQ2LjE1Mi0uMDQ4LjE0OC0uMDQ4LjE0My0uMDQ4LjEzOS0uMDQ5LjEzNi0uMDUuMTMxLS4wNS4xMjYtLjA1MS4xMjMtLjA1MS4xMTgtLjA1MS4xMTQtLjA1Mi4xMS0uMDUyLjEwNi0uMDUyLjEwMS0uMDUyLjA5Ni0uMDUyLjA5Mi0uMDUyLjA4OC0uMDUyLjA4My0uMDUyLjA3OS0uMDUyLjA3NC0uMDUxLjA3LS4wNTIuMDY1LS4wNTEuMDYtLjA1LjA1Ni0uMDUuMDUxLS4wNS4wMjMtLjAyNS4wMjMtLjAyNC4wMjEtLjAyNC4wMi0uMDI1LjAxOS0uMDI0LjAxOC0uMDI0LjAxNy0uMDIzLjAxNS0uMDI0LjAxNC0uMDIzLjAxMy0uMDIzLjAxMi0uMDIzLjAxLS4wMjMuMDEtLjAyMi4wMDgtLjAyMi4wMDYtLjAyMy4wMDYtLjAyMS4wMDQtLjAyMi4wMDQtLjAyMS4wMDEtLjAyMS4wMDEtLjAyMS0uMDAxLS4wMjEtLjAwMS0uMDIxLS4wMDQtLjAyMS0uMDA0LS4wMjItLjAwNi0uMDIxLS4wMDYtLjAyMy0uMDA4LS4wMjItLjAxLS4wMjItLjAxLS4wMjMtLjAxMi0uMDIzLS4wMTMtLjAyMy0uMDE0LS4wMjMtLjAxNS0uMDI0LS4wMTctLjAyMy0uMDE4LS4wMjQtLjAxOS0uMDI0LS4wMi0uMDI1LS4wMjEtLjAyNC0uMDIzLS4wMjQtLjAyMy0uMDI1LS4wNTEtLjA1LS4wNTYtLjA1LS4wNi0uMDUtLjA2NS0uMDUxLS4wNy0uMDUyLS4wNzQtLjA1MS0uMDc5LS4wNTItLjA4My0uMDUyLS4wODgtLjA1Mi0uMDkyLS4wNTItLjA5Ni0uMDUyLS4xMDEtLjA1Mi0uMTA2LS4wNTItLjExLS4wNTItLjExNC0uMDUyLS4xMTgtLjA1MS0uMTIzLS4wNTEtLjEyNi0uMDUxLS4xMzEtLjA1LS4xMzYtLjA1LS4xMzktLjA0OS0uMTQzLS4wNDgtLjE0OC0uMDQ4LS4xNTItLjA0OC0uMTU1LS4wNDYtLjE2LS4wNDYtLjE2My0uMDQ1LS4xNjgtLjA0My0uMTcyLS4wNDMtLjE3NS0uMDQyLS4xNzktLjA0MS0uMTgzLS4wNC0uMTg3LS4wMzgtLjE5MS0uMDM4LS4xOTQtLjAzNi0uMTk4LS4wMzQtLjIwMi0uMDMzLS4yMDUtLjAzMi0uMjEtLjAzMS0uMjEyLS4wMjgtLjIxNi0uMDI3LS4yMi0uMDI2LS4yMjQtLjAyMy0uMjI2LS4wMjItLjIzMS0uMDIxLS4yMzMtLjAxOC0uMjM3LS4wMTYtLjI0MS0uMDE0LS4yNDQtLjAxMi0uMjQ3LS4wMTEtLjI1LS4wMDgtLjI1NC0uMDA1LS4yNTctLjAwNC0uMjYtLjAwMS0uMjYuMDAxeiIvPjwvc3ltYm9sPjwvZGVmcz48ZGVmcz48c3ltYm9sIGlkPSJjbG9jayIgd2lkdGg9IjI0IiBoZWlnaHQ9IjI0Ij48cGF0aCB0cmFuc2Zvcm09InNjYWxlKC41KSIgZD0iTTEyIDJjNS41MTQgMCAxMCA0LjQ4NiAxMCAxMHMtNC40ODYgMTAtMTAgMTAtMTAtNC40ODYtMTAtMTAgNC40ODYtMTAgMTAtMTB6bTAtMmMtNi42MjcgMC0xMiA1LjM3My0xMiAxMnM1LjM3MyAxMiAxMiAxMiAxMi01LjM3MyAxMi0xMi01LjM3My0xMi0xMi0xMnptNS44NDggMTIuNDU5Yy4yMDIuMDM4LjIwMi4zMzMuMDAxLjM3Mi0xLjkwNy4zNjEtNi4wNDUgMS4xMTEtNi41NDcgMS4xMTEtLjcxOSAwLTEuMzAxLS41ODItMS4zMDEtMS4zMDEgMC0uNTEyLjc3LTUuNDQ3IDEuMTI1LTcuNDQ1LjAzNC0uMTkyLjMxMi0uMTgxLjM0My4wMTRsLjk4NSA2LjIzOCA1LjM5NCAxLjAxMXoiLz48L3N5bWJvbD48L2RlZnM+PGRlZnM+PG1hcmtlciBpZD0iYXJyb3doZWFkIiByZWZYPSI5IiByZWZZPSI1IiBtYXJrZXJVbml0cz0idXNlclNwYWNlT25Vc2UiIG1hcmtlcldpZHRoPSIxMiIgbWFya2VySGVpZ2h0PSIxMiIgb3JpZW50PSJhdXRvIj48cGF0aCBkPSJNIDAgMCBMIDEwIDUgTCAwIDEwIHoiLz48L21hcmtlcj48L2RlZnM+PGRlZnM+PG1hcmtlciBpZD0iYXJyb3dlbmQiIHJlZlg9IjEiIHJlZlk9IjUiIG1hcmtlclVuaXRzPSJ1c2VyU3BhY2VPblVzZSIgbWFya2VyV2lkdGg9IjEyIiBtYXJrZXJIZWlnaHQ9IjEyIiBvcmllbnQ9ImF1dG8iPjxwYXRoIGQ9Ik0gMTAgMCBMIDAgNSBMIDEwIDEwIHoiLz48L21hcmtlcj48L2RlZnM+PGRlZnM+PG1hcmtlciBpZD0iY3Jvc3NoZWFkIiBtYXJrZXJXaWR0aD0iMTUiIG1hcmtlckhlaWdodD0iOCIgb3JpZW50PSJhdXRvIiByZWZYPSIxNiIgcmVmWT0iNCI+PHBhdGggZmlsbD0iYmxhY2siIHN0cm9rZT0iIzAwMDAwMCIgc3Ryb2tlLXdpZHRoPSIxcHgiIGQ9Ik0gOSwyIFYgNiBMMTYsNCBaIiBzdHlsZT0ic3Ryb2tlLWRhc2hhcnJheTogMCwgMDsiLz48cGF0aCBmaWxsPSJub25lIiBzdHJva2U9IiMwMDAwMDAiIHN0cm9rZS13aWR0aD0iMXB4IiBkPSJNIDAsMSBMIDYsNyBNIDYsMSBMIDAsNyIgc3R5bGU9InN0cm9rZS1kYXNoYXJyYXk6IDAsIDA7Ii8+PC9tYXJrZXI+PC9kZWZzPjxkZWZzPjxtYXJrZXIgaWQ9ImZpbGxlZC1oZWFkIiByZWZYPSIxOCIgcmVmWT0iNyIgbWFya2VyV2lkdGg9IjIwIiBtYXJrZXJIZWlnaHQ9IjI4IiBvcmllbnQ9ImF1dG8iPjxwYXRoIGQ9Ik0gMTgsNyBMOSwxMyBMMTQsNyBMOSwxIFoiLz48L21hcmtlcj48L2RlZnM+PGcgc3R5bGU9InRyYW5zZm9ybTogbWF0cml4KDAuNzg3OTAxLCAwLCAwLCAwLjc4NzkwMSwgNDQuMTk2MSwgMjguMDAzMik7IiB0cmFuc2Zvcm09Im1hdHJpeCgwLjc4NzkwMDc2NzIyMDk1NjUsMCwwLDAuNzg3OTAwNzY3MjIwOTU2NSw0NC4xOTYwOTAwMjMxODIyNDQsMjguMDAzMTczMzgxMjc0MTc3KSIgY2xhc3M9InN2Zy1wYW4tem9vbV92aWV3cG9ydCIgaWQ9InZpZXdwb3J0LTIwMjUwNTAyMDIxODM1NTYzIj48c3R5bGU+I2dyYXBoLTEwMHtmb250LWZhbWlseToidHJlYnVjaGV0IG1zIix2ZXJkYW5hLGFyaWFsLHNhbnMtc2VyaWY7Zm9udC1zaXplOjE2cHg7ZmlsbDojMzMzO31Aa2V5ZnJhbWVzIGVkZ2UtYW5pbWF0aW9uLWZyYW1le2Zyb217c3Ryb2tlLWRhc2hvZmZzZXQ6MDt9fUBrZXlmcmFtZXMgZGFzaHt0b3tzdHJva2UtZGFzaG9mZnNldDowO319I2dyYXBoLTEwMCAuZWRnZS1hbmltYXRpb24tc2xvd3tzdHJva2UtZGFzaGFycmF5OjksNSFpbXBvcnRhbnQ7c3Ryb2tlLWRhc2hvZmZzZXQ6OTAwO2FuaW1hdGlvbjpkYXNoIDUwcyBsaW5lYXIgaW5maW5pdGU7c3Ryb2tlLWxpbmVjYXA6cm91bmQ7fSNncmFwaC0xMDAgLmVkZ2UtYW5pbWF0aW9uLWZhc3R7c3Ryb2tlLWRhc2hhcnJheTo5LDUhaW1wb3J0YW50O3N0cm9rZS1kYXNob2Zmc2V0OjkwMDthbmltYXRpb246ZGFzaCAyMHMgbGluZWFyIGluZmluaXRlO3N0cm9rZS1saW5lY2FwOnJvdW5kO30jZ3JhcGgtMTAwIC5lcnJvci1pY29ue2ZpbGw6IzU1MjIyMjt9I2dyYXBoLTEwMCAuZXJyb3ItdGV4dHtmaWxsOiM1NTIyMjI7c3Ryb2tlOiM1NTIyMjI7fSNncmFwaC0xMDAgLmVkZ2UtdGhpY2tuZXNzLW5vcm1hbHtzdHJva2Utd2lkdGg6MXB4O30jZ3JhcGgtMTAwIC5lZGdlLXRoaWNrbmVzcy10aGlja3tzdHJva2Utd2lkdGg6My41cHg7fSNncmFwaC0xMDAgLmVkZ2UtcGF0dGVybi1zb2xpZHtzdHJva2UtZGFzaGFycmF5OjA7fSNncmFwaC0xMDAgLmVkZ2UtdGhpY2tuZXNzLWludmlzaWJsZXtzdHJva2Utd2lkdGg6MDtmaWxsOm5vbmU7fSNncmFwaC0xMDAgLmVkZ2UtcGF0dGVybi1kYXNoZWR7c3Ryb2tlLWRhc2hhcnJheTozO30jZ3JhcGgtMTAwIC5lZGdlLXBhdHRlcm4tZG90dGVke3N0cm9rZS1kYXNoYXJyYXk6Mjt9I2dyYXBoLTEwMCAubWFya2Vye2ZpbGw6IzMzMzMzMztzdHJva2U6IzMzMzMzMzt9I2dyYXBoLTEwMCAubWFya2VyLmNyb3Nze3N0cm9rZTojMzMzMzMzO30jZ3JhcGgtMTAwIHN2Z3tmb250LWZhbWlseToidHJlYnVjaGV0IG1zIix2ZXJkYW5hLGFyaWFsLHNhbnMtc2VyaWY7Zm9udC1zaXplOjE2cHg7fSNncmFwaC0xMDAgcHttYXJnaW46MDt9I2dyYXBoLTEwMCAucGVyc29ue3N0cm9rZTpoc2woMjQwLCA2MCUsIDg2LjI3NDUwOTgwMzklKTtmaWxsOiNFQ0VDRkY7fSNncmFwaC0xMDAgOnJvb3R7LS1tZXJtYWlkLWZvbnQtZmFtaWx5OiJ0cmVidWNoZXQgbXMiLHZlcmRhbmEsYXJpYWwsc2Fucy1zZXJpZjt9PC9zdHlsZT48Zy8+PGcgY2xhc3M9InBlcnNvbi1tYW4iPjxyZWN0IHg9IjE1MCIgeT0iMTY2IiBmaWxsPSIjMDg0MjdCIiBzdHJva2U9IiMwNzNCNkYiIHdpZHRoPSIzOTIiIGhlaWdodD0iMTM0IiByeD0iMi41IiByeT0iMi41IiBzdHJva2Utd2lkdGg9IjAuNSIvPjx0ZXh0IGZpbGw9IiNGRkZGRkYiIGZvbnQtZmFtaWx5PSImcXVvdDtPcGVuIFNhbnMmcXVvdDssIHNhbnMtc2VyaWYiIGZvbnQtc2l6ZT0iMTIiIGZvbnQtc3R5bGU9Iml0YWxpYyIgbGVuZ3RoQWRqdXN0PSJzcGFjaW5nIiB0ZXh0TGVuZ3RoPSI1MCIgeD0iMzIxIiB5PSIxODYiPiZsdDsmbHQ7cGVyc29uJmd0OyZndDs8L3RleHQ+PGltYWdlIHdpZHRoPSI0OCIgaGVpZ2h0PSI0OCIgeD0iMzIyIiB5PSIxOTYiIHhsaW5rOmhyZWY9ImRhdGE6aW1hZ2UvcG5nO2Jhc2U2NCxpVkJPUncwS0dnb0FBQUFOU1VoRVVnQUFBREFBQUFBd0NBSUFBQURZWUc3UUFBQUNEMGxFUVZSNFh1MllvVTRFTVJDR1QrNGo4QWk4QWhhSDRRSGdBVWpRdUZNRUNVZ01JVWd3SkFnTWhnUXNBWVVpSkNpUUlCQlkrRUlUc2pmVGRtZTZWMjR2NGM4dnlHYmIrWmpPdE4wYk5jdmpRWG1rSDgzV3ZZQld0bzZQTG02djdwN3VIMS93MmZYRCtQQnljWDFQdjJsM0lkRG0vdm43eCtkWFFpQXViUnpvVVJhN2dSWldkMGlHUklpSmJPbmhuZllCUVpOSmpOYnV5WTJlSkc4ZmtERTNiYkc0ZXA2TUhVQXNnWXhtRTNuVnM2VnNCV0pTR2Njc09sRlBtTElWaU16TE9CN3BDVk8yQXRISk1vaEg3Rmg2enFpdFFLN20wckp2QVZZZ0djRXBlLy9QTGREejY1c000cEY5TjdJQ2NYREtJQjVOdjZqN3REME5vU2RNMlFyVTlHZzBld0UxTHFCaEhSM0JCZHZqMnZhcG5pZGpIeEQvcTZ2ZDdQdmhyMzFBd2NZOGVYTVRYQUtFQ1paSkZYdUVxMjdhTGdRSzV1TE1vaENlbkdHdUdld094U2pCdllCcWVHNkIrTnFpYmxnZ2RqbmMrWlhEeStGTkZwRnp3NzZPM1VCQVJPdVhoNkZvaUFjZjVnOWVUdlVnenkwbldnNkk4Y1hIUlVwZzViT1ZCQ28rS0RwRmFqT2YyM0dnUG1lN1JTUStsYWNJRU5VZ0o2Z2cxazZIamdPbHFuTHFpcDR0RXVodjBoTkVNWFVEMGNseVhFM3A2cFpBMFMybm52VGxYd0xKRVpXbGI3Y1RRSDErVVNnVE40VmhBZW5tL3dlYTFPQ0FPbXFvNmZFMVdDYjlXU0tCYWgrcmJVV1BXQW1FMlJ2azBBcGlCNDVlT3lOQXpVOHhjVHZqOEt2a0tFb09hSVllSE5BM1p1eWdBdkZNVU8wQUFBQUFTVVZPUks1Q1lJST0iLz48dGV4dCB4PSIzNDYiIHk9IjI1MiIgZmlsbD0iI0ZGRkZGRiIgc3R5bGU9InRleHQtYW5jaG9yOiBtaWRkbGU7IGZvbnQtc2l6ZTogMTZweDsgZm9udC13ZWlnaHQ6IGJvbGQ7IGZvbnQtZmFtaWx5OiAmcXVvdDtPcGVuIFNhbnMmcXVvdDssIHNhbnMtc2VyaWY7Ij48dHNwYW4gZHk9IjAiIGFsaWdubWVudC1iYXNlbGluZT0ibWF0aGVtYXRpY2FsIj5Vc3XDoXJpbyBDb211bTwvdHNwYW4+PC90ZXh0Pjx0ZXh0IHg9IjM0NiIgeT0iMjg5IiBmaWxsPSIjRkZGRkZGIiBzdHlsZT0idGV4dC1hbmNob3I6IG1pZGRsZTsgZm9udC1zaXplOiAxNHB4OyBmb250LXdlaWdodDogbm9ybWFsOyBmb250LWZhbWlseTogJnF1b3Q7T3BlbiBTYW5zJnF1b3Q7LCBzYW5zLXNlcmlmOyI+PHRzcGFuIGR5PSIwIiBhbGlnbm1lbnQtYmFzZWxpbmU9Im1hdGhlbWF0aWNhbCI+VXN1w6FyaW8gcXVlIHV0aWxpemEgbyBzaXN0ZW1hIHBhcmEgYnVzY2FyIGUgZW1wcmVzdGFyIGxpdnJvczwvdHNwYW4+PC90ZXh0PjwvZz48ZyBjbGFzcz0icGVyc29uLW1hbiI+PHJlY3QgeD0iNjQyIiB5PSIxNjYiIGZpbGw9IiMwODQyN0IiIHN0cm9rZT0iIzA3M0I2RiIgd2lkdGg9IjMwNSIgaGVpZ2h0PSIxMzQiIHJ4PSIyLjUiIHJ5PSIyLjUiIHN0cm9rZS13aWR0aD0iMC41Ii8+PHRleHQgZmlsbD0iI0ZGRkZGRiIgZm9udC1mYW1pbHk9IiZxdW90O09wZW4gU2FucyZxdW90Oywgc2Fucy1zZXJpZiIgZm9udC1zaXplPSIxMiIgZm9udC1zdHlsZT0iaXRhbGljIiBsZW5ndGhBZGp1c3Q9InNwYWNpbmciIHRleHRMZW5ndGg9IjUwIiB4PSI3NjkuNSIgeT0iMTg2Ij4mbHQ7Jmx0O3BlcnNvbiZndDsmZ3Q7PC90ZXh0PjxpbWFnZSB3aWR0aD0iNDgiIGhlaWdodD0iNDgiIHg9Ijc3MC41IiB5PSIxOTYiIHhsaW5rOmhyZWY9ImRhdGE6aW1hZ2UvcG5nO2Jhc2U2NCxpVkJPUncwS0dnb0FBQUFOU1VoRVVnQUFBREFBQUFBd0NBSUFBQURZWUc3UUFBQUNEMGxFUVZSNFh1MllvVTRFTVJDR1QrNGo4QWk4QWhhSDRRSGdBVWpRdUZNRUNVZ01JVWd3SkFnTWhnUXNBWVVpSkNpUUlCQlkrRUlUc2pmVGRtZTZWMjR2NGM4dnlHYmIrWmpPdE4wYk5jdmpRWG1rSDgzV3ZZQld0bzZQTG02djdwN3VIMS93MmZYRCtQQnljWDFQdjJsM0lkRG0vdm43eCtkWFFpQXViUnpvVVJhN2dSWldkMGlHUklpSmJPbmhuZllCUVpOSmpOYnV5WTJlSkc4ZmtERTNiYkc0ZXA2TUhVQXNnWXhtRTNuVnM2VnNCV0pTR2Njc09sRlBtTElWaU16TE9CN3BDVk8yQXRISk1vaEg3Rmg2enFpdFFLN20wckp2QVZZZ0djRXBlLy9QTGREejY1c000cEY5TjdJQ2NYREtJQjVOdjZqN3REME5vU2RNMlFyVTlHZzBld0UxTHFCaEhSM0JCZHZqMnZhcG5pZGpIeEQvcTZ2ZDdQdmhyMzFBd2NZOGVYTVRYQUtFQ1paSkZYdUVxMjdhTGdRSzV1TE1vaENlbkdHdUdld094U2pCdllCcWVHNkIrTnFpYmxnZ2RqbmMrWlhEeStGTkZwRnp3NzZPM1VCQVJPdVhoNkZvaUFjZjVnOWVUdlVnenkwbldnNkk4Y1hIUlVwZzViT1ZCQ28rS0RwRmFqT2YyM0dnUG1lN1JTUStsYWNJRU5VZ0o2Z2cxazZIamdPbHFuTHFpcDR0RXVodjBoTkVNWFVEMGNseVhFM3A2cFpBMFMybm52VGxYd0xKRVpXbGI3Y1RRSDErVVNnVE40VmhBZW5tL3dlYTFPQ0FPbXFvNmZFMVdDYjlXU0tCYWgrcmJVV1BXQW1FMlJ2azBBcGlCNDVlT3lOQXpVOHhjVHZqOEt2a0tFb09hSVllSE5BM1p1eWdBdkZNVU8wQUFBQUFTVVZPUks1Q1lJST0iLz48dGV4dCB4PSI3OTQuNSIgeT0iMjUyIiBmaWxsPSIjRkZGRkZGIiBzdHlsZT0idGV4dC1hbmNob3I6IG1pZGRsZTsgZm9udC1zaXplOiAxNnB4OyBmb250LXdlaWdodDogYm9sZDsgZm9udC1mYW1pbHk6ICZxdW90O09wZW4gU2FucyZxdW90Oywgc2Fucy1zZXJpZjsiPjx0c3BhbiBkeT0iMCIgYWxpZ25tZW50LWJhc2VsaW5lPSJtYXRoZW1hdGljYWwiPkFkbWluaXN0cmFkb3I8L3RzcGFuPjwvdGV4dD48dGV4dCB4PSI3OTQuNSIgeT0iMjg5IiBmaWxsPSIjRkZGRkZGIiBzdHlsZT0idGV4dC1hbmNob3I6IG1pZGRsZTsgZm9udC1zaXplOiAxNHB4OyBmb250LXdlaWdodDogbm9ybWFsOyBmb250LWZhbWlseTogJnF1b3Q7T3BlbiBTYW5zJnF1b3Q7LCBzYW5zLXNlcmlmOyI+PHRzcGFuIGR5PSIwIiBhbGlnbm1lbnQtYmFzZWxpbmU9Im1hdGhlbWF0aWNhbCI+R2VyZW5jaWEgdXN1w6FyaW9zLCBsaXZyb3MgZSB2aXN1YWxpemEgcmVsYXTDs3Jpb3M8L3RzcGFuPjwvdGV4dD48L2c+PGcgY2xhc3M9InBlcnNvbi1tYW4iPjxyZWN0IHg9IjE1MCIgeT0iNDAwIiBmaWxsPSIjQzdFOUIwIiBzdHJva2U9IiMzQzdGQzAiIHdpZHRoPSI2NzMiIGhlaWdodD0iODYiIHJ4PSIyLjUiIHJ5PSIyLjUiIHN0cm9rZS13aWR0aD0iMC41Ii8+PHRleHQgZmlsbD0iI0ZGRkZGRiIgZm9udC1mYW1pbHk9IiZxdW90O09wZW4gU2FucyZxdW90Oywgc2Fucy1zZXJpZiIgZm9udC1zaXplPSIxMiIgZm9udC1zdHlsZT0iaXRhbGljIiBsZW5ndGhBZGp1c3Q9InNwYWNpbmciIHRleHRMZW5ndGg9IjUyIiB4PSI0NjAuNSIgeT0iNDIwIj4mbHQ7Jmx0O3N5c3RlbSZndDsmZ3Q7PC90ZXh0Pjx0ZXh0IHg9IjQ4Ni41IiB5PSI0MzgiIGZpbGw9IiNGRkZGRkYiIHN0eWxlPSJ0ZXh0LWFuY2hvcjogbWlkZGxlOyBmb250LXNpemU6IDE2cHg7IGZvbnQtd2VpZ2h0OiBib2xkOyBmb250LWZhbWlseTogJnF1b3Q7T3BlbiBTYW5zJnF1b3Q7LCBzYW5zLXNlcmlmOyI+PHRzcGFuIGR5PSIwIiBhbGlnbm1lbnQtYmFzZWxpbmU9Im1hdGhlbWF0aWNhbCI+U2lzdGVtYSBkZSBCaWJsaW90ZWNhPC90c3Bhbj48L3RleHQ+PHRleHQgeD0iNDg2LjUiIHk9IjQ3NSIgZmlsbD0iI0ZGRkZGRiIgc3R5bGU9InRleHQtYW5jaG9yOiBtaWRkbGU7IGZvbnQtc2l6ZTogMTRweDsgZm9udC13ZWlnaHQ6IG5vcm1hbDsgZm9udC1mYW1pbHk6ICZxdW90O09wZW4gU2FucyZxdW90Oywgc2Fucy1zZXJpZjsiPjx0c3BhbiBkeT0iMCIgYWxpZ25tZW50LWJhc2VsaW5lPSJtYXRoZW1hdGljYWwiPlBlcm1pdGUgZ2VyZW5jaWFyIHVzdcOhcmlvcywgbGl2cm9zIGUgZW1wcsOpc3RpbW9zIGNvbSBmdW5jaW9uYWxpZGFkZXMgYXZhbsOnYWRhcyBkZSByZWxhdMOzcmlvcyBlIGNvbnRyb2xlPC90c3Bhbj48L3RleHQ+PC9nPjxnPjxsaW5lIHgxPSI0MjcuMzkxNjk2NzUwOTAyNSIgeTE9IjMwMCIgeDI9IjUzNi45NjcwNjU4NjgyNjM1IiB5Mj0iNDAwIiBzdHJva2Utd2lkdGg9IjEiIHN0cm9rZT0iIzQ0NDQ0NCIgbWFya2VyLWVuZD0idXJsKCNhcnJvd2hlYWQpIiBzdHlsZT0iZmlsbDogbm9uZTsiLz48dGV4dCB4PSI1NzguNjc5MzgxMzA5NTgzIiB5PSIzNTAiIGZpbGw9IiM0NDQ0NDQiIHN0eWxlPSJ0ZXh0LWFuY2hvcjogbWlkZGxlOyBmb250LXNpemU6IDEycHg7IGZvbnQtd2VpZ2h0OiBub3JtYWw7IGZvbnQtZmFtaWx5OiAmcXVvdDtPcGVuIFNhbnMmcXVvdDssIHNhbnMtc2VyaWY7Ij48dHNwYW4gZHk9IjAiIGFsaWdubWVudC1iYXNlbGluZT0ibWF0aGVtYXRpY2FsIj5Db25zdWx0YSBsaXZyb3MsIHJlYWxpemEgZW1wcsOpc3RpbW9zPC90c3Bhbj48L3RleHQ+PHBhdGggZmlsbD0ibm9uZSIgc3Ryb2tlLXdpZHRoPSIxIiBzdHJva2U9IiM0NDQ0NDQiIGQ9Ik03NTYuODg4MDg2NjQyNTk5MywzMDAgUTczMC43NzgzNDA0MzEwNTEyLDM1MCA2NTIuNDQ5MTAxNzk2NDA3MSw0MDAiIG1hcmtlci1lbmQ9InVybCgjYXJyb3doZWFkKSIvPjx0ZXh0IHg9Ijc5OC42Njg1OTQyMTk1MDMyIiB5PSIzNTAiIGZpbGw9IiM0NDQ0NDQiIHN0eWxlPSJ0ZXh0LWFuY2hvcjogbWlkZGxlOyBmb250LXNpemU6IDEycHg7IGZvbnQtd2VpZ2h0OiBub3JtYWw7IGZvbnQtZmFtaWx5OiAmcXVvdDtPcGVuIFNhbnMmcXVvdDssIHNhbnMtc2VyaWY7Ij48dHNwYW4gZHk9IjAiIGFsaWdubWVudC1iYXNlbGluZT0ibWF0aGVtYXRpY2FsIj5HZXJlbmNpYSByZWN1cnNvcyBlIGdlcmEgcmVsYXTDs3Jpb3M8L3RzcGFuPjwvdGV4dD48L2c+PHRleHQgeD0iMjk4LjUiIHk9IjIwIj5Ow612ZWwgZGUgQ29udGV4dG8gZG8gU2lzdGVtYSBkZSBCaWJsaW90ZWNhPC90ZXh0PjwvZz48L3N2Zz4=;" vertex="1" parent="1">
          <mxGeometry x="10" y="40" width="420" height="253.74" as="geometry" />
        </mxCell>
        <mxCell id="N4wvzvUzEeqzLbN_h-wU-2" value="" style="shape=image;verticalLabelPosition=bottom;labelBackgroundColor=default;verticalAlign=top;aspect=fixed;imageAspect=0;editableCssRules=.*;image=data:image/svg+xml,PHN2ZyB4bWxuczp4bGluaz0iaHR0cDovL3d3dy53My5vcmcvMTk5OS94bGluayIgeG1sbnM9Imh0dHA6Ly93d3cudzMub3JnLzIwMDAvc3ZnIiBoZWlnaHQ9IjQzMC4wNzExMDU5NTcwMzEyNSIgaWQ9ImdyYXBoLTEwMSIgd2lkdGg9IjQ2NC45Nzg4NTEzMTgzNTk0IiBzdHlsZT0ib3ZlcmZsb3c6IGhpZGRlbjsgbWF4LXdpZHRoOiAxMDAlOyB0b3VjaC1hY3Rpb246IG5vbmU7IHVzZXItc2VsZWN0OiBub25lOyAtd2Via2l0LXVzZXItZHJhZzogbm9uZTsgLXdlYmtpdC10YXAtaGlnaGxpZ2h0LWNvbG9yOiByZ2JhKDAsIDAsIDAsIDApOyIgcm9sZT0iZ3JhcGhpY3MtZG9jdW1lbnQgZG9jdW1lbnQiIGFyaWEtcm9sZWRlc2NyaXB0aW9uPSJjNCIgdmlld0JveD0iMTE4LjUzMTQwMjU4Nzg5MDYyIDMwLjQ4MTIzOTMxODg0NzY1NiA0NjQuOTc4ODUxMzE4MzU5NCA0MzAuMDcxMTA1OTU3MDMxMjUiPjxkZWZzPjxzeW1ib2wgaWQ9ImNvbXB1dGVyIiB3aWR0aD0iMjQiIGhlaWdodD0iMjQiPjxwYXRoIHRyYW5zZm9ybT0ic2NhbGUoLjUpIiBkPSJNMiAydjEzaDIwdi0xM2gtMjB6bTE4IDExaC0xNnYtOWgxNnY5em0tMTAuMjI4IDZsLjQ2Ni0xaDMuNTI0bC40NjcgMWgtNC40NTd6bTE0LjIyOCAzaC0yNGwyLTZoMi4xMDRsLTEuMzMgNGgxOC40NWwtMS4yOTctNGgyLjA3M2wyIDZ6bS01LTEwaC0xNHYtN2gxNHY3eiIvPjwvc3ltYm9sPjwvZGVmcz48ZGVmcz48c3ltYm9sIGlkPSJkYXRhYmFzZSIgZmlsbC1ydWxlPSJldmVub2RkIiBjbGlwLXJ1bGU9ImV2ZW5vZGQiPjxwYXRoIHRyYW5zZm9ybT0ic2NhbGUoLjUpIiBkPSJNMTIuMjU4LjAwMWwuMjU2LjAwNC4yNTUuMDA1LjI1My4wMDguMjUxLjAxLjI0OS4wMTIuMjQ3LjAxNS4yNDYuMDE2LjI0Mi4wMTkuMjQxLjAyLjIzOS4wMjMuMjM2LjAyNC4yMzMuMDI3LjIzMS4wMjguMjI5LjAzMS4yMjUuMDMyLjIyMy4wMzQuMjIuMDM2LjIxNy4wMzguMjE0LjA0LjIxMS4wNDEuMjA4LjA0My4yMDUuMDQ1LjIwMS4wNDYuMTk4LjA0OC4xOTQuMDUuMTkxLjA1MS4xODcuMDUzLjE4My4wNTQuMTguMDU2LjE3NS4wNTcuMTcyLjA1OS4xNjguMDYuMTYzLjA2MS4xNi4wNjMuMTU1LjA2NC4xNS4wNjYuMDc0LjAzMy4wNzMuMDMzLjA3MS4wMzQuMDcuMDM0LjA2OS4wMzUuMDY4LjAzNS4wNjcuMDM1LjA2Ni4wMzUuMDY0LjAzNi4wNjQuMDM2LjA2Mi4wMzYuMDYuMDM2LjA2LjAzNy4wNTguMDM3LjA1OC4wMzcuMDU1LjAzOC4wNTUuMDM4LjA1My4wMzguMDUyLjAzOC4wNTEuMDM5LjA1LjAzOS4wNDguMDM5LjA0Ny4wMzkuMDQ1LjA0LjA0NC4wNC4wNDMuMDQuMDQxLjA0LjA0LjA0MS4wMzkuMDQxLjAzNy4wNDEuMDM2LjA0MS4wMzQuMDQxLjAzMy4wNDIuMDMyLjA0Mi4wMy4wNDIuMDI5LjA0Mi4wMjcuMDQyLjAyNi4wNDMuMDI0LjA0My4wMjMuMDQzLjAyMS4wNDMuMDIuMDQzLjAxOC4wNDQuMDE3LjA0My4wMTUuMDQ0LjAxMy4wNDQuMDEyLjA0NC4wMTEuMDQ1LjAwOS4wNDQuMDA3LjA0NS4wMDYuMDQ1LjAwNC4wNDUuMDAyLjA0NS4wMDEuMDQ1djE3bC0uMDAxLjA0NS0uMDAyLjA0NS0uMDA0LjA0NS0uMDA2LjA0NS0uMDA3LjA0NS0uMDA5LjA0NC0uMDExLjA0NS0uMDEyLjA0NC0uMDEzLjA0NC0uMDE1LjA0NC0uMDE3LjA0My0uMDE4LjA0NC0uMDIuMDQzLS4wMjEuMDQzLS4wMjMuMDQzLS4wMjQuMDQzLS4wMjYuMDQzLS4wMjcuMDQyLS4wMjkuMDQyLS4wMy4wNDItLjAzMi4wNDItLjAzMy4wNDItLjAzNC4wNDEtLjAzNi4wNDEtLjAzNy4wNDEtLjAzOS4wNDEtLjA0LjA0MS0uMDQxLjA0LS4wNDMuMDQtLjA0NC4wNC0uMDQ1LjA0LS4wNDcuMDM5LS4wNDguMDM5LS4wNS4wMzktLjA1MS4wMzktLjA1Mi4wMzgtLjA1My4wMzgtLjA1NS4wMzgtLjA1NS4wMzgtLjA1OC4wMzctLjA1OC4wMzctLjA2LjAzNy0uMDYuMDM2LS4wNjIuMDM2LS4wNjQuMDM2LS4wNjQuMDM2LS4wNjYuMDM1LS4wNjcuMDM1LS4wNjguMDM1LS4wNjkuMDM1LS4wNy4wMzQtLjA3MS4wMzQtLjA3My4wMzMtLjA3NC4wMzMtLjE1LjA2Ni0uMTU1LjA2NC0uMTYuMDYzLS4xNjMuMDYxLS4xNjguMDYtLjE3Mi4wNTktLjE3NS4wNTctLjE4LjA1Ni0uMTgzLjA1NC0uMTg3LjA1My0uMTkxLjA1MS0uMTk0LjA1LS4xOTguMDQ4LS4yMDEuMDQ2LS4yMDUuMDQ1LS4yMDguMDQzLS4yMTEuMDQxLS4yMTQuMDQtLjIxNy4wMzgtLjIyLjAzNi0uMjIzLjAzNC0uMjI1LjAzMi0uMjI5LjAzMS0uMjMxLjAyOC0uMjMzLjAyNy0uMjM2LjAyNC0uMjM5LjAyMy0uMjQxLjAyLS4yNDIuMDE5LS4yNDYuMDE2LS4yNDcuMDE1LS4yNDkuMDEyLS4yNTEuMDEtLjI1My4wMDgtLjI1NS4wMDUtLjI1Ni4wMDQtLjI1OC4wMDEtLjI1OC0uMDAxLS4yNTYtLjAwNC0uMjU1LS4wMDUtLjI1My0uMDA4LS4yNTEtLjAxLS4yNDktLjAxMi0uMjQ3LS4wMTUtLjI0NS0uMDE2LS4yNDMtLjAxOS0uMjQxLS4wMi0uMjM4LS4wMjMtLjIzNi0uMDI0LS4yMzQtLjAyNy0uMjMxLS4wMjgtLjIyOC0uMDMxLS4yMjYtLjAzMi0uMjIzLS4wMzQtLjIyLS4wMzYtLjIxNy0uMDM4LS4yMTQtLjA0LS4yMTEtLjA0MS0uMjA4LS4wNDMtLjIwNC0uMDQ1LS4yMDEtLjA0Ni0uMTk4LS4wNDgtLjE5NS0uMDUtLjE5LS4wNTEtLjE4Ny0uMDUzLS4xODQtLjA1NC0uMTc5LS4wNTYtLjE3Ni0uMDU3LS4xNzItLjA1OS0uMTY3LS4wNi0uMTY0LS4wNjEtLjE1OS0uMDYzLS4xNTUtLjA2NC0uMTUxLS4wNjYtLjA3NC0uMDMzLS4wNzItLjAzMy0uMDcyLS4wMzQtLjA3LS4wMzQtLjA2OS0uMDM1LS4wNjgtLjAzNS0uMDY3LS4wMzUtLjA2Ni0uMDM1LS4wNjQtLjAzNi0uMDYzLS4wMzYtLjA2Mi0uMDM2LS4wNjEtLjAzNi0uMDYtLjAzNy0uMDU4LS4wMzctLjA1Ny0uMDM3LS4wNTYtLjAzOC0uMDU1LS4wMzgtLjA1My0uMDM4LS4wNTItLjAzOC0uMDUxLS4wMzktLjA0OS0uMDM5LS4wNDktLjAzOS0uMDQ2LS4wMzktLjA0Ni0uMDQtLjA0NC0uMDQtLjA0My0uMDQtLjA0MS0uMDQtLjA0LS4wNDEtLjAzOS0uMDQxLS4wMzctLjA0MS0uMDM2LS4wNDEtLjAzNC0uMDQxLS4wMzMtLjA0Mi0uMDMyLS4wNDItLjAzLS4wNDItLjAyOS0uMDQyLS4wMjctLjA0Mi0uMDI2LS4wNDMtLjAyNC0uMDQzLS4wMjMtLjA0My0uMDIxLS4wNDMtLjAyLS4wNDMtLjAxOC0uMDQ0LS4wMTctLjA0My0uMDE1LS4wNDQtLjAxMy0uMDQ0LS4wMTItLjA0NC0uMDExLS4wNDUtLjAwOS0uMDQ0LS4wMDctLjA0NS0uMDA2LS4wNDUtLjAwNC0uMDQ1LS4wMDItLjA0NS0uMDAxLS4wNDV2LTE3bC4wMDEtLjA0NS4wMDItLjA0NS4wMDQtLjA0NS4wMDYtLjA0NS4wMDctLjA0NS4wMDktLjA0NC4wMTEtLjA0NS4wMTItLjA0NC4wMTMtLjA0NC4wMTUtLjA0NC4wMTctLjA0My4wMTgtLjA0NC4wMi0uMDQzLjAyMS0uMDQzLjAyMy0uMDQzLjAyNC0uMDQzLjAyNi0uMDQzLjAyNy0uMDQyLjAyOS0uMDQyLjAzLS4wNDIuMDMyLS4wNDIuMDMzLS4wNDIuMDM0LS4wNDEuMDM2LS4wNDEuMDM3LS4wNDEuMDM5LS4wNDEuMDQtLjA0MS4wNDEtLjA0LjA0My0uMDQuMDQ0LS4wNC4wNDYtLjA0LjA0Ni0uMDM5LjA0OS0uMDM5LjA0OS0uMDM5LjA1MS0uMDM5LjA1Mi0uMDM4LjA1My0uMDM4LjA1NS0uMDM4LjA1Ni0uMDM4LjA1Ny0uMDM3LjA1OC0uMDM3LjA2LS4wMzcuMDYxLS4wMzYuMDYyLS4wMzYuMDYzLS4wMzYuMDY0LS4wMzYuMDY2LS4wMzUuMDY3LS4wMzUuMDY4LS4wMzUuMDY5LS4wMzUuMDctLjAzNC4wNzItLjAzNC4wNzItLjAzMy4wNzQtLjAzMy4xNTEtLjA2Ni4xNTUtLjA2NC4xNTktLjA2My4xNjQtLjA2MS4xNjctLjA2LjE3Mi0uMDU5LjE3Ni0uMDU3LjE3OS0uMDU2LjE4NC0uMDU0LjE4Ny0uMDUzLjE5LS4wNTEuMTk1LS4wNS4xOTgtLjA0OC4yMDEtLjA0Ni4yMDQtLjA0NS4yMDgtLjA0My4yMTEtLjA0MS4yMTQtLjA0LjIxNy0uMDM4LjIyLS4wMzYuMjIzLS4wMzQuMjI2LS4wMzIuMjI4LS4wMzEuMjMxLS4wMjguMjM0LS4wMjcuMjM2LS4wMjQuMjM4LS4wMjMuMjQxLS4wMi4yNDMtLjAxOS4yNDUtLjAxNi4yNDctLjAxNS4yNDktLjAxMi4yNTEtLjAxLjI1My0uMDA4LjI1NS0uMDA1LjI1Ni0uMDA0LjI1OC0uMDAxLjI1OC4wMDF6bS05LjI1OCAyMC40OTl2LjAxbC4wMDEuMDIxLjAwMy4wMjEuMDA0LjAyMi4wMDUuMDIxLjAwNi4wMjIuMDA3LjAyMi4wMDkuMDIzLjAxLjAyMi4wMTEuMDIzLjAxMi4wMjMuMDEzLjAyMy4wMTUuMDIzLjAxNi4wMjQuMDE3LjAyMy4wMTguMDI0LjAxOS4wMjQuMDIxLjAyNC4wMjIuMDI1LjAyMy4wMjQuMDI0LjAyNS4wNTIuMDQ5LjA1Ni4wNS4wNjEuMDUxLjA2Ni4wNTEuMDcuMDUxLjA3NS4wNTEuMDc5LjA1Mi4wODQuMDUyLjA4OC4wNTIuMDkyLjA1Mi4wOTcuMDUyLjEwMi4wNTEuMTA1LjA1Mi4xMS4wNTIuMTE0LjA1MS4xMTkuMDUxLjEyMy4wNTEuMTI3LjA1LjEzMS4wNS4xMzUuMDUuMTM5LjA0OC4xNDQuMDQ5LjE0Ny4wNDcuMTUyLjA0Ny4xNTUuMDQ3LjE2LjA0NS4xNjMuMDQ1LjE2Ny4wNDMuMTcxLjA0My4xNzYuMDQxLjE3OC4wNDEuMTgzLjAzOS4xODcuMDM5LjE5LjAzNy4xOTQuMDM1LjE5Ny4wMzUuMjAyLjAzMy4yMDQuMDMxLjIwOS4wMy4yMTIuMDI5LjIxNi4wMjcuMjE5LjAyNS4yMjIuMDI0LjIyNi4wMjEuMjMuMDIuMjMzLjAxOC4yMzYuMDE2LjI0LjAxNS4yNDMuMDEyLjI0Ni4wMS4yNDkuMDA4LjI1My4wMDUuMjU2LjAwNC4yNTkuMDAxLjI2LS4wMDEuMjU3LS4wMDQuMjU0LS4wMDUuMjUtLjAwOC4yNDctLjAxMS4yNDQtLjAxMi4yNDEtLjAxNC4yMzctLjAxNi4yMzMtLjAxOC4yMzEtLjAyMS4yMjYtLjAyMS4yMjQtLjAyNC4yMi0uMDI2LjIxNi0uMDI3LjIxMi0uMDI4LjIxLS4wMzEuMjA1LS4wMzEuMjAyLS4wMzQuMTk4LS4wMzQuMTk0LS4wMzYuMTkxLS4wMzcuMTg3LS4wMzkuMTgzLS4wNC4xNzktLjA0LjE3NS0uMDQyLjE3Mi0uMDQzLjE2OC0uMDQ0LjE2My0uMDQ1LjE2LS4wNDYuMTU1LS4wNDYuMTUyLS4wNDcuMTQ4LS4wNDguMTQzLS4wNDkuMTM5LS4wNDkuMTM2LS4wNS4xMzEtLjA1LjEyNi0uMDUuMTIzLS4wNTEuMTE4LS4wNTIuMTE0LS4wNTEuMTEtLjA1Mi4xMDYtLjA1Mi4xMDEtLjA1Mi4wOTYtLjA1Mi4wOTItLjA1Mi4wODgtLjA1My4wODMtLjA1MS4wNzktLjA1Mi4wNzQtLjA1Mi4wNy0uMDUxLjA2NS0uMDUxLjA2LS4wNTEuMDU2LS4wNS4wNTEtLjA1LjAyMy0uMDI0LjAyMy0uMDI1LjAyMS0uMDI0LjAyLS4wMjQuMDE5LS4wMjQuMDE4LS4wMjQuMDE3LS4wMjQuMDE1LS4wMjMuMDE0LS4wMjQuMDEzLS4wMjMuMDEyLS4wMjMuMDEtLjAyMy4wMS0uMDIyLjAwOC0uMDIyLjAwNi0uMDIyLjAwNi0uMDIyLjAwNC0uMDIyLjAwNC0uMDIxLjAwMS0uMDIxLjAwMS0uMDIxdi00LjEyN2wtLjA3Ny4wNTUtLjA4LjA1My0uMDgzLjA1NC0uMDg1LjA1My0uMDg3LjA1Mi0uMDkuMDUyLS4wOTMuMDUxLS4wOTUuMDUtLjA5Ny4wNS0uMS4wNDktLjEwMi4wNDktLjEwNS4wNDgtLjEwNi4wNDctLjEwOS4wNDctLjExMS4wNDYtLjExNC4wNDUtLjExNS4wNDUtLjExOC4wNDQtLjEyLjA0My0uMTIyLjA0Mi0uMTI0LjA0Mi0uMTI2LjA0MS0uMTI4LjA0LS4xMy4wNC0uMTMyLjAzOC0uMTM0LjAzOC0uMTM1LjAzNy0uMTM4LjAzNy0uMTM5LjAzNS0uMTQyLjAzNS0uMTQzLjAzNC0uMTQ0LjAzMy0uMTQ3LjAzMi0uMTQ4LjAzMS0uMTUuMDMtLjE1MS4wMy0uMTUzLjAyOS0uMTU0LjAyNy0uMTU2LjAyNy0uMTU4LjAyNi0uMTU5LjAyNS0uMTYxLjAyNC0uMTYyLjAyMy0uMTYzLjAyMi0uMTY1LjAyMS0uMTY2LjAyLS4xNjcuMDE5LS4xNjkuMDE4LS4xNjkuMDE3LS4xNzEuMDE2LS4xNzMuMDE1LS4xNzMuMDE0LS4xNzUuMDEzLS4xNzUuMDEyLS4xNzcuMDExLS4xNzguMDEtLjE3OS4wMDgtLjE3OS4wMDgtLjE4MS4wMDYtLjE4Mi4wMDUtLjE4Mi4wMDQtLjE4NC4wMDMtLjE4NC4wMDJoLS4zN2wtLjE4NC0uMDAyLS4xODQtLjAwMy0uMTgyLS4wMDQtLjE4Mi0uMDA1LS4xODEtLjAwNi0uMTc5LS4wMDgtLjE3OS0uMDA4LS4xNzgtLjAxLS4xNzYtLjAxMS0uMTc2LS4wMTItLjE3NS0uMDEzLS4xNzMtLjAxNC0uMTcyLS4wMTUtLjE3MS0uMDE2LS4xNy0uMDE3LS4xNjktLjAxOC0uMTY3LS4wMTktLjE2Ni0uMDItLjE2NS0uMDIxLS4xNjMtLjAyMi0uMTYyLS4wMjMtLjE2MS0uMDI0LS4xNTktLjAyNS0uMTU3LS4wMjYtLjE1Ni0uMDI3LS4xNTUtLjAyNy0uMTUzLS4wMjktLjE1MS0uMDMtLjE1LS4wMy0uMTQ4LS4wMzEtLjE0Ni0uMDMyLS4xNDUtLjAzMy0uMTQzLS4wMzQtLjE0MS0uMDM1LS4xNC0uMDM1LS4xMzctLjAzNy0uMTM2LS4wMzctLjEzNC0uMDM4LS4xMzItLjAzOC0uMTMtLjA0LS4xMjgtLjA0LS4xMjYtLjA0MS0uMTI0LS4wNDItLjEyMi0uMDQyLS4xMi0uMDQ0LS4xMTctLjA0My0uMTE2LS4wNDUtLjExMy0uMDQ1LS4xMTItLjA0Ni0uMTA5LS4wNDctLjEwNi0uMDQ3LS4xMDUtLjA0OC0uMTAyLS4wNDktLjEtLjA0OS0uMDk3LS4wNS0uMDk1LS4wNS0uMDkzLS4wNTItLjA5LS4wNTEtLjA4Ny0uMDUyLS4wODUtLjA1My0uMDgzLS4wNTQtLjA4LS4wNTQtLjA3Ny0uMDU0djQuMTI3em0wLTUuNjU0di4wMTFsLjAwMS4wMjEuMDAzLjAyMS4wMDQuMDIxLjAwNS4wMjIuMDA2LjAyMi4wMDcuMDIyLjAwOS4wMjIuMDEuMDIyLjAxMS4wMjMuMDEyLjAyMy4wMTMuMDIzLjAxNS4wMjQuMDE2LjAyMy4wMTcuMDI0LjAxOC4wMjQuMDE5LjAyNC4wMjEuMDI0LjAyMi4wMjQuMDIzLjAyNS4wMjQuMDI0LjA1Mi4wNS4wNTYuMDUuMDYxLjA1LjA2Ni4wNTEuMDcuMDUxLjA3NS4wNTIuMDc5LjA1MS4wODQuMDUyLjA4OC4wNTIuMDkyLjA1Mi4wOTcuMDUyLjEwMi4wNTIuMTA1LjA1Mi4xMS4wNTEuMTE0LjA1MS4xMTkuMDUyLjEyMy4wNS4xMjcuMDUxLjEzMS4wNS4xMzUuMDQ5LjEzOS4wNDkuMTQ0LjA0OC4xNDcuMDQ4LjE1Mi4wNDcuMTU1LjA0Ni4xNi4wNDUuMTYzLjA0NS4xNjcuMDQ0LjE3MS4wNDIuMTc2LjA0Mi4xNzguMDQuMTgzLjA0LjE4Ny4wMzguMTkuMDM3LjE5NC4wMzYuMTk3LjAzNC4yMDIuMDMzLjIwNC4wMzIuMjA5LjAzLjIxMi4wMjguMjE2LjAyNy4yMTkuMDI1LjIyMi4wMjQuMjI2LjAyMi4yMy4wMi4yMzMuMDE4LjIzNi4wMTYuMjQuMDE0LjI0My4wMTIuMjQ2LjAxLjI0OS4wMDguMjUzLjAwNi4yNTYuMDAzLjI1OS4wMDEuMjYtLjAwMS4yNTctLjAwMy4yNTQtLjAwNi4yNS0uMDA4LjI0Ny0uMDEuMjQ0LS4wMTIuMjQxLS4wMTUuMjM3LS4wMTYuMjMzLS4wMTguMjMxLS4wMi4yMjYtLjAyMi4yMjQtLjAyNC4yMi0uMDI1LjIxNi0uMDI3LjIxMi0uMDI5LjIxLS4wMy4yMDUtLjAzMi4yMDItLjAzMy4xOTgtLjAzNS4xOTQtLjAzNi4xOTEtLjAzNy4xODctLjAzOS4xODMtLjAzOS4xNzktLjA0MS4xNzUtLjA0Mi4xNzItLjA0My4xNjgtLjA0NC4xNjMtLjA0NS4xNi0uMDQ1LjE1NS0uMDQ3LjE1Mi0uMDQ3LjE0OC0uMDQ4LjE0My0uMDQ4LjEzOS0uMDUuMTM2LS4wNDkuMTMxLS4wNS4xMjYtLjA1MS4xMjMtLjA1MS4xMTgtLjA1MS4xMTQtLjA1Mi4xMS0uMDUyLjEwNi0uMDUyLjEwMS0uMDUyLjA5Ni0uMDUyLjA5Mi0uMDUyLjA4OC0uMDUyLjA4My0uMDUyLjA3OS0uMDUyLjA3NC0uMDUxLjA3LS4wNTIuMDY1LS4wNTEuMDYtLjA1LjA1Ni0uMDUxLjA1MS0uMDQ5LjAyMy0uMDI1LjAyMy0uMDI0LjAyMS0uMDI1LjAyLS4wMjQuMDE5LS4wMjQuMDE4LS4wMjQuMDE3LS4wMjQuMDE1LS4wMjMuMDE0LS4wMjMuMDEzLS4wMjQuMDEyLS4wMjIuMDEtLjAyMy4wMS0uMDIzLjAwOC0uMDIyLjAwNi0uMDIyLjAwNi0uMDIyLjAwNC0uMDIxLjAwNC0uMDIyLjAwMS0uMDIxLjAwMS0uMDIxdi00LjEzOWwtLjA3Ny4wNTQtLjA4LjA1NC0uMDgzLjA1NC0uMDg1LjA1Mi0uMDg3LjA1My0uMDkuMDUxLS4wOTMuMDUxLS4wOTUuMDUxLS4wOTcuMDUtLjEuMDQ5LS4xMDIuMDQ5LS4xMDUuMDQ4LS4xMDYuMDQ3LS4xMDkuMDQ3LS4xMTEuMDQ2LS4xMTQuMDQ1LS4xMTUuMDQ0LS4xMTguMDQ0LS4xMi4wNDQtLjEyMi4wNDItLjEyNC4wNDItLjEyNi4wNDEtLjEyOC4wNC0uMTMuMDM5LS4xMzIuMDM5LS4xMzQuMDM4LS4xMzUuMDM3LS4xMzguMDM2LS4xMzkuMDM2LS4xNDIuMDM1LS4xNDMuMDMzLS4xNDQuMDMzLS4xNDcuMDMzLS4xNDguMDMxLS4xNS4wMy0uMTUxLjAzLS4xNTMuMDI4LS4xNTQuMDI4LS4xNTYuMDI3LS4xNTguMDI2LS4xNTkuMDI1LS4xNjEuMDI0LS4xNjIuMDIzLS4xNjMuMDIyLS4xNjUuMDIxLS4xNjYuMDItLjE2Ny4wMTktLjE2OS4wMTgtLjE2OS4wMTctLjE3MS4wMTYtLjE3My4wMTUtLjE3My4wMTQtLjE3NS4wMTMtLjE3NS4wMTItLjE3Ny4wMTEtLjE3OC4wMDktLjE3OS4wMDktLjE3OS4wMDctLjE4MS4wMDctLjE4Mi4wMDUtLjE4Mi4wMDQtLjE4NC4wMDMtLjE4NC4wMDJoLS4zN2wtLjE4NC0uMDAyLS4xODQtLjAwMy0uMTgyLS4wMDQtLjE4Mi0uMDA1LS4xODEtLjAwNy0uMTc5LS4wMDctLjE3OS0uMDA5LS4xNzgtLjAwOS0uMTc2LS4wMTEtLjE3Ni0uMDEyLS4xNzUtLjAxMy0uMTczLS4wMTQtLjE3Mi0uMDE1LS4xNzEtLjAxNi0uMTctLjAxNy0uMTY5LS4wMTgtLjE2Ny0uMDE5LS4xNjYtLjAyLS4xNjUtLjAyMS0uMTYzLS4wMjItLjE2Mi0uMDIzLS4xNjEtLjAyNC0uMTU5LS4wMjUtLjE1Ny0uMDI2LS4xNTYtLjAyNy0uMTU1LS4wMjgtLjE1My0uMDI4LS4xNTEtLjAzLS4xNS0uMDMtLjE0OC0uMDMxLS4xNDYtLjAzMy0uMTQ1LS4wMzMtLjE0My0uMDMzLS4xNDEtLjAzNS0uMTQtLjAzNi0uMTM3LS4wMzYtLjEzNi0uMDM3LS4xMzQtLjAzOC0uMTMyLS4wMzktLjEzLS4wMzktLjEyOC0uMDQtLjEyNi0uMDQxLS4xMjQtLjA0Mi0uMTIyLS4wNDMtLjEyLS4wNDMtLjExNy0uMDQ0LS4xMTYtLjA0NC0uMTEzLS4wNDYtLjExMi0uMDQ2LS4xMDktLjA0Ni0uMTA2LS4wNDctLjEwNS0uMDQ4LS4xMDItLjA0OS0uMS0uMDQ5LS4wOTctLjA1LS4wOTUtLjA1MS0uMDkzLS4wNTEtLjA5LS4wNTEtLjA4Ny0uMDUzLS4wODUtLjA1Mi0uMDgzLS4wNTQtLjA4LS4wNTQtLjA3Ny0uMDU0djQuMTM5em0wLTUuNjY2di4wMTFsLjAwMS4wMi4wMDMuMDIyLjAwNC4wMjEuMDA1LjAyMi4wMDYuMDIxLjAwNy4wMjIuMDA5LjAyMy4wMS4wMjIuMDExLjAyMy4wMTIuMDIzLjAxMy4wMjMuMDE1LjAyMy4wMTYuMDI0LjAxNy4wMjQuMDE4LjAyMy4wMTkuMDI0LjAyMS4wMjUuMDIyLjAyNC4wMjMuMDI0LjAyNC4wMjUuMDUyLjA1LjA1Ni4wNS4wNjEuMDUuMDY2LjA1MS4wNy4wNTEuMDc1LjA1Mi4wNzkuMDUxLjA4NC4wNTIuMDg4LjA1Mi4wOTIuMDUyLjA5Ny4wNTIuMTAyLjA1Mi4xMDUuMDUxLjExLjA1Mi4xMTQuMDUxLjExOS4wNTEuMTIzLjA1MS4xMjcuMDUuMTMxLjA1LjEzNS4wNS4xMzkuMDQ5LjE0NC4wNDguMTQ3LjA0OC4xNTIuMDQ3LjE1NS4wNDYuMTYuMDQ1LjE2My4wNDUuMTY3LjA0My4xNzEuMDQzLjE3Ni4wNDIuMTc4LjA0LjE4My4wNC4xODcuMDM4LjE5LjAzNy4xOTQuMDM2LjE5Ny4wMzQuMjAyLjAzMy4yMDQuMDMyLjIwOS4wMy4yMTIuMDI4LjIxNi4wMjcuMjE5LjAyNS4yMjIuMDI0LjIyNi4wMjEuMjMuMDIuMjMzLjAxOC4yMzYuMDE3LjI0LjAxNC4yNDMuMDEyLjI0Ni4wMS4yNDkuMDA4LjI1My4wMDYuMjU2LjAwMy4yNTkuMDAxLjI2LS4wMDEuMjU3LS4wMDMuMjU0LS4wMDYuMjUtLjAwOC4yNDctLjAxLjI0NC0uMDEzLjI0MS0uMDE0LjIzNy0uMDE2LjIzMy0uMDE4LjIzMS0uMDIuMjI2LS4wMjIuMjI0LS4wMjQuMjItLjAyNS4yMTYtLjAyNy4yMTItLjAyOS4yMS0uMDMuMjA1LS4wMzIuMjAyLS4wMzMuMTk4LS4wMzUuMTk0LS4wMzYuMTkxLS4wMzcuMTg3LS4wMzkuMTgzLS4wMzkuMTc5LS4wNDEuMTc1LS4wNDIuMTcyLS4wNDMuMTY4LS4wNDQuMTYzLS4wNDUuMTYtLjA0NS4xNTUtLjA0Ny4xNTItLjA0Ny4xNDgtLjA0OC4xNDMtLjA0OS4xMzktLjA0OS4xMzYtLjA0OS4xMzEtLjA1MS4xMjYtLjA1LjEyMy0uMDUxLjExOC0uMDUyLjExNC0uMDUxLjExLS4wNTIuMTA2LS4wNTIuMTAxLS4wNTIuMDk2LS4wNTIuMDkyLS4wNTIuMDg4LS4wNTIuMDgzLS4wNTIuMDc5LS4wNTIuMDc0LS4wNTIuMDctLjA1MS4wNjUtLjA1MS4wNi0uMDUxLjA1Ni0uMDUuMDUxLS4wNDkuMDIzLS4wMjUuMDIzLS4wMjUuMDIxLS4wMjQuMDItLjAyNC4wMTktLjAyNC4wMTgtLjAyNC4wMTctLjAyNC4wMTUtLjAyMy4wMTQtLjAyNC4wMTMtLjAyMy4wMTItLjAyMy4wMS0uMDIyLjAxLS4wMjMuMDA4LS4wMjIuMDA2LS4wMjIuMDA2LS4wMjIuMDA0LS4wMjIuMDA0LS4wMjEuMDAxLS4wMjEuMDAxLS4wMjF2LTQuMTUzbC0uMDc3LjA1NC0uMDguMDU0LS4wODMuMDUzLS4wODUuMDUzLS4wODcuMDUzLS4wOS4wNTEtLjA5My4wNTEtLjA5NS4wNTEtLjA5Ny4wNS0uMS4wNDktLjEwMi4wNDgtLjEwNS4wNDgtLjEwNi4wNDgtLjEwOS4wNDYtLjExMS4wNDYtLjExNC4wNDYtLjExNS4wNDQtLjExOC4wNDQtLjEyLjA0My0uMTIyLjA0My0uMTI0LjA0Mi0uMTI2LjA0MS0uMTI4LjA0LS4xMy4wMzktLjEzMi4wMzktLjEzNC4wMzgtLjEzNS4wMzctLjEzOC4wMzYtLjEzOS4wMzYtLjE0Mi4wMzQtLjE0My4wMzQtLjE0NC4wMzMtLjE0Ny4wMzItLjE0OC4wMzItLjE1LjAzLS4xNTEuMDMtLjE1My4wMjgtLjE1NC4wMjgtLjE1Ni4wMjctLjE1OC4wMjYtLjE1OS4wMjQtLjE2MS4wMjQtLjE2Mi4wMjMtLjE2My4wMjMtLjE2NS4wMjEtLjE2Ni4wMi0uMTY3LjAxOS0uMTY5LjAxOC0uMTY5LjAxNy0uMTcxLjAxNi0uMTczLjAxNS0uMTczLjAxNC0uMTc1LjAxMy0uMTc1LjAxMi0uMTc3LjAxLS4xNzguMDEtLjE3OS4wMDktLjE3OS4wMDctLjE4MS4wMDYtLjE4Mi4wMDYtLjE4Mi4wMDQtLjE4NC4wMDMtLjE4NC4wMDEtLjE4NS4wMDEtLjE4NS0uMDAxLS4xODQtLjAwMS0uMTg0LS4wMDMtLjE4Mi0uMDA0LS4xODItLjAwNi0uMTgxLS4wMDYtLjE3OS0uMDA3LS4xNzktLjAwOS0uMTc4LS4wMS0uMTc2LS4wMS0uMTc2LS4wMTItLjE3NS0uMDEzLS4xNzMtLjAxNC0uMTcyLS4wMTUtLjE3MS0uMDE2LS4xNy0uMDE3LS4xNjktLjAxOC0uMTY3LS4wMTktLjE2Ni0uMDItLjE2NS0uMDIxLS4xNjMtLjAyMy0uMTYyLS4wMjMtLjE2MS0uMDI0LS4xNTktLjAyNC0uMTU3LS4wMjYtLjE1Ni0uMDI3LS4xNTUtLjAyOC0uMTUzLS4wMjgtLjE1MS0uMDMtLjE1LS4wMy0uMTQ4LS4wMzItLjE0Ni0uMDMyLS4xNDUtLjAzMy0uMTQzLS4wMzQtLjE0MS0uMDM0LS4xNC0uMDM2LS4xMzctLjAzNi0uMTM2LS4wMzctLjEzNC0uMDM4LS4xMzItLjAzOS0uMTMtLjAzOS0uMTI4LS4wNDEtLjEyNi0uMDQxLS4xMjQtLjA0MS0uMTIyLS4wNDMtLjEyLS4wNDMtLjExNy0uMDQ0LS4xMTYtLjA0NC0uMTEzLS4wNDYtLjExMi0uMDQ2LS4xMDktLjA0Ni0uMTA2LS4wNDgtLjEwNS0uMDQ4LS4xMDItLjA0OC0uMS0uMDUtLjA5Ny0uMDQ5LS4wOTUtLjA1MS0uMDkzLS4wNTEtLjA5LS4wNTItLjA4Ny0uMDUyLS4wODUtLjA1My0uMDgzLS4wNTMtLjA4LS4wNTQtLjA3Ny0uMDU0djQuMTUzem04Ljc0LTguMTc5bC0uMjU3LjAwNC0uMjU0LjAwNS0uMjUuMDA4LS4yNDcuMDExLS4yNDQuMDEyLS4yNDEuMDE0LS4yMzcuMDE2LS4yMzMuMDE4LS4yMzEuMDIxLS4yMjYuMDIyLS4yMjQuMDIzLS4yMi4wMjYtLjIxNi4wMjctLjIxMi4wMjgtLjIxLjAzMS0uMjA1LjAzMi0uMjAyLjAzMy0uMTk4LjAzNC0uMTk0LjAzNi0uMTkxLjAzOC0uMTg3LjAzOC0uMTgzLjA0LS4xNzkuMDQxLS4xNzUuMDQyLS4xNzIuMDQzLS4xNjguMDQzLS4xNjMuMDQ1LS4xNi4wNDYtLjE1NS4wNDYtLjE1Mi4wNDgtLjE0OC4wNDgtLjE0My4wNDgtLjEzOS4wNDktLjEzNi4wNS0uMTMxLjA1LS4xMjYuMDUxLS4xMjMuMDUxLS4xMTguMDUxLS4xMTQuMDUyLS4xMS4wNTItLjEwNi4wNTItLjEwMS4wNTItLjA5Ni4wNTItLjA5Mi4wNTItLjA4OC4wNTItLjA4My4wNTItLjA3OS4wNTItLjA3NC4wNTEtLjA3LjA1Mi0uMDY1LjA1MS0uMDYuMDUtLjA1Ni4wNS0uMDUxLjA1LS4wMjMuMDI1LS4wMjMuMDI0LS4wMjEuMDI0LS4wMi4wMjUtLjAxOS4wMjQtLjAxOC4wMjQtLjAxNy4wMjMtLjAxNS4wMjQtLjAxNC4wMjMtLjAxMy4wMjMtLjAxMi4wMjMtLjAxLjAyMy0uMDEuMDIyLS4wMDguMDIyLS4wMDYuMDIzLS4wMDYuMDIxLS4wMDQuMDIyLS4wMDQuMDIxLS4wMDEuMDIxLS4wMDEuMDIxLjAwMS4wMjEuMDAxLjAyMS4wMDQuMDIxLjAwNC4wMjIuMDA2LjAyMS4wMDYuMDIzLjAwOC4wMjIuMDEuMDIyLjAxLjAyMy4wMTIuMDIzLjAxMy4wMjMuMDE0LjAyMy4wMTUuMDI0LjAxNy4wMjMuMDE4LjAyNC4wMTkuMDI0LjAyLjAyNS4wMjEuMDI0LjAyMy4wMjQuMDIzLjAyNS4wNTEuMDUuMDU2LjA1LjA2LjA1LjA2NS4wNTEuMDcuMDUyLjA3NC4wNTEuMDc5LjA1Mi4wODMuMDUyLjA4OC4wNTIuMDkyLjA1Mi4wOTYuMDUyLjEwMS4wNTIuMTA2LjA1Mi4xMS4wNTIuMTE0LjA1Mi4xMTguMDUxLjEyMy4wNTEuMTI2LjA1MS4xMzEuMDUuMTM2LjA1LjEzOS4wNDkuMTQzLjA0OC4xNDguMDQ4LjE1Mi4wNDguMTU1LjA0Ni4xNi4wNDYuMTYzLjA0NS4xNjguMDQzLjE3Mi4wNDMuMTc1LjA0Mi4xNzkuMDQxLjE4My4wNC4xODcuMDM4LjE5MS4wMzguMTk0LjAzNi4xOTguMDM0LjIwMi4wMzMuMjA1LjAzMi4yMS4wMzEuMjEyLjAyOC4yMTYuMDI3LjIyLjAyNi4yMjQuMDIzLjIyNi4wMjIuMjMxLjAyMS4yMzMuMDE4LjIzNy4wMTYuMjQxLjAxNC4yNDQuMDEyLjI0Ny4wMTEuMjUuMDA4LjI1NC4wMDUuMjU3LjAwNC4yNi4wMDEuMjYtLjAwMS4yNTctLjAwNC4yNTQtLjAwNS4yNS0uMDA4LjI0Ny0uMDExLjI0NC0uMDEyLjI0MS0uMDE0LjIzNy0uMDE2LjIzMy0uMDE4LjIzMS0uMDIxLjIyNi0uMDIyLjIyNC0uMDIzLjIyLS4wMjYuMjE2LS4wMjcuMjEyLS4wMjguMjEtLjAzMS4yMDUtLjAzMi4yMDItLjAzMy4xOTgtLjAzNC4xOTQtLjAzNi4xOTEtLjAzOC4xODctLjAzOC4xODMtLjA0LjE3OS0uMDQxLjE3NS0uMDQyLjE3Mi0uMDQzLjE2OC0uMDQzLjE2My0uMDQ1LjE2LS4wNDYuMTU1LS4wNDYuMTUyLS4wNDguMTQ4LS4wNDguMTQzLS4wNDguMTM5LS4wNDkuMTM2LS4wNS4xMzEtLjA1LjEyNi0uMDUxLjEyMy0uMDUxLjExOC0uMDUxLjExNC0uMDUyLjExLS4wNTIuMTA2LS4wNTIuMTAxLS4wNTIuMDk2LS4wNTIuMDkyLS4wNTIuMDg4LS4wNTIuMDgzLS4wNTIuMDc5LS4wNTIuMDc0LS4wNTEuMDctLjA1Mi4wNjUtLjA1MS4wNi0uMDUuMDU2LS4wNS4wNTEtLjA1LjAyMy0uMDI1LjAyMy0uMDI0LjAyMS0uMDI0LjAyLS4wMjUuMDE5LS4wMjQuMDE4LS4wMjQuMDE3LS4wMjMuMDE1LS4wMjQuMDE0LS4wMjMuMDEzLS4wMjMuMDEyLS4wMjMuMDEtLjAyMy4wMS0uMDIyLjAwOC0uMDIyLjAwNi0uMDIzLjAwNi0uMDIxLjAwNC0uMDIyLjAwNC0uMDIxLjAwMS0uMDIxLjAwMS0uMDIxLS4wMDEtLjAyMS0uMDAxLS4wMjEtLjAwNC0uMDIxLS4wMDQtLjAyMi0uMDA2LS4wMjEtLjAwNi0uMDIzLS4wMDgtLjAyMi0uMDEtLjAyMi0uMDEtLjAyMy0uMDEyLS4wMjMtLjAxMy0uMDIzLS4wMTQtLjAyMy0uMDE1LS4wMjQtLjAxNy0uMDIzLS4wMTgtLjAyNC0uMDE5LS4wMjQtLjAyLS4wMjUtLjAyMS0uMDI0LS4wMjMtLjAyNC0uMDIzLS4wMjUtLjA1MS0uMDUtLjA1Ni0uMDUtLjA2LS4wNS0uMDY1LS4wNTEtLjA3LS4wNTItLjA3NC0uMDUxLS4wNzktLjA1Mi0uMDgzLS4wNTItLjA4OC0uMDUyLS4wOTItLjA1Mi0uMDk2LS4wNTItLjEwMS0uMDUyLS4xMDYtLjA1Mi0uMTEtLjA1Mi0uMTE0LS4wNTItLjExOC0uMDUxLS4xMjMtLjA1MS0uMTI2LS4wNTEtLjEzMS0uMDUtLjEzNi0uMDUtLjEzOS0uMDQ5LS4xNDMtLjA0OC0uMTQ4LS4wNDgtLjE1Mi0uMDQ4LS4xNTUtLjA0Ni0uMTYtLjA0Ni0uMTYzLS4wNDUtLjE2OC0uMDQzLS4xNzItLjA0My0uMTc1LS4wNDItLjE3OS0uMDQxLS4xODMtLjA0LS4xODctLjAzOC0uMTkxLS4wMzgtLjE5NC0uMDM2LS4xOTgtLjAzNC0uMjAyLS4wMzMtLjIwNS0uMDMyLS4yMS0uMDMxLS4yMTItLjAyOC0uMjE2LS4wMjctLjIyLS4wMjYtLjIyNC0uMDIzLS4yMjYtLjAyMi0uMjMxLS4wMjEtLjIzMy0uMDE4LS4yMzctLjAxNi0uMjQxLS4wMTQtLjI0NC0uMDEyLS4yNDctLjAxMS0uMjUtLjAwOC0uMjU0LS4wMDUtLjI1Ny0uMDA0LS4yNi0uMDAxLS4yNi4wMDF6Ii8+PC9zeW1ib2w+PC9kZWZzPjxkZWZzPjxzeW1ib2wgaWQ9ImNsb2NrIiB3aWR0aD0iMjQiIGhlaWdodD0iMjQiPjxwYXRoIHRyYW5zZm9ybT0ic2NhbGUoLjUpIiBkPSJNMTIgMmM1LjUxNCAwIDEwIDQuNDg2IDEwIDEwcy00LjQ4NiAxMC0xMCAxMC0xMC00LjQ4Ni0xMC0xMCA0LjQ4Ni0xMCAxMC0xMHptMC0yYy02LjYyNyAwLTEyIDUuMzczLTEyIDEyczUuMzczIDEyIDEyIDEyIDEyLTUuMzczIDEyLTEyLTUuMzczLTEyLTEyLTEyem01Ljg0OCAxMi40NTljLjIwMi4wMzguMjAyLjMzMy4wMDEuMzcyLTEuOTA3LjM2MS02LjA0NSAxLjExMS02LjU0NyAxLjExMS0uNzE5IDAtMS4zMDEtLjU4Mi0xLjMwMS0xLjMwMSAwLS41MTIuNzctNS40NDcgMS4xMjUtNy40NDUuMDM0LS4xOTIuMzEyLS4xODEuMzQzLjAxNGwuOTg1IDYuMjM4IDUuMzk0IDEuMDExeiIvPjwvc3ltYm9sPjwvZGVmcz48ZGVmcz48bWFya2VyIGlkPSJhcnJvd2hlYWQiIHJlZlg9IjkiIHJlZlk9IjUiIG1hcmtlclVuaXRzPSJ1c2VyU3BhY2VPblVzZSIgbWFya2VyV2lkdGg9IjEyIiBtYXJrZXJIZWlnaHQ9IjEyIiBvcmllbnQ9ImF1dG8iPjxwYXRoIGQ9Ik0gMCAwIEwgMTAgNSBMIDAgMTAgeiIvPjwvbWFya2VyPjwvZGVmcz48ZGVmcz48bWFya2VyIGlkPSJhcnJvd2VuZCIgcmVmWD0iMSIgcmVmWT0iNSIgbWFya2VyVW5pdHM9InVzZXJTcGFjZU9uVXNlIiBtYXJrZXJXaWR0aD0iMTIiIG1hcmtlckhlaWdodD0iMTIiIG9yaWVudD0iYXV0byI+PHBhdGggZD0iTSAxMCAwIEwgMCA1IEwgMTAgMTAgeiIvPjwvbWFya2VyPjwvZGVmcz48ZGVmcz48bWFya2VyIGlkPSJjcm9zc2hlYWQiIG1hcmtlcldpZHRoPSIxNSIgbWFya2VySGVpZ2h0PSI4IiBvcmllbnQ9ImF1dG8iIHJlZlg9IjE2IiByZWZZPSI0Ij48cGF0aCBmaWxsPSJibGFjayIgc3Ryb2tlPSIjMDAwMDAwIiBzdHJva2Utd2lkdGg9IjFweCIgZD0iTSA5LDIgViA2IEwxNiw0IFoiIHN0eWxlPSJzdHJva2UtZGFzaGFycmF5OiAwLCAwOyIvPjxwYXRoIGZpbGw9Im5vbmUiIHN0cm9rZT0iIzAwMDAwMCIgc3Ryb2tlLXdpZHRoPSIxcHgiIGQ9Ik0gMCwxIEwgNiw3IE0gNiwxIEwgMCw3IiBzdHlsZT0ic3Ryb2tlLWRhc2hhcnJheTogMCwgMDsiLz48L21hcmtlcj48L2RlZnM+PGRlZnM+PG1hcmtlciBpZD0iZmlsbGVkLWhlYWQiIHJlZlg9IjE4IiByZWZZPSI3IiBtYXJrZXJXaWR0aD0iMjAiIG1hcmtlckhlaWdodD0iMjgiIG9yaWVudD0iYXV0byI+PHBhdGggZD0iTSAxOCw3IEw5LDEzIEwxNCw3IEw5LDEgWiIvPjwvbWFya2VyPjwvZGVmcz48ZyBzdHlsZT0idHJhbnNmb3JtOiBtYXRyaXgoMC40OTg5MDIsIDAsIDAsIDAuNDk4OTAyLCA0NC4xOTYxLCAyOC4wMDMyKTsiIHRyYW5zZm9ybT0ibWF0cml4KDAuNDk4OTAyNDE2MzA5Nzk0ODcsMCwwLDAuNDk4OTAyNDE2MzA5Nzk0ODcsNDQuMTk2MDkwMDIzMTgyMjQ0LDI4LjAwMzE3MzM4MTI3NDE3NykiIGNsYXNzPSJzdmctcGFuLXpvb21fdmlld3BvcnQiIGlkPSJ2aWV3cG9ydC0yMDI1MDUwMjAyMjAyOTk2OSI+PHN0eWxlPiNncmFwaC0xMDF7Zm9udC1mYW1pbHk6InRyZWJ1Y2hldCBtcyIsdmVyZGFuYSxhcmlhbCxzYW5zLXNlcmlmO2ZvbnQtc2l6ZToxNnB4O2ZpbGw6IzMzMzt9QGtleWZyYW1lcyBlZGdlLWFuaW1hdGlvbi1mcmFtZXtmcm9te3N0cm9rZS1kYXNob2Zmc2V0OjA7fX1Aa2V5ZnJhbWVzIGRhc2h7dG97c3Ryb2tlLWRhc2hvZmZzZXQ6MDt9fSNncmFwaC0xMDEgLmVkZ2UtYW5pbWF0aW9uLXNsb3d7c3Ryb2tlLWRhc2hhcnJheTo5LDUhaW1wb3J0YW50O3N0cm9rZS1kYXNob2Zmc2V0OjkwMDthbmltYXRpb246ZGFzaCA1MHMgbGluZWFyIGluZmluaXRlO3N0cm9rZS1saW5lY2FwOnJvdW5kO30jZ3JhcGgtMTAxIC5lZGdlLWFuaW1hdGlvbi1mYXN0e3N0cm9rZS1kYXNoYXJyYXk6OSw1IWltcG9ydGFudDtzdHJva2UtZGFzaG9mZnNldDo5MDA7YW5pbWF0aW9uOmRhc2ggMjBzIGxpbmVhciBpbmZpbml0ZTtzdHJva2UtbGluZWNhcDpyb3VuZDt9I2dyYXBoLTEwMSAuZXJyb3ItaWNvbntmaWxsOiM1NTIyMjI7fSNncmFwaC0xMDEgLmVycm9yLXRleHR7ZmlsbDojNTUyMjIyO3N0cm9rZTojNTUyMjIyO30jZ3JhcGgtMTAxIC5lZGdlLXRoaWNrbmVzcy1ub3JtYWx7c3Ryb2tlLXdpZHRoOjFweDt9I2dyYXBoLTEwMSAuZWRnZS10aGlja25lc3MtdGhpY2t7c3Ryb2tlLXdpZHRoOjMuNXB4O30jZ3JhcGgtMTAxIC5lZGdlLXBhdHRlcm4tc29saWR7c3Ryb2tlLWRhc2hhcnJheTowO30jZ3JhcGgtMTAxIC5lZGdlLXRoaWNrbmVzcy1pbnZpc2libGV7c3Ryb2tlLXdpZHRoOjA7ZmlsbDpub25lO30jZ3JhcGgtMTAxIC5lZGdlLXBhdHRlcm4tZGFzaGVke3N0cm9rZS1kYXNoYXJyYXk6Mzt9I2dyYXBoLTEwMSAuZWRnZS1wYXR0ZXJuLWRvdHRlZHtzdHJva2UtZGFzaGFycmF5OjI7fSNncmFwaC0xMDEgLm1hcmtlcntmaWxsOiMzMzMzMzM7c3Ryb2tlOiMzMzMzMzM7fSNncmFwaC0xMDEgLm1hcmtlci5jcm9zc3tzdHJva2U6IzMzMzMzMzt9I2dyYXBoLTEwMSBzdmd7Zm9udC1mYW1pbHk6InRyZWJ1Y2hldCBtcyIsdmVyZGFuYSxhcmlhbCxzYW5zLXNlcmlmO2ZvbnQtc2l6ZToxNnB4O30jZ3JhcGgtMTAxIHB7bWFyZ2luOjA7fSNncmFwaC0xMDEgLnBlcnNvbntzdHJva2U6aHNsKDI0MCwgNjAlLCA4Ni4yNzQ1MDk4MDM5JSk7ZmlsbDojRUNFQ0ZGO30jZ3JhcGgtMTAxIDpyb290ey0tbWVybWFpZC1mb250LWZhbWlseToidHJlYnVjaGV0IG1zIix2ZXJkYW5hLGFyaWFsLHNhbnMtc2VyaWY7fTwvc3R5bGU+PGcvPjxnIGNsYXNzPSJwZXJzb24tbWFuIj48cmVjdCB4PSIxNTAiIHk9IjE2NiIgZmlsbD0iIzA4NDI3QiIgc3Ryb2tlPSIjMDczQjZGIiB3aWR0aD0iMzkyIiBoZWlnaHQ9IjEzNCIgcng9IjIuNSIgcnk9IjIuNSIgc3Ryb2tlLXdpZHRoPSIwLjUiLz48dGV4dCBmaWxsPSIjRkZGRkZGIiBmb250LWZhbWlseT0iJnF1b3Q7T3BlbiBTYW5zJnF1b3Q7LCBzYW5zLXNlcmlmIiBmb250LXNpemU9IjEyIiBmb250LXN0eWxlPSJpdGFsaWMiIGxlbmd0aEFkanVzdD0ic3BhY2luZyIgdGV4dExlbmd0aD0iNTAiIHg9IjMyMSIgeT0iMTg2Ij4mbHQ7Jmx0O3BlcnNvbiZndDsmZ3Q7PC90ZXh0PjxpbWFnZSB3aWR0aD0iNDgiIGhlaWdodD0iNDgiIHg9IjMyMiIgeT0iMTk2IiB4bGluazpocmVmPSJkYXRhOmltYWdlL3BuZztiYXNlNjQsaVZCT1J3MEtHZ29BQUFBTlNVaEVVZ0FBQURBQUFBQXdDQUlBQUFEWVlHN1FBQUFDRDBsRVFWUjRYdTJZb1U0RU1SQ0dUKzRqOEFpOEFoYUg0UUhnQVVqUXVGTUVDVWdNSVVnd0pBZ01oZ1FzQVlVaUpDaVFJQkJZK0VJVHNqZlRkbWU2VjI0djRjOHZ5R2JiK1pqT3ROMGJOY3ZqUVhta0g4M1d2WUJXdG82UExtNnY3cDd1SDEvdzJmWEQrUEJ5Y1gxUHYybDNJZERtL3ZuN3grZFhRaUF1YlJ6b1VSYTdnUlpXZDBpR1JJaUpiT25obmZZQlFaTkpqTmJ1eVkyZUpHOGZrREUzYmJHNGVwNk1IVUFzZ1l4bUUzblZzNlZzQldKU0djY3NPbEZQbUxJVmlNekxPQjdwQ1ZPMkF0SEpNb2hIN0ZoNnpxaXRRSzdtMHJKdkFWWWdHY0VwZS8vUExkRHo2NXNNNHBGOU43SUNjWERLSUI1TnY2ajd0RDBOb1NkTTJRclU5R2cwZXdFMUxxQmhIUjNCQmR2ajJ2YXBuaWRqSHhEL3E2dmQ3UHZocjMxQXdjWThlWE1UWEFLRUNaWkpGWHVFcTI3YUxnUUs1dUxNb2hDZW5HR3VHZXdPeFNqQnZZQnFlRzZCK05xaWJsZ2dkam5jK1pYRHkrRk5GcEZ6dzc2TzNVQkFST3VYaDZGb2lBY2Y1ZzllVHZVZ3p5MG5XZzZJOGNYSFJVcGc1Yk9WQkNvK0tEcEZhak9mMjNHZ1BtZTdSU1ErbGFjSUVOVWdKNmdnMWs2SGpnT2xxbkxxaXA0dEV1aHYwaE5FTVhVRDBjbHlYRTNwNnBaQTBTMm5udlRsWHdMSkVaV2xiN2NUUUgxK1VTZ1RONFZoQWVubS93ZWExT0NBT21xbzZmRTFXQ2I5V1NLQmFoK3JiVVdQV0FtRTJSdmswQXBpQjQ1ZU95TkF6VTh4Y1R2ajhLdmtLRW9PYUlZZUhOQTNadXlnQXZGTVVPMEFBQUFBU1VWT1JLNUNZSUk9Ii8+PHRleHQgeD0iMzQ2IiB5PSIyNTIiIGZpbGw9IiNGRkZGRkYiIHN0eWxlPSJ0ZXh0LWFuY2hvcjogbWlkZGxlOyBmb250LXNpemU6IDE2cHg7IGZvbnQtd2VpZ2h0OiBib2xkOyBmb250LWZhbWlseTogJnF1b3Q7T3BlbiBTYW5zJnF1b3Q7LCBzYW5zLXNlcmlmOyI+PHRzcGFuIGR5PSIwIiBhbGlnbm1lbnQtYmFzZWxpbmU9Im1hdGhlbWF0aWNhbCI+VXN1w6FyaW8gQ29tdW08L3RzcGFuPjwvdGV4dD48dGV4dCB4PSIzNDYiIHk9IjI4OSIgZmlsbD0iI0ZGRkZGRiIgc3R5bGU9InRleHQtYW5jaG9yOiBtaWRkbGU7IGZvbnQtc2l6ZTogMTRweDsgZm9udC13ZWlnaHQ6IG5vcm1hbDsgZm9udC1mYW1pbHk6ICZxdW90O09wZW4gU2FucyZxdW90Oywgc2Fucy1zZXJpZjsiPjx0c3BhbiBkeT0iMCIgYWxpZ25tZW50LWJhc2VsaW5lPSJtYXRoZW1hdGljYWwiPlVzdcOhcmlvIHF1ZSB1dGlsaXphIG8gc2lzdGVtYSBwYXJhIGJ1c2NhciBlIGVtcHJlc3RhciBsaXZyb3M8L3RzcGFuPjwvdGV4dD48L2c+PGcgY2xhc3M9InBlcnNvbi1tYW4iPjxyZWN0IHg9IjY0MiIgeT0iMTY2IiBmaWxsPSIjMDg0MjdCIiBzdHJva2U9IiMwNzNCNkYiIHdpZHRoPSIzMDUiIGhlaWdodD0iMTM0IiByeD0iMi41IiByeT0iMi41IiBzdHJva2Utd2lkdGg9IjAuNSIvPjx0ZXh0IGZpbGw9IiNGRkZGRkYiIGZvbnQtZmFtaWx5PSImcXVvdDtPcGVuIFNhbnMmcXVvdDssIHNhbnMtc2VyaWYiIGZvbnQtc2l6ZT0iMTIiIGZvbnQtc3R5bGU9Iml0YWxpYyIgbGVuZ3RoQWRqdXN0PSJzcGFjaW5nIiB0ZXh0TGVuZ3RoPSI1MCIgeD0iNzY5LjUiIHk9IjE4NiI+Jmx0OyZsdDtwZXJzb24mZ3Q7Jmd0OzwvdGV4dD48aW1hZ2Ugd2lkdGg9IjQ4IiBoZWlnaHQ9IjQ4IiB4PSI3NzAuNSIgeT0iMTk2IiB4bGluazpocmVmPSJkYXRhOmltYWdlL3BuZztiYXNlNjQsaVZCT1J3MEtHZ29BQUFBTlNVaEVVZ0FBQURBQUFBQXdDQUlBQUFEWVlHN1FBQUFDRDBsRVFWUjRYdTJZb1U0RU1SQ0dUKzRqOEFpOEFoYUg0UUhnQVVqUXVGTUVDVWdNSVVnd0pBZ01oZ1FzQVlVaUpDaVFJQkJZK0VJVHNqZlRkbWU2VjI0djRjOHZ5R2JiK1pqT3ROMGJOY3ZqUVhta0g4M1d2WUJXdG82UExtNnY3cDd1SDEvdzJmWEQrUEJ5Y1gxUHYybDNJZERtL3ZuN3grZFhRaUF1YlJ6b1VSYTdnUlpXZDBpR1JJaUpiT25obmZZQlFaTkpqTmJ1eVkyZUpHOGZrREUzYmJHNGVwNk1IVUFzZ1l4bUUzblZzNlZzQldKU0djY3NPbEZQbUxJVmlNekxPQjdwQ1ZPMkF0SEpNb2hIN0ZoNnpxaXRRSzdtMHJKdkFWWWdHY0VwZS8vUExkRHo2NXNNNHBGOU43SUNjWERLSUI1TnY2ajd0RDBOb1NkTTJRclU5R2cwZXdFMUxxQmhIUjNCQmR2ajJ2YXBuaWRqSHhEL3E2dmQ3UHZocjMxQXdjWThlWE1UWEFLRUNaWkpGWHVFcTI3YUxnUUs1dUxNb2hDZW5HR3VHZXdPeFNqQnZZQnFlRzZCK05xaWJsZ2dkam5jK1pYRHkrRk5GcEZ6dzc2TzNVQkFST3VYaDZGb2lBY2Y1ZzllVHZVZ3p5MG5XZzZJOGNYSFJVcGc1Yk9WQkNvK0tEcEZhak9mMjNHZ1BtZTdSU1ErbGFjSUVOVWdKNmdnMWs2SGpnT2xxbkxxaXA0dEV1aHYwaE5FTVhVRDBjbHlYRTNwNnBaQTBTMm5udlRsWHdMSkVaV2xiN2NUUUgxK1VTZ1RONFZoQWVubS93ZWExT0NBT21xbzZmRTFXQ2I5V1NLQmFoK3JiVVdQV0FtRTJSdmswQXBpQjQ1ZU95TkF6VTh4Y1R2ajhLdmtLRW9PYUlZZUhOQTNadXlnQXZGTVVPMEFBQUFBU1VWT1JLNUNZSUk9Ii8+PHRleHQgeD0iNzk0LjUiIHk9IjI1MiIgZmlsbD0iI0ZGRkZGRiIgc3R5bGU9InRleHQtYW5jaG9yOiBtaWRkbGU7IGZvbnQtc2l6ZTogMTZweDsgZm9udC13ZWlnaHQ6IGJvbGQ7IGZvbnQtZmFtaWx5OiAmcXVvdDtPcGVuIFNhbnMmcXVvdDssIHNhbnMtc2VyaWY7Ij48dHNwYW4gZHk9IjAiIGFsaWdubWVudC1iYXNlbGluZT0ibWF0aGVtYXRpY2FsIj5BZG1pbmlzdHJhZG9yPC90c3Bhbj48L3RleHQ+PHRleHQgeD0iNzk0LjUiIHk9IjI4OSIgZmlsbD0iI0ZGRkZGRiIgc3R5bGU9InRleHQtYW5jaG9yOiBtaWRkbGU7IGZvbnQtc2l6ZTogMTRweDsgZm9udC13ZWlnaHQ6IG5vcm1hbDsgZm9udC1mYW1pbHk6ICZxdW90O09wZW4gU2FucyZxdW90Oywgc2Fucy1zZXJpZjsiPjx0c3BhbiBkeT0iMCIgYWxpZ25tZW50LWJhc2VsaW5lPSJtYXRoZW1hdGljYWwiPkdlcmVuY2lhIHVzdcOhcmlvcywgbGl2cm9zIGUgdmlzdWFsaXphIHJlbGF0w7NyaW9zPC90c3Bhbj48L3RleHQ+PC9nPjxnIGNsYXNzPSJwZXJzb24tbWFuIj48cmVjdCB4PSIyMDAiIHk9IjUwNiIgZmlsbD0iIzQzOERENSIgc3Ryb2tlPSIjM0M3RkMwIiB3aWR0aD0iMzcxIiBoZWlnaHQ9IjEwNSIgcng9IjIuNSIgcnk9IjIuNSIgc3Ryb2tlLXdpZHRoPSIwLjUiLz48dGV4dCBmaWxsPSIjRkZGRkZGIiBmb250LWZhbWlseT0iJnF1b3Q7T3BlbiBTYW5zJnF1b3Q7LCBzYW5zLXNlcmlmIiBmb250LXNpemU9IjEyIiBmb250LXN0eWxlPSJpdGFsaWMiIGxlbmd0aEFkanVzdD0ic3BhY2luZyIgdGV4dExlbmd0aD0iNjMiIHg9IjM1NCIgeT0iNTI2Ij4mbHQ7Jmx0O2NvbnRhaW5lciZndDsmZ3Q7PC90ZXh0Pjx0ZXh0IHg9IjM4NS41IiB5PSI1NDQiIGZpbGw9IiNGRkZGRkYiIHN0eWxlPSJ0ZXh0LWFuY2hvcjogbWlkZGxlOyBmb250LXNpemU6IDE2cHg7IGZvbnQtd2VpZ2h0OiBib2xkOyBmb250LWZhbWlseTogJnF1b3Q7T3BlbiBTYW5zJnF1b3Q7LCBzYW5zLXNlcmlmOyI+PHRzcGFuIGR5PSIwIiBhbGlnbm1lbnQtYmFzZWxpbmU9Im1hdGhlbWF0aWNhbCI+SW50ZXJmYWNlIGRlIFVzdcOhcmlvPC90c3Bhbj48L3RleHQ+PHRleHQgeD0iMzg1LjUiIHk9IjU2NiIgZmlsbD0iI0ZGRkZGRiIgZm9udC1zdHlsZT0iaXRhbGljIiBzdHlsZT0idGV4dC1hbmNob3I6IG1pZGRsZTsgZm9udC1zaXplOiAxNHB4OyBmb250LXdlaWdodDogbm9ybWFsOyBmb250LWZhbWlseTogJnF1b3Q7T3BlbiBTYW5zJnF1b3Q7LCBzYW5zLXNlcmlmOyI+PHRzcGFuIGR5PSIwIiBhbGlnbm1lbnQtYmFzZWxpbmU9Im1hdGhlbWF0aWNhbCI+W0NvbnNvbGVdPC90c3Bhbj48L3RleHQ+PHRleHQgeD0iMzg1LjUiIHk9IjYwMCIgZmlsbD0iI0ZGRkZGRiIgc3R5bGU9InRleHQtYW5jaG9yOiBtaWRkbGU7IGZvbnQtc2l6ZTogMTRweDsgZm9udC13ZWlnaHQ6IG5vcm1hbDsgZm9udC1mYW1pbHk6ICZxdW90O09wZW4gU2FucyZxdW90Oywgc2Fucy1zZXJpZjsiPjx0c3BhbiBkeT0iMCIgYWxpZ25tZW50LWJhc2VsaW5lPSJtYXRoZW1hdGljYWwiPlByb3bDqiBpbnRlcmZhY2UgcGFyYSB1c3XDoXJpb3MgY29tdW5zIGUgYWRtaW5pc3RyYWRvcmVzPC90c3Bhbj48L3RleHQ+PC9nPjxnIGNsYXNzPSJwZXJzb24tbWFuIj48cmVjdCB4PSI2NzEiIHk9IjUwNiIgZmlsbD0iI0M3RTlCMCIgc3Ryb2tlPSIjM0M3RkMwIiB3aWR0aD0iMzU5IiBoZWlnaHQ9IjEwNSIgcng9IjIuNSIgcnk9IjIuNSIgc3Ryb2tlLXdpZHRoPSIwLjUiLz48dGV4dCBmaWxsPSIjRkZGRkZGIiBmb250LWZhbWlseT0iJnF1b3Q7T3BlbiBTYW5zJnF1b3Q7LCBzYW5zLXNlcmlmIiBmb250LXNpemU9IjEyIiBmb250LXN0eWxlPSJpdGFsaWMiIGxlbmd0aEFkanVzdD0ic3BhY2luZyIgdGV4dExlbmd0aD0iNjMiIHg9IjgxOSIgeT0iNTI2Ij4mbHQ7Jmx0O2NvbnRhaW5lciZndDsmZ3Q7PC90ZXh0Pjx0ZXh0IHg9Ijg1MC41IiB5PSI1NDQiIGZpbGw9IiNGRkZGRkYiIHN0eWxlPSJ0ZXh0LWFuY2hvcjogbWlkZGxlOyBmb250LXNpemU6IDE2cHg7IGZvbnQtd2VpZ2h0OiBib2xkOyBmb250LWZhbWlseTogJnF1b3Q7T3BlbiBTYW5zJnF1b3Q7LCBzYW5zLXNlcmlmOyI+PHRzcGFuIGR5PSIwIiBhbGlnbm1lbnQtYmFzZWxpbmU9Im1hdGhlbWF0aWNhbCI+TMOzZ2ljYSBkZSBBcGxpY2HDp8OjbzwvdHNwYW4+PC90ZXh0Pjx0ZXh0IHg9Ijg1MC41IiB5PSI1NjYiIGZpbGw9IiNGRkZGRkYiIGZvbnQtc3R5bGU9Iml0YWxpYyIgc3R5bGU9InRleHQtYW5jaG9yOiBtaWRkbGU7IGZvbnQtc2l6ZTogMTRweDsgZm9udC13ZWlnaHQ6IG5vcm1hbDsgZm9udC1mYW1pbHk6ICZxdW90O09wZW4gU2FucyZxdW90Oywgc2Fucy1zZXJpZjsiPjx0c3BhbiBkeT0iMCIgYWxpZ25tZW50LWJhc2VsaW5lPSJtYXRoZW1hdGljYWwiPltQeXRob25dPC90c3Bhbj48L3RleHQ+PHRleHQgeD0iODUwLjUiIHk9IjYwMCIgZmlsbD0iI0ZGRkZGRiIgc3R5bGU9InRleHQtYW5jaG9yOiBtaWRkbGU7IGZvbnQtc2l6ZTogMTRweDsgZm9udC13ZWlnaHQ6IG5vcm1hbDsgZm9udC1mYW1pbHk6ICZxdW90O09wZW4gU2FucyZxdW90Oywgc2Fucy1zZXJpZjsiPjx0c3BhbiBkeT0iMCIgYWxpZ25tZW50LWJhc2VsaW5lPSJtYXRoZW1hdGljYWwiPkltcGxlbWVudGEgYSBsw7NnaWNhIGRlIG5lZ8OzY2lvcyBlIGdlcmVuY2lhIGVudGlkYWRlczwvdHNwYW4+PC90ZXh0PjwvZz48ZyBjbGFzcz0icGVyc29uLW1hbiI+PHJlY3QgeD0iMjAwIiB5PSI3MTEiIGZpbGw9IiNDMEY3RkYiIHN0cm9rZT0iIzNDN0ZDMCIgd2lkdGg9IjI2OSIgaGVpZ2h0PSIxMDUiIHJ4PSIyLjUiIHJ5PSIyLjUiIHN0cm9rZS13aWR0aD0iMC41Ii8+PHRleHQgZmlsbD0iI0ZGRkZGRiIgZm9udC1mYW1pbHk9IiZxdW90O09wZW4gU2FucyZxdW90Oywgc2Fucy1zZXJpZiIgZm9udC1zaXplPSIxMiIgZm9udC1zdHlsZT0iaXRhbGljIiBsZW5ndGhBZGp1c3Q9InNwYWNpbmciIHRleHRMZW5ndGg9IjYzIiB4PSIzMDMiIHk9IjczMSI+Jmx0OyZsdDtjb250YWluZXImZ3Q7Jmd0OzwvdGV4dD48dGV4dCB4PSIzMzQuNSIgeT0iNzQ5IiBmaWxsPSIjRkZGRkZGIiBzdHlsZT0idGV4dC1hbmNob3I6IG1pZGRsZTsgZm9udC1zaXplOiAxNnB4OyBmb250LXdlaWdodDogYm9sZDsgZm9udC1mYW1pbHk6ICZxdW90O09wZW4gU2FucyZxdW90Oywgc2Fucy1zZXJpZjsiPjx0c3BhbiBkeT0iMCIgYWxpZ25tZW50LWJhc2VsaW5lPSJtYXRoZW1hdGljYWwiPkNhbWFkYSBkZSBQZXJzaXN0w6puY2lhPC90c3Bhbj48L3RleHQ+PHRleHQgeD0iMzM0LjUiIHk9Ijc3MSIgZmlsbD0iI0ZGRkZGRiIgZm9udC1zdHlsZT0iaXRhbGljIiBzdHlsZT0idGV4dC1hbmNob3I6IG1pZGRsZTsgZm9udC1zaXplOiAxNHB4OyBmb250LXdlaWdodDogbm9ybWFsOyBmb250LWZhbWlseTogJnF1b3Q7T3BlbiBTYW5zJnF1b3Q7LCBzYW5zLXNlcmlmOyI+PHRzcGFuIGR5PSIwIiBhbGlnbm1lbnQtYmFzZWxpbmU9Im1hdGhlbWF0aWNhbCI+W1B5dGhvbl08L3RzcGFuPjwvdGV4dD48dGV4dCB4PSIzMzQuNSIgeT0iODA1IiBmaWxsPSIjRkZGRkZGIiBzdHlsZT0idGV4dC1hbmNob3I6IG1pZGRsZTsgZm9udC1zaXplOiAxNHB4OyBmb250LXdlaWdodDogbm9ybWFsOyBmb250LWZhbWlseTogJnF1b3Q7T3BlbiBTYW5zJnF1b3Q7LCBzYW5zLXNlcmlmOyI+PHRzcGFuIGR5PSIwIiBhbGlnbm1lbnQtYmFzZWxpbmU9Im1hdGhlbWF0aWNhbCI+QXJtYXplbmEgZSByZWN1cGVyYSBkYWRvcyBkbyBzaXN0ZW1hPC90c3Bhbj48L3RleHQ+PC9nPjxnPjxyZWN0IHg9IjE1MCIgeT0iNDA2IiBmaWxsPSJub25lIiBzdHJva2U9IiM0NDQ0NDQiIHdpZHRoPSI5MzAiIGhlaWdodD0iNDYwIiByeD0iMi41IiByeT0iMi41IiBzdHJva2Utd2lkdGg9IjEiIHN0cm9rZS1kYXNoYXJyYXk9IjcuMCw3LjAiLz48dGV4dCB4PSI2MTUiIHk9IjQxNCIgZmlsbD0iIzQ0NDQ0NCIgc3R5bGU9InRleHQtYW5jaG9yOiBtaWRkbGU7IGZvbnQtc2l6ZTogMTZweDsgZm9udC13ZWlnaHQ6IGJvbGQ7IGZvbnQtZmFtaWx5OiAmcXVvdDtPcGVuIFNhbnMmcXVvdDssIHNhbnMtc2VyaWY7Ij48dHNwYW4gZHk9IjAiIGFsaWdubWVudC1iYXNlbGluZT0ibWF0aGVtYXRpY2FsIj5TaXN0ZW1hIGRlIEJpYmxpb3RlY2E8L3RzcGFuPjwvdGV4dD48dGV4dCB4PSI2MTUiIHk9IjQzNiIgZmlsbD0iIzQ0NDQ0NCIgc3R5bGU9InRleHQtYW5jaG9yOiBtaWRkbGU7IGZvbnQtc2l6ZTogMTRweDsgZm9udC13ZWlnaHQ6IG5vcm1hbDsgZm9udC1mYW1pbHk6ICZxdW90O09wZW4gU2FucyZxdW90Oywgc2Fucy1zZXJpZjsiPjx0c3BhbiBkeT0iMCIgYWxpZ25tZW50LWJhc2VsaW5lPSJtYXRoZW1hdGljYWwiPltTWVNURU1dPC90c3Bhbj48L3RleHQ+PC9nPjxnPjxsaW5lIHgxPSIzODYuMiIgeTE9IjMwMCIgeDI9IjQxMy41NzY5MjMwNzY5MjMxIiB5Mj0iNTA2IiBzdHJva2Utd2lkdGg9IjEiIHN0cm9rZT0iIzQ0NDQ0NCIgbWFya2VyLWVuZD0idXJsKCNhcnJvd2hlYWQpIiBzdHlsZT0iZmlsbDogbm9uZTsiLz48dGV4dCB4PSI0MzQuODg4NDYxNTM4NDYxNTciIHk9IjQwMyIgZmlsbD0iIzQ0NDQ0NCIgc3R5bGU9InRleHQtYW5jaG9yOiBtaWRkbGU7IGZvbnQtc2l6ZTogMTJweDsgZm9udC13ZWlnaHQ6IG5vcm1hbDsgZm9udC1mYW1pbHk6ICZxdW90O09wZW4gU2FucyZxdW90Oywgc2Fucy1zZXJpZjsiPjx0c3BhbiBkeT0iMCIgYWxpZ25tZW50LWJhc2VsaW5lPSJtYXRoZW1hdGljYWwiPkludGVyYWdlIGNvbTwvdHNwYW4+PC90ZXh0PjxwYXRoIGZpbGw9Im5vbmUiIHN0cm9rZS13aWR0aD0iMSIgc3Ryb2tlPSIjNDQ0NDQ0IiBkPSJNNzUwLjcxNTI4NjYyNDIwMzgsMzAwIFE2ODcuOTkzMTk1NzM3MzgzNiw0MDMgNDk5LjgyNjkyMzA3NjkyMzEsNTA2IiBtYXJrZXItZW5kPSJ1cmwoI2Fycm93aGVhZCkiLz48dGV4dCB4PSI2NjAuMjcxMTA0ODUwNTYzNSIgeT0iNDAzIiBmaWxsPSIjNDQ0NDQ0IiBzdHlsZT0idGV4dC1hbmNob3I6IG1pZGRsZTsgZm9udC1zaXplOiAxMnB4OyBmb250LXdlaWdodDogbm9ybWFsOyBmb250LWZhbWlseTogJnF1b3Q7T3BlbiBTYW5zJnF1b3Q7LCBzYW5zLXNlcmlmOyI+PHRzcGFuIGR5PSIwIiBhbGlnbm1lbnQtYmFzZWxpbmU9Im1hdGhlbWF0aWNhbCI+SW50ZXJhZ2UgY29tPC90c3Bhbj48L3RleHQ+PHBhdGggZmlsbD0ibm9uZSIgc3Ryb2tlLXdpZHRoPSIxIiBzdHJva2U9IiM0NDQ0NDQiIGQ9Ik01NzEsNTczLjQ3MTE3NjAxODQ0NzMgUTU5Niw1ODIuNDg5NTI4NDY0NTY1MiA2NzEsNTkxLjUwNzg4MDkxMDY4MzEiIG1hcmtlci1lbmQ9InVybCgjYXJyb3doZWFkKSIvPjx0ZXh0IHg9IjYzMiIgeT0iNTgyLjQ4OTUyODQ2NDU2NTIiIGZpbGw9IiM0NDQ0NDQiIHN0eWxlPSJ0ZXh0LWFuY2hvcjogbWlkZGxlOyBmb250LXNpemU6IDEycHg7IGZvbnQtd2VpZ2h0OiBub3JtYWw7IGZvbnQtZmFtaWx5OiAmcXVvdDtPcGVuIFNhbnMmcXVvdDssIHNhbnMtc2VyaWY7Ij48dHNwYW4gZHk9IjAiIGFsaWdubWVudC1iYXNlbGluZT0ibWF0aGVtYXRpY2FsIj5Vc2E8L3RzcGFuPjwvdGV4dD48cGF0aCBmaWxsPSJub25lIiBzdHJva2Utd2lkdGg9IjEiIHN0cm9rZT0iIzQ0NDQ0NCIgZD0iTTc4MS44OTMyMDM4ODM0OTUyLDYxMSBRNzAzLjY2OTkwMjkxMjYyMTMsNjcxLjQ4NDI0Mjg5MDA4NDUgNDY5LDczMS45Njg0ODU3ODAxNjkxIiBtYXJrZXItZW5kPSJ1cmwoI2Fycm93aGVhZCkiLz48dGV4dCB4PSI2MzYuNDQ2NjAxOTQxNzQ3NSIgeT0iNjcxLjQ4NDI0Mjg5MDA4NDUiIGZpbGw9IiM0NDQ0NDQiIHN0eWxlPSJ0ZXh0LWFuY2hvcjogbWlkZGxlOyBmb250LXNpemU6IDEycHg7IGZvbnQtd2VpZ2h0OiBub3JtYWw7IGZvbnQtZmFtaWx5OiAmcXVvdDtPcGVuIFNhbnMmcXVvdDssIHNhbnMtc2VyaWY7Ij48dHNwYW4gZHk9IjAiIGFsaWdubWVudC1iYXNlbGluZT0ibWF0aGVtYXRpY2FsIj5Vc2E8L3RzcGFuPjwvdGV4dD48L2c+PHRleHQgeD0iMzY1IiB5PSIyMCI+TsOtdmVsIGRlIENvbnTDqmluZXJlcyBkbyBTaXN0ZW1hIGRlIEJpYmxpb3RlY2E8L3RleHQ+PC9nPjwvc3ZnPg==;" vertex="1" parent="1">
          <mxGeometry x="510" y="40" width="465" height="430" as="geometry" />
        </mxCell>
        <mxCell id="N4wvzvUzEeqzLbN_h-wU-3" value="" style="shape=image;verticalLabelPosition=bottom;labelBackgroundColor=default;verticalAlign=top;aspect=fixed;imageAspect=0;editableCssRules=.*;image=data:image/svg+xml,PHN2ZyB4bWxuczp4bGluaz0iaHR0cDovL3d3dy53My5vcmcvMTk5OS94bGluayIgeG1sbnM9Imh0dHA6Ly93d3cudzMub3JnLzIwMDAvc3ZnIiBoZWlnaHQ9IjQ2OC4xMTIyMTMxMzQ3NjU2IiBpZD0iZ3JhcGgtMTAyIiB3aWR0aD0iMjc3Ljk2MjAzNjEzMjgxMjUiIHN0eWxlPSJvdmVyZmxvdzogaGlkZGVuOyBtYXgtd2lkdGg6IDEwMCU7IHRvdWNoLWFjdGlvbjogbm9uZTsgdXNlci1zZWxlY3Q6IG5vbmU7IC13ZWJraXQtdXNlci1kcmFnOiBub25lOyAtd2Via2l0LXRhcC1oaWdobGlnaHQtY29sb3I6IHJnYmEoMCwgMCwgMCwgMCk7IiByb2xlPSJncmFwaGljcy1kb2N1bWVudCBkb2N1bWVudCIgYXJpYS1yb2xlZGVzY3JpcHRpb249ImM0IiB2aWV3Qm94PSI4Ni4xMzE1NTM2NDk5MDIzNCAyOS4xNjEyNjA2MDQ4NTg0IDI3Ny45NjIwMzYxMzI4MTI1IDQ2OC4xMTIyMTMxMzQ3NjU2Ij48ZGVmcz48c3ltYm9sIGlkPSJjb21wdXRlciIgd2lkdGg9IjI0IiBoZWlnaHQ9IjI0Ij48cGF0aCB0cmFuc2Zvcm09InNjYWxlKC41KSIgZD0iTTIgMnYxM2gyMHYtMTNoLTIwem0xOCAxMWgtMTZ2LTloMTZ2OXptLTEwLjIyOCA2bC40NjYtMWgzLjUyNGwuNDY3IDFoLTQuNDU3em0xNC4yMjggM2gtMjRsMi02aDIuMTA0bC0xLjMzIDRoMTguNDVsLTEuMjk3LTRoMi4wNzNsMiA2em0tNS0xMGgtMTR2LTdoMTR2N3oiLz48L3N5bWJvbD48L2RlZnM+PGRlZnM+PHN5bWJvbCBpZD0iZGF0YWJhc2UiIGZpbGwtcnVsZT0iZXZlbm9kZCIgY2xpcC1ydWxlPSJldmVub2RkIj48cGF0aCB0cmFuc2Zvcm09InNjYWxlKC41KSIgZD0iTTEyLjI1OC4wMDFsLjI1Ni4wMDQuMjU1LjAwNS4yNTMuMDA4LjI1MS4wMS4yNDkuMDEyLjI0Ny4wMTUuMjQ2LjAxNi4yNDIuMDE5LjI0MS4wMi4yMzkuMDIzLjIzNi4wMjQuMjMzLjAyNy4yMzEuMDI4LjIyOS4wMzEuMjI1LjAzMi4yMjMuMDM0LjIyLjAzNi4yMTcuMDM4LjIxNC4wNC4yMTEuMDQxLjIwOC4wNDMuMjA1LjA0NS4yMDEuMDQ2LjE5OC4wNDguMTk0LjA1LjE5MS4wNTEuMTg3LjA1My4xODMuMDU0LjE4LjA1Ni4xNzUuMDU3LjE3Mi4wNTkuMTY4LjA2LjE2My4wNjEuMTYuMDYzLjE1NS4wNjQuMTUuMDY2LjA3NC4wMzMuMDczLjAzMy4wNzEuMDM0LjA3LjAzNC4wNjkuMDM1LjA2OC4wMzUuMDY3LjAzNS4wNjYuMDM1LjA2NC4wMzYuMDY0LjAzNi4wNjIuMDM2LjA2LjAzNi4wNi4wMzcuMDU4LjAzNy4wNTguMDM3LjA1NS4wMzguMDU1LjAzOC4wNTMuMDM4LjA1Mi4wMzguMDUxLjAzOS4wNS4wMzkuMDQ4LjAzOS4wNDcuMDM5LjA0NS4wNC4wNDQuMDQuMDQzLjA0LjA0MS4wNC4wNC4wNDEuMDM5LjA0MS4wMzcuMDQxLjAzNi4wNDEuMDM0LjA0MS4wMzMuMDQyLjAzMi4wNDIuMDMuMDQyLjAyOS4wNDIuMDI3LjA0Mi4wMjYuMDQzLjAyNC4wNDMuMDIzLjA0My4wMjEuMDQzLjAyLjA0My4wMTguMDQ0LjAxNy4wNDMuMDE1LjA0NC4wMTMuMDQ0LjAxMi4wNDQuMDExLjA0NS4wMDkuMDQ0LjAwNy4wNDUuMDA2LjA0NS4wMDQuMDQ1LjAwMi4wNDUuMDAxLjA0NXYxN2wtLjAwMS4wNDUtLjAwMi4wNDUtLjAwNC4wNDUtLjAwNi4wNDUtLjAwNy4wNDUtLjAwOS4wNDQtLjAxMS4wNDUtLjAxMi4wNDQtLjAxMy4wNDQtLjAxNS4wNDQtLjAxNy4wNDMtLjAxOC4wNDQtLjAyLjA0My0uMDIxLjA0My0uMDIzLjA0My0uMDI0LjA0My0uMDI2LjA0My0uMDI3LjA0Mi0uMDI5LjA0Mi0uMDMuMDQyLS4wMzIuMDQyLS4wMzMuMDQyLS4wMzQuMDQxLS4wMzYuMDQxLS4wMzcuMDQxLS4wMzkuMDQxLS4wNC4wNDEtLjA0MS4wNC0uMDQzLjA0LS4wNDQuMDQtLjA0NS4wNC0uMDQ3LjAzOS0uMDQ4LjAzOS0uMDUuMDM5LS4wNTEuMDM5LS4wNTIuMDM4LS4wNTMuMDM4LS4wNTUuMDM4LS4wNTUuMDM4LS4wNTguMDM3LS4wNTguMDM3LS4wNi4wMzctLjA2LjAzNi0uMDYyLjAzNi0uMDY0LjAzNi0uMDY0LjAzNi0uMDY2LjAzNS0uMDY3LjAzNS0uMDY4LjAzNS0uMDY5LjAzNS0uMDcuMDM0LS4wNzEuMDM0LS4wNzMuMDMzLS4wNzQuMDMzLS4xNS4wNjYtLjE1NS4wNjQtLjE2LjA2My0uMTYzLjA2MS0uMTY4LjA2LS4xNzIuMDU5LS4xNzUuMDU3LS4xOC4wNTYtLjE4My4wNTQtLjE4Ny4wNTMtLjE5MS4wNTEtLjE5NC4wNS0uMTk4LjA0OC0uMjAxLjA0Ni0uMjA1LjA0NS0uMjA4LjA0My0uMjExLjA0MS0uMjE0LjA0LS4yMTcuMDM4LS4yMi4wMzYtLjIyMy4wMzQtLjIyNS4wMzItLjIyOS4wMzEtLjIzMS4wMjgtLjIzMy4wMjctLjIzNi4wMjQtLjIzOS4wMjMtLjI0MS4wMi0uMjQyLjAxOS0uMjQ2LjAxNi0uMjQ3LjAxNS0uMjQ5LjAxMi0uMjUxLjAxLS4yNTMuMDA4LS4yNTUuMDA1LS4yNTYuMDA0LS4yNTguMDAxLS4yNTgtLjAwMS0uMjU2LS4wMDQtLjI1NS0uMDA1LS4yNTMtLjAwOC0uMjUxLS4wMS0uMjQ5LS4wMTItLjI0Ny0uMDE1LS4yNDUtLjAxNi0uMjQzLS4wMTktLjI0MS0uMDItLjIzOC0uMDIzLS4yMzYtLjAyNC0uMjM0LS4wMjctLjIzMS0uMDI4LS4yMjgtLjAzMS0uMjI2LS4wMzItLjIyMy0uMDM0LS4yMi0uMDM2LS4yMTctLjAzOC0uMjE0LS4wNC0uMjExLS4wNDEtLjIwOC0uMDQzLS4yMDQtLjA0NS0uMjAxLS4wNDYtLjE5OC0uMDQ4LS4xOTUtLjA1LS4xOS0uMDUxLS4xODctLjA1My0uMTg0LS4wNTQtLjE3OS0uMDU2LS4xNzYtLjA1Ny0uMTcyLS4wNTktLjE2Ny0uMDYtLjE2NC0uMDYxLS4xNTktLjA2My0uMTU1LS4wNjQtLjE1MS0uMDY2LS4wNzQtLjAzMy0uMDcyLS4wMzMtLjA3Mi0uMDM0LS4wNy0uMDM0LS4wNjktLjAzNS0uMDY4LS4wMzUtLjA2Ny0uMDM1LS4wNjYtLjAzNS0uMDY0LS4wMzYtLjA2My0uMDM2LS4wNjItLjAzNi0uMDYxLS4wMzYtLjA2LS4wMzctLjA1OC0uMDM3LS4wNTctLjAzNy0uMDU2LS4wMzgtLjA1NS0uMDM4LS4wNTMtLjAzOC0uMDUyLS4wMzgtLjA1MS0uMDM5LS4wNDktLjAzOS0uMDQ5LS4wMzktLjA0Ni0uMDM5LS4wNDYtLjA0LS4wNDQtLjA0LS4wNDMtLjA0LS4wNDEtLjA0LS4wNC0uMDQxLS4wMzktLjA0MS0uMDM3LS4wNDEtLjAzNi0uMDQxLS4wMzQtLjA0MS0uMDMzLS4wNDItLjAzMi0uMDQyLS4wMy0uMDQyLS4wMjktLjA0Mi0uMDI3LS4wNDItLjAyNi0uMDQzLS4wMjQtLjA0My0uMDIzLS4wNDMtLjAyMS0uMDQzLS4wMi0uMDQzLS4wMTgtLjA0NC0uMDE3LS4wNDMtLjAxNS0uMDQ0LS4wMTMtLjA0NC0uMDEyLS4wNDQtLjAxMS0uMDQ1LS4wMDktLjA0NC0uMDA3LS4wNDUtLjAwNi0uMDQ1LS4wMDQtLjA0NS0uMDAyLS4wNDUtLjAwMS0uMDQ1di0xN2wuMDAxLS4wNDUuMDAyLS4wNDUuMDA0LS4wNDUuMDA2LS4wNDUuMDA3LS4wNDUuMDA5LS4wNDQuMDExLS4wNDUuMDEyLS4wNDQuMDEzLS4wNDQuMDE1LS4wNDQuMDE3LS4wNDMuMDE4LS4wNDQuMDItLjA0My4wMjEtLjA0My4wMjMtLjA0My4wMjQtLjA0My4wMjYtLjA0My4wMjctLjA0Mi4wMjktLjA0Mi4wMy0uMDQyLjAzMi0uMDQyLjAzMy0uMDQyLjAzNC0uMDQxLjAzNi0uMDQxLjAzNy0uMDQxLjAzOS0uMDQxLjA0LS4wNDEuMDQxLS4wNC4wNDMtLjA0LjA0NC0uMDQuMDQ2LS4wNC4wNDYtLjAzOS4wNDktLjAzOS4wNDktLjAzOS4wNTEtLjAzOS4wNTItLjAzOC4wNTMtLjAzOC4wNTUtLjAzOC4wNTYtLjAzOC4wNTctLjAzNy4wNTgtLjAzNy4wNi0uMDM3LjA2MS0uMDM2LjA2Mi0uMDM2LjA2My0uMDM2LjA2NC0uMDM2LjA2Ni0uMDM1LjA2Ny0uMDM1LjA2OC0uMDM1LjA2OS0uMDM1LjA3LS4wMzQuMDcyLS4wMzQuMDcyLS4wMzMuMDc0LS4wMzMuMTUxLS4wNjYuMTU1LS4wNjQuMTU5LS4wNjMuMTY0LS4wNjEuMTY3LS4wNi4xNzItLjA1OS4xNzYtLjA1Ny4xNzktLjA1Ni4xODQtLjA1NC4xODctLjA1My4xOS0uMDUxLjE5NS0uMDUuMTk4LS4wNDguMjAxLS4wNDYuMjA0LS4wNDUuMjA4LS4wNDMuMjExLS4wNDEuMjE0LS4wNC4yMTctLjAzOC4yMi0uMDM2LjIyMy0uMDM0LjIyNi0uMDMyLjIyOC0uMDMxLjIzMS0uMDI4LjIzNC0uMDI3LjIzNi0uMDI0LjIzOC0uMDIzLjI0MS0uMDIuMjQzLS4wMTkuMjQ1LS4wMTYuMjQ3LS4wMTUuMjQ5LS4wMTIuMjUxLS4wMS4yNTMtLjAwOC4yNTUtLjAwNS4yNTYtLjAwNC4yNTgtLjAwMS4yNTguMDAxem0tOS4yNTggMjAuNDk5di4wMWwuMDAxLjAyMS4wMDMuMDIxLjAwNC4wMjIuMDA1LjAyMS4wMDYuMDIyLjAwNy4wMjIuMDA5LjAyMy4wMS4wMjIuMDExLjAyMy4wMTIuMDIzLjAxMy4wMjMuMDE1LjAyMy4wMTYuMDI0LjAxNy4wMjMuMDE4LjAyNC4wMTkuMDI0LjAyMS4wMjQuMDIyLjAyNS4wMjMuMDI0LjAyNC4wMjUuMDUyLjA0OS4wNTYuMDUuMDYxLjA1MS4wNjYuMDUxLjA3LjA1MS4wNzUuMDUxLjA3OS4wNTIuMDg0LjA1Mi4wODguMDUyLjA5Mi4wNTIuMDk3LjA1Mi4xMDIuMDUxLjEwNS4wNTIuMTEuMDUyLjExNC4wNTEuMTE5LjA1MS4xMjMuMDUxLjEyNy4wNS4xMzEuMDUuMTM1LjA1LjEzOS4wNDguMTQ0LjA0OS4xNDcuMDQ3LjE1Mi4wNDcuMTU1LjA0Ny4xNi4wNDUuMTYzLjA0NS4xNjcuMDQzLjE3MS4wNDMuMTc2LjA0MS4xNzguMDQxLjE4My4wMzkuMTg3LjAzOS4xOS4wMzcuMTk0LjAzNS4xOTcuMDM1LjIwMi4wMzMuMjA0LjAzMS4yMDkuMDMuMjEyLjAyOS4yMTYuMDI3LjIxOS4wMjUuMjIyLjAyNC4yMjYuMDIxLjIzLjAyLjIzMy4wMTguMjM2LjAxNi4yNC4wMTUuMjQzLjAxMi4yNDYuMDEuMjQ5LjAwOC4yNTMuMDA1LjI1Ni4wMDQuMjU5LjAwMS4yNi0uMDAxLjI1Ny0uMDA0LjI1NC0uMDA1LjI1LS4wMDguMjQ3LS4wMTEuMjQ0LS4wMTIuMjQxLS4wMTQuMjM3LS4wMTYuMjMzLS4wMTguMjMxLS4wMjEuMjI2LS4wMjEuMjI0LS4wMjQuMjItLjAyNi4yMTYtLjAyNy4yMTItLjAyOC4yMS0uMDMxLjIwNS0uMDMxLjIwMi0uMDM0LjE5OC0uMDM0LjE5NC0uMDM2LjE5MS0uMDM3LjE4Ny0uMDM5LjE4My0uMDQuMTc5LS4wNC4xNzUtLjA0Mi4xNzItLjA0My4xNjgtLjA0NC4xNjMtLjA0NS4xNi0uMDQ2LjE1NS0uMDQ2LjE1Mi0uMDQ3LjE0OC0uMDQ4LjE0My0uMDQ5LjEzOS0uMDQ5LjEzNi0uMDUuMTMxLS4wNS4xMjYtLjA1LjEyMy0uMDUxLjExOC0uMDUyLjExNC0uMDUxLjExLS4wNTIuMTA2LS4wNTIuMTAxLS4wNTIuMDk2LS4wNTIuMDkyLS4wNTIuMDg4LS4wNTMuMDgzLS4wNTEuMDc5LS4wNTIuMDc0LS4wNTIuMDctLjA1MS4wNjUtLjA1MS4wNi0uMDUxLjA1Ni0uMDUuMDUxLS4wNS4wMjMtLjAyNC4wMjMtLjAyNS4wMjEtLjAyNC4wMi0uMDI0LjAxOS0uMDI0LjAxOC0uMDI0LjAxNy0uMDI0LjAxNS0uMDIzLjAxNC0uMDI0LjAxMy0uMDIzLjAxMi0uMDIzLjAxLS4wMjMuMDEtLjAyMi4wMDgtLjAyMi4wMDYtLjAyMi4wMDYtLjAyMi4wMDQtLjAyMi4wMDQtLjAyMS4wMDEtLjAyMS4wMDEtLjAyMXYtNC4xMjdsLS4wNzcuMDU1LS4wOC4wNTMtLjA4My4wNTQtLjA4NS4wNTMtLjA4Ny4wNTItLjA5LjA1Mi0uMDkzLjA1MS0uMDk1LjA1LS4wOTcuMDUtLjEuMDQ5LS4xMDIuMDQ5LS4xMDUuMDQ4LS4xMDYuMDQ3LS4xMDkuMDQ3LS4xMTEuMDQ2LS4xMTQuMDQ1LS4xMTUuMDQ1LS4xMTguMDQ0LS4xMi4wNDMtLjEyMi4wNDItLjEyNC4wNDItLjEyNi4wNDEtLjEyOC4wNC0uMTMuMDQtLjEzMi4wMzgtLjEzNC4wMzgtLjEzNS4wMzctLjEzOC4wMzctLjEzOS4wMzUtLjE0Mi4wMzUtLjE0My4wMzQtLjE0NC4wMzMtLjE0Ny4wMzItLjE0OC4wMzEtLjE1LjAzLS4xNTEuMDMtLjE1My4wMjktLjE1NC4wMjctLjE1Ni4wMjctLjE1OC4wMjYtLjE1OS4wMjUtLjE2MS4wMjQtLjE2Mi4wMjMtLjE2My4wMjItLjE2NS4wMjEtLjE2Ni4wMi0uMTY3LjAxOS0uMTY5LjAxOC0uMTY5LjAxNy0uMTcxLjAxNi0uMTczLjAxNS0uMTczLjAxNC0uMTc1LjAxMy0uMTc1LjAxMi0uMTc3LjAxMS0uMTc4LjAxLS4xNzkuMDA4LS4xNzkuMDA4LS4xODEuMDA2LS4xODIuMDA1LS4xODIuMDA0LS4xODQuMDAzLS4xODQuMDAyaC0uMzdsLS4xODQtLjAwMi0uMTg0LS4wMDMtLjE4Mi0uMDA0LS4xODItLjAwNS0uMTgxLS4wMDYtLjE3OS0uMDA4LS4xNzktLjAwOC0uMTc4LS4wMS0uMTc2LS4wMTEtLjE3Ni0uMDEyLS4xNzUtLjAxMy0uMTczLS4wMTQtLjE3Mi0uMDE1LS4xNzEtLjAxNi0uMTctLjAxNy0uMTY5LS4wMTgtLjE2Ny0uMDE5LS4xNjYtLjAyLS4xNjUtLjAyMS0uMTYzLS4wMjItLjE2Mi0uMDIzLS4xNjEtLjAyNC0uMTU5LS4wMjUtLjE1Ny0uMDI2LS4xNTYtLjAyNy0uMTU1LS4wMjctLjE1My0uMDI5LS4xNTEtLjAzLS4xNS0uMDMtLjE0OC0uMDMxLS4xNDYtLjAzMi0uMTQ1LS4wMzMtLjE0My0uMDM0LS4xNDEtLjAzNS0uMTQtLjAzNS0uMTM3LS4wMzctLjEzNi0uMDM3LS4xMzQtLjAzOC0uMTMyLS4wMzgtLjEzLS4wNC0uMTI4LS4wNC0uMTI2LS4wNDEtLjEyNC0uMDQyLS4xMjItLjA0Mi0uMTItLjA0NC0uMTE3LS4wNDMtLjExNi0uMDQ1LS4xMTMtLjA0NS0uMTEyLS4wNDYtLjEwOS0uMDQ3LS4xMDYtLjA0Ny0uMTA1LS4wNDgtLjEwMi0uMDQ5LS4xLS4wNDktLjA5Ny0uMDUtLjA5NS0uMDUtLjA5My0uMDUyLS4wOS0uMDUxLS4wODctLjA1Mi0uMDg1LS4wNTMtLjA4My0uMDU0LS4wOC0uMDU0LS4wNzctLjA1NHY0LjEyN3ptMC01LjY1NHYuMDExbC4wMDEuMDIxLjAwMy4wMjEuMDA0LjAyMS4wMDUuMDIyLjAwNi4wMjIuMDA3LjAyMi4wMDkuMDIyLjAxLjAyMi4wMTEuMDIzLjAxMi4wMjMuMDEzLjAyMy4wMTUuMDI0LjAxNi4wMjMuMDE3LjAyNC4wMTguMDI0LjAxOS4wMjQuMDIxLjAyNC4wMjIuMDI0LjAyMy4wMjUuMDI0LjAyNC4wNTIuMDUuMDU2LjA1LjA2MS4wNS4wNjYuMDUxLjA3LjA1MS4wNzUuMDUyLjA3OS4wNTEuMDg0LjA1Mi4wODguMDUyLjA5Mi4wNTIuMDk3LjA1Mi4xMDIuMDUyLjEwNS4wNTIuMTEuMDUxLjExNC4wNTEuMTE5LjA1Mi4xMjMuMDUuMTI3LjA1MS4xMzEuMDUuMTM1LjA0OS4xMzkuMDQ5LjE0NC4wNDguMTQ3LjA0OC4xNTIuMDQ3LjE1NS4wNDYuMTYuMDQ1LjE2My4wNDUuMTY3LjA0NC4xNzEuMDQyLjE3Ni4wNDIuMTc4LjA0LjE4My4wNC4xODcuMDM4LjE5LjAzNy4xOTQuMDM2LjE5Ny4wMzQuMjAyLjAzMy4yMDQuMDMyLjIwOS4wMy4yMTIuMDI4LjIxNi4wMjcuMjE5LjAyNS4yMjIuMDI0LjIyNi4wMjIuMjMuMDIuMjMzLjAxOC4yMzYuMDE2LjI0LjAxNC4yNDMuMDEyLjI0Ni4wMS4yNDkuMDA4LjI1My4wMDYuMjU2LjAwMy4yNTkuMDAxLjI2LS4wMDEuMjU3LS4wMDMuMjU0LS4wMDYuMjUtLjAwOC4yNDctLjAxLjI0NC0uMDEyLjI0MS0uMDE1LjIzNy0uMDE2LjIzMy0uMDE4LjIzMS0uMDIuMjI2LS4wMjIuMjI0LS4wMjQuMjItLjAyNS4yMTYtLjAyNy4yMTItLjAyOS4yMS0uMDMuMjA1LS4wMzIuMjAyLS4wMzMuMTk4LS4wMzUuMTk0LS4wMzYuMTkxLS4wMzcuMTg3LS4wMzkuMTgzLS4wMzkuMTc5LS4wNDEuMTc1LS4wNDIuMTcyLS4wNDMuMTY4LS4wNDQuMTYzLS4wNDUuMTYtLjA0NS4xNTUtLjA0Ny4xNTItLjA0Ny4xNDgtLjA0OC4xNDMtLjA0OC4xMzktLjA1LjEzNi0uMDQ5LjEzMS0uMDUuMTI2LS4wNTEuMTIzLS4wNTEuMTE4LS4wNTEuMTE0LS4wNTIuMTEtLjA1Mi4xMDYtLjA1Mi4xMDEtLjA1Mi4wOTYtLjA1Mi4wOTItLjA1Mi4wODgtLjA1Mi4wODMtLjA1Mi4wNzktLjA1Mi4wNzQtLjA1MS4wNy0uMDUyLjA2NS0uMDUxLjA2LS4wNS4wNTYtLjA1MS4wNTEtLjA0OS4wMjMtLjAyNS4wMjMtLjAyNC4wMjEtLjAyNS4wMi0uMDI0LjAxOS0uMDI0LjAxOC0uMDI0LjAxNy0uMDI0LjAxNS0uMDIzLjAxNC0uMDIzLjAxMy0uMDI0LjAxMi0uMDIyLjAxLS4wMjMuMDEtLjAyMy4wMDgtLjAyMi4wMDYtLjAyMi4wMDYtLjAyMi4wMDQtLjAyMS4wMDQtLjAyMi4wMDEtLjAyMS4wMDEtLjAyMXYtNC4xMzlsLS4wNzcuMDU0LS4wOC4wNTQtLjA4My4wNTQtLjA4NS4wNTItLjA4Ny4wNTMtLjA5LjA1MS0uMDkzLjA1MS0uMDk1LjA1MS0uMDk3LjA1LS4xLjA0OS0uMTAyLjA0OS0uMTA1LjA0OC0uMTA2LjA0Ny0uMTA5LjA0Ny0uMTExLjA0Ni0uMTE0LjA0NS0uMTE1LjA0NC0uMTE4LjA0NC0uMTIuMDQ0LS4xMjIuMDQyLS4xMjQuMDQyLS4xMjYuMDQxLS4xMjguMDQtLjEzLjAzOS0uMTMyLjAzOS0uMTM0LjAzOC0uMTM1LjAzNy0uMTM4LjAzNi0uMTM5LjAzNi0uMTQyLjAzNS0uMTQzLjAzMy0uMTQ0LjAzMy0uMTQ3LjAzMy0uMTQ4LjAzMS0uMTUuMDMtLjE1MS4wMy0uMTUzLjAyOC0uMTU0LjAyOC0uMTU2LjAyNy0uMTU4LjAyNi0uMTU5LjAyNS0uMTYxLjAyNC0uMTYyLjAyMy0uMTYzLjAyMi0uMTY1LjAyMS0uMTY2LjAyLS4xNjcuMDE5LS4xNjkuMDE4LS4xNjkuMDE3LS4xNzEuMDE2LS4xNzMuMDE1LS4xNzMuMDE0LS4xNzUuMDEzLS4xNzUuMDEyLS4xNzcuMDExLS4xNzguMDA5LS4xNzkuMDA5LS4xNzkuMDA3LS4xODEuMDA3LS4xODIuMDA1LS4xODIuMDA0LS4xODQuMDAzLS4xODQuMDAyaC0uMzdsLS4xODQtLjAwMi0uMTg0LS4wMDMtLjE4Mi0uMDA0LS4xODItLjAwNS0uMTgxLS4wMDctLjE3OS0uMDA3LS4xNzktLjAwOS0uMTc4LS4wMDktLjE3Ni0uMDExLS4xNzYtLjAxMi0uMTc1LS4wMTMtLjE3My0uMDE0LS4xNzItLjAxNS0uMTcxLS4wMTYtLjE3LS4wMTctLjE2OS0uMDE4LS4xNjctLjAxOS0uMTY2LS4wMi0uMTY1LS4wMjEtLjE2My0uMDIyLS4xNjItLjAyMy0uMTYxLS4wMjQtLjE1OS0uMDI1LS4xNTctLjAyNi0uMTU2LS4wMjctLjE1NS0uMDI4LS4xNTMtLjAyOC0uMTUxLS4wMy0uMTUtLjAzLS4xNDgtLjAzMS0uMTQ2LS4wMzMtLjE0NS0uMDMzLS4xNDMtLjAzMy0uMTQxLS4wMzUtLjE0LS4wMzYtLjEzNy0uMDM2LS4xMzYtLjAzNy0uMTM0LS4wMzgtLjEzMi0uMDM5LS4xMy0uMDM5LS4xMjgtLjA0LS4xMjYtLjA0MS0uMTI0LS4wNDItLjEyMi0uMDQzLS4xMi0uMDQzLS4xMTctLjA0NC0uMTE2LS4wNDQtLjExMy0uMDQ2LS4xMTItLjA0Ni0uMTA5LS4wNDYtLjEwNi0uMDQ3LS4xMDUtLjA0OC0uMTAyLS4wNDktLjEtLjA0OS0uMDk3LS4wNS0uMDk1LS4wNTEtLjA5My0uMDUxLS4wOS0uMDUxLS4wODctLjA1My0uMDg1LS4wNTItLjA4My0uMDU0LS4wOC0uMDU0LS4wNzctLjA1NHY0LjEzOXptMC01LjY2NnYuMDExbC4wMDEuMDIuMDAzLjAyMi4wMDQuMDIxLjAwNS4wMjIuMDA2LjAyMS4wMDcuMDIyLjAwOS4wMjMuMDEuMDIyLjAxMS4wMjMuMDEyLjAyMy4wMTMuMDIzLjAxNS4wMjMuMDE2LjAyNC4wMTcuMDI0LjAxOC4wMjMuMDE5LjAyNC4wMjEuMDI1LjAyMi4wMjQuMDIzLjAyNC4wMjQuMDI1LjA1Mi4wNS4wNTYuMDUuMDYxLjA1LjA2Ni4wNTEuMDcuMDUxLjA3NS4wNTIuMDc5LjA1MS4wODQuMDUyLjA4OC4wNTIuMDkyLjA1Mi4wOTcuMDUyLjEwMi4wNTIuMTA1LjA1MS4xMS4wNTIuMTE0LjA1MS4xMTkuMDUxLjEyMy4wNTEuMTI3LjA1LjEzMS4wNS4xMzUuMDUuMTM5LjA0OS4xNDQuMDQ4LjE0Ny4wNDguMTUyLjA0Ny4xNTUuMDQ2LjE2LjA0NS4xNjMuMDQ1LjE2Ny4wNDMuMTcxLjA0My4xNzYuMDQyLjE3OC4wNC4xODMuMDQuMTg3LjAzOC4xOS4wMzcuMTk0LjAzNi4xOTcuMDM0LjIwMi4wMzMuMjA0LjAzMi4yMDkuMDMuMjEyLjAyOC4yMTYuMDI3LjIxOS4wMjUuMjIyLjAyNC4yMjYuMDIxLjIzLjAyLjIzMy4wMTguMjM2LjAxNy4yNC4wMTQuMjQzLjAxMi4yNDYuMDEuMjQ5LjAwOC4yNTMuMDA2LjI1Ni4wMDMuMjU5LjAwMS4yNi0uMDAxLjI1Ny0uMDAzLjI1NC0uMDA2LjI1LS4wMDguMjQ3LS4wMS4yNDQtLjAxMy4yNDEtLjAxNC4yMzctLjAxNi4yMzMtLjAxOC4yMzEtLjAyLjIyNi0uMDIyLjIyNC0uMDI0LjIyLS4wMjUuMjE2LS4wMjcuMjEyLS4wMjkuMjEtLjAzLjIwNS0uMDMyLjIwMi0uMDMzLjE5OC0uMDM1LjE5NC0uMDM2LjE5MS0uMDM3LjE4Ny0uMDM5LjE4My0uMDM5LjE3OS0uMDQxLjE3NS0uMDQyLjE3Mi0uMDQzLjE2OC0uMDQ0LjE2My0uMDQ1LjE2LS4wNDUuMTU1LS4wNDcuMTUyLS4wNDcuMTQ4LS4wNDguMTQzLS4wNDkuMTM5LS4wNDkuMTM2LS4wNDkuMTMxLS4wNTEuMTI2LS4wNS4xMjMtLjA1MS4xMTgtLjA1Mi4xMTQtLjA1MS4xMS0uMDUyLjEwNi0uMDUyLjEwMS0uMDUyLjA5Ni0uMDUyLjA5Mi0uMDUyLjA4OC0uMDUyLjA4My0uMDUyLjA3OS0uMDUyLjA3NC0uMDUyLjA3LS4wNTEuMDY1LS4wNTEuMDYtLjA1MS4wNTYtLjA1LjA1MS0uMDQ5LjAyMy0uMDI1LjAyMy0uMDI1LjAyMS0uMDI0LjAyLS4wMjQuMDE5LS4wMjQuMDE4LS4wMjQuMDE3LS4wMjQuMDE1LS4wMjMuMDE0LS4wMjQuMDEzLS4wMjMuMDEyLS4wMjMuMDEtLjAyMi4wMS0uMDIzLjAwOC0uMDIyLjAwNi0uMDIyLjAwNi0uMDIyLjAwNC0uMDIyLjAwNC0uMDIxLjAwMS0uMDIxLjAwMS0uMDIxdi00LjE1M2wtLjA3Ny4wNTQtLjA4LjA1NC0uMDgzLjA1My0uMDg1LjA1My0uMDg3LjA1My0uMDkuMDUxLS4wOTMuMDUxLS4wOTUuMDUxLS4wOTcuMDUtLjEuMDQ5LS4xMDIuMDQ4LS4xMDUuMDQ4LS4xMDYuMDQ4LS4xMDkuMDQ2LS4xMTEuMDQ2LS4xMTQuMDQ2LS4xMTUuMDQ0LS4xMTguMDQ0LS4xMi4wNDMtLjEyMi4wNDMtLjEyNC4wNDItLjEyNi4wNDEtLjEyOC4wNC0uMTMuMDM5LS4xMzIuMDM5LS4xMzQuMDM4LS4xMzUuMDM3LS4xMzguMDM2LS4xMzkuMDM2LS4xNDIuMDM0LS4xNDMuMDM0LS4xNDQuMDMzLS4xNDcuMDMyLS4xNDguMDMyLS4xNS4wMy0uMTUxLjAzLS4xNTMuMDI4LS4xNTQuMDI4LS4xNTYuMDI3LS4xNTguMDI2LS4xNTkuMDI0LS4xNjEuMDI0LS4xNjIuMDIzLS4xNjMuMDIzLS4xNjUuMDIxLS4xNjYuMDItLjE2Ny4wMTktLjE2OS4wMTgtLjE2OS4wMTctLjE3MS4wMTYtLjE3My4wMTUtLjE3My4wMTQtLjE3NS4wMTMtLjE3NS4wMTItLjE3Ny4wMS0uMTc4LjAxLS4xNzkuMDA5LS4xNzkuMDA3LS4xODEuMDA2LS4xODIuMDA2LS4xODIuMDA0LS4xODQuMDAzLS4xODQuMDAxLS4xODUuMDAxLS4xODUtLjAwMS0uMTg0LS4wMDEtLjE4NC0uMDAzLS4xODItLjAwNC0uMTgyLS4wMDYtLjE4MS0uMDA2LS4xNzktLjAwNy0uMTc5LS4wMDktLjE3OC0uMDEtLjE3Ni0uMDEtLjE3Ni0uMDEyLS4xNzUtLjAxMy0uMTczLS4wMTQtLjE3Mi0uMDE1LS4xNzEtLjAxNi0uMTctLjAxNy0uMTY5LS4wMTgtLjE2Ny0uMDE5LS4xNjYtLjAyLS4xNjUtLjAyMS0uMTYzLS4wMjMtLjE2Mi0uMDIzLS4xNjEtLjAyNC0uMTU5LS4wMjQtLjE1Ny0uMDI2LS4xNTYtLjAyNy0uMTU1LS4wMjgtLjE1My0uMDI4LS4xNTEtLjAzLS4xNS0uMDMtLjE0OC0uMDMyLS4xNDYtLjAzMi0uMTQ1LS4wMzMtLjE0My0uMDM0LS4xNDEtLjAzNC0uMTQtLjAzNi0uMTM3LS4wMzYtLjEzNi0uMDM3LS4xMzQtLjAzOC0uMTMyLS4wMzktLjEzLS4wMzktLjEyOC0uMDQxLS4xMjYtLjA0MS0uMTI0LS4wNDEtLjEyMi0uMDQzLS4xMi0uMDQzLS4xMTctLjA0NC0uMTE2LS4wNDQtLjExMy0uMDQ2LS4xMTItLjA0Ni0uMTA5LS4wNDYtLjEwNi0uMDQ4LS4xMDUtLjA0OC0uMTAyLS4wNDgtLjEtLjA1LS4wOTctLjA0OS0uMDk1LS4wNTEtLjA5My0uMDUxLS4wOS0uMDUyLS4wODctLjA1Mi0uMDg1LS4wNTMtLjA4My0uMDUzLS4wOC0uMDU0LS4wNzctLjA1NHY0LjE1M3ptOC43NC04LjE3OWwtLjI1Ny4wMDQtLjI1NC4wMDUtLjI1LjAwOC0uMjQ3LjAxMS0uMjQ0LjAxMi0uMjQxLjAxNC0uMjM3LjAxNi0uMjMzLjAxOC0uMjMxLjAyMS0uMjI2LjAyMi0uMjI0LjAyMy0uMjIuMDI2LS4yMTYuMDI3LS4yMTIuMDI4LS4yMS4wMzEtLjIwNS4wMzItLjIwMi4wMzMtLjE5OC4wMzQtLjE5NC4wMzYtLjE5MS4wMzgtLjE4Ny4wMzgtLjE4My4wNC0uMTc5LjA0MS0uMTc1LjA0Mi0uMTcyLjA0My0uMTY4LjA0My0uMTYzLjA0NS0uMTYuMDQ2LS4xNTUuMDQ2LS4xNTIuMDQ4LS4xNDguMDQ4LS4xNDMuMDQ4LS4xMzkuMDQ5LS4xMzYuMDUtLjEzMS4wNS0uMTI2LjA1MS0uMTIzLjA1MS0uMTE4LjA1MS0uMTE0LjA1Mi0uMTEuMDUyLS4xMDYuMDUyLS4xMDEuMDUyLS4wOTYuMDUyLS4wOTIuMDUyLS4wODguMDUyLS4wODMuMDUyLS4wNzkuMDUyLS4wNzQuMDUxLS4wNy4wNTItLjA2NS4wNTEtLjA2LjA1LS4wNTYuMDUtLjA1MS4wNS0uMDIzLjAyNS0uMDIzLjAyNC0uMDIxLjAyNC0uMDIuMDI1LS4wMTkuMDI0LS4wMTguMDI0LS4wMTcuMDIzLS4wMTUuMDI0LS4wMTQuMDIzLS4wMTMuMDIzLS4wMTIuMDIzLS4wMS4wMjMtLjAxLjAyMi0uMDA4LjAyMi0uMDA2LjAyMy0uMDA2LjAyMS0uMDA0LjAyMi0uMDA0LjAyMS0uMDAxLjAyMS0uMDAxLjAyMS4wMDEuMDIxLjAwMS4wMjEuMDA0LjAyMS4wMDQuMDIyLjAwNi4wMjEuMDA2LjAyMy4wMDguMDIyLjAxLjAyMi4wMS4wMjMuMDEyLjAyMy4wMTMuMDIzLjAxNC4wMjMuMDE1LjAyNC4wMTcuMDIzLjAxOC4wMjQuMDE5LjAyNC4wMi4wMjUuMDIxLjAyNC4wMjMuMDI0LjAyMy4wMjUuMDUxLjA1LjA1Ni4wNS4wNi4wNS4wNjUuMDUxLjA3LjA1Mi4wNzQuMDUxLjA3OS4wNTIuMDgzLjA1Mi4wODguMDUyLjA5Mi4wNTIuMDk2LjA1Mi4xMDEuMDUyLjEwNi4wNTIuMTEuMDUyLjExNC4wNTIuMTE4LjA1MS4xMjMuMDUxLjEyNi4wNTEuMTMxLjA1LjEzNi4wNS4xMzkuMDQ5LjE0My4wNDguMTQ4LjA0OC4xNTIuMDQ4LjE1NS4wNDYuMTYuMDQ2LjE2My4wNDUuMTY4LjA0My4xNzIuMDQzLjE3NS4wNDIuMTc5LjA0MS4xODMuMDQuMTg3LjAzOC4xOTEuMDM4LjE5NC4wMzYuMTk4LjAzNC4yMDIuMDMzLjIwNS4wMzIuMjEuMDMxLjIxMi4wMjguMjE2LjAyNy4yMi4wMjYuMjI0LjAyMy4yMjYuMDIyLjIzMS4wMjEuMjMzLjAxOC4yMzcuMDE2LjI0MS4wMTQuMjQ0LjAxMi4yNDcuMDExLjI1LjAwOC4yNTQuMDA1LjI1Ny4wMDQuMjYuMDAxLjI2LS4wMDEuMjU3LS4wMDQuMjU0LS4wMDUuMjUtLjAwOC4yNDctLjAxMS4yNDQtLjAxMi4yNDEtLjAxNC4yMzctLjAxNi4yMzMtLjAxOC4yMzEtLjAyMS4yMjYtLjAyMi4yMjQtLjAyMy4yMi0uMDI2LjIxNi0uMDI3LjIxMi0uMDI4LjIxLS4wMzEuMjA1LS4wMzIuMjAyLS4wMzMuMTk4LS4wMzQuMTk0LS4wMzYuMTkxLS4wMzguMTg3LS4wMzguMTgzLS4wNC4xNzktLjA0MS4xNzUtLjA0Mi4xNzItLjA0My4xNjgtLjA0My4xNjMtLjA0NS4xNi0uMDQ2LjE1NS0uMDQ2LjE1Mi0uMDQ4LjE0OC0uMDQ4LjE0My0uMDQ4LjEzOS0uMDQ5LjEzNi0uMDUuMTMxLS4wNS4xMjYtLjA1MS4xMjMtLjA1MS4xMTgtLjA1MS4xMTQtLjA1Mi4xMS0uMDUyLjEwNi0uMDUyLjEwMS0uMDUyLjA5Ni0uMDUyLjA5Mi0uMDUyLjA4OC0uMDUyLjA4My0uMDUyLjA3OS0uMDUyLjA3NC0uMDUxLjA3LS4wNTIuMDY1LS4wNTEuMDYtLjA1LjA1Ni0uMDUuMDUxLS4wNS4wMjMtLjAyNS4wMjMtLjAyNC4wMjEtLjAyNC4wMi0uMDI1LjAxOS0uMDI0LjAxOC0uMDI0LjAxNy0uMDIzLjAxNS0uMDI0LjAxNC0uMDIzLjAxMy0uMDIzLjAxMi0uMDIzLjAxLS4wMjMuMDEtLjAyMi4wMDgtLjAyMi4wMDYtLjAyMy4wMDYtLjAyMS4wMDQtLjAyMi4wMDQtLjAyMS4wMDEtLjAyMS4wMDEtLjAyMS0uMDAxLS4wMjEtLjAwMS0uMDIxLS4wMDQtLjAyMS0uMDA0LS4wMjItLjAwNi0uMDIxLS4wMDYtLjAyMy0uMDA4LS4wMjItLjAxLS4wMjItLjAxLS4wMjMtLjAxMi0uMDIzLS4wMTMtLjAyMy0uMDE0LS4wMjMtLjAxNS0uMDI0LS4wMTctLjAyMy0uMDE4LS4wMjQtLjAxOS0uMDI0LS4wMi0uMDI1LS4wMjEtLjAyNC0uMDIzLS4wMjQtLjAyMy0uMDI1LS4wNTEtLjA1LS4wNTYtLjA1LS4wNi0uMDUtLjA2NS0uMDUxLS4wNy0uMDUyLS4wNzQtLjA1MS0uMDc5LS4wNTItLjA4My0uMDUyLS4wODgtLjA1Mi0uMDkyLS4wNTItLjA5Ni0uMDUyLS4xMDEtLjA1Mi0uMTA2LS4wNTItLjExLS4wNTItLjExNC0uMDUyLS4xMTgtLjA1MS0uMTIzLS4wNTEtLjEyNi0uMDUxLS4xMzEtLjA1LS4xMzYtLjA1LS4xMzktLjA0OS0uMTQzLS4wNDgtLjE0OC0uMDQ4LS4xNTItLjA0OC0uMTU1LS4wNDYtLjE2LS4wNDYtLjE2My0uMDQ1LS4xNjgtLjA0My0uMTcyLS4wNDMtLjE3NS0uMDQyLS4xNzktLjA0MS0uMTgzLS4wNC0uMTg3LS4wMzgtLjE5MS0uMDM4LS4xOTQtLjAzNi0uMTk4LS4wMzQtLjIwMi0uMDMzLS4yMDUtLjAzMi0uMjEtLjAzMS0uMjEyLS4wMjgtLjIxNi0uMDI3LS4yMi0uMDI2LS4yMjQtLjAyMy0uMjI2LS4wMjItLjIzMS0uMDIxLS4yMzMtLjAxOC0uMjM3LS4wMTYtLjI0MS0uMDE0LS4yNDQtLjAxMi0uMjQ3LS4wMTEtLjI1LS4wMDgtLjI1NC0uMDA1LS4yNTctLjAwNC0uMjYtLjAwMS0uMjYuMDAxeiIvPjwvc3ltYm9sPjwvZGVmcz48ZGVmcz48c3ltYm9sIGlkPSJjbG9jayIgd2lkdGg9IjI0IiBoZWlnaHQ9IjI0Ij48cGF0aCB0cmFuc2Zvcm09InNjYWxlKC41KSIgZD0iTTEyIDJjNS41MTQgMCAxMCA0LjQ4NiAxMCAxMHMtNC40ODYgMTAtMTAgMTAtMTAtNC40ODYtMTAtMTAgNC40ODYtMTAgMTAtMTB6bTAtMmMtNi42MjcgMC0xMiA1LjM3My0xMiAxMnM1LjM3MyAxMiAxMiAxMiAxMi01LjM3MyAxMi0xMi01LjM3My0xMi0xMi0xMnptNS44NDggMTIuNDU5Yy4yMDIuMDM4LjIwMi4zMzMuMDAxLjM3Mi0xLjkwNy4zNjEtNi4wNDUgMS4xMTEtNi41NDcgMS4xMTEtLjcxOSAwLTEuMzAxLS41ODItMS4zMDEtMS4zMDEgMC0uNTEyLjc3LTUuNDQ3IDEuMTI1LTcuNDQ1LjAzNC0uMTkyLjMxMi0uMTgxLjM0My4wMTRsLjk4NSA2LjIzOCA1LjM5NCAxLjAxMXoiLz48L3N5bWJvbD48L2RlZnM+PGRlZnM+PG1hcmtlciBpZD0iYXJyb3doZWFkIiByZWZYPSI5IiByZWZZPSI1IiBtYXJrZXJVbml0cz0idXNlclNwYWNlT25Vc2UiIG1hcmtlcldpZHRoPSIxMiIgbWFya2VySGVpZ2h0PSIxMiIgb3JpZW50PSJhdXRvIj48cGF0aCBkPSJNIDAgMCBMIDEwIDUgTCAwIDEwIHoiLz48L21hcmtlcj48L2RlZnM+PGRlZnM+PG1hcmtlciBpZD0iYXJyb3dlbmQiIHJlZlg9IjEiIHJlZlk9IjUiIG1hcmtlclVuaXRzPSJ1c2VyU3BhY2VPblVzZSIgbWFya2VyV2lkdGg9IjEyIiBtYXJrZXJIZWlnaHQ9IjEyIiBvcmllbnQ9ImF1dG8iPjxwYXRoIGQ9Ik0gMTAgMCBMIDAgNSBMIDEwIDEwIHoiLz48L21hcmtlcj48L2RlZnM+PGRlZnM+PG1hcmtlciBpZD0iY3Jvc3NoZWFkIiBtYXJrZXJXaWR0aD0iMTUiIG1hcmtlckhlaWdodD0iOCIgb3JpZW50PSJhdXRvIiByZWZYPSIxNiIgcmVmWT0iNCI+PHBhdGggZmlsbD0iYmxhY2siIHN0cm9rZT0iIzAwMDAwMCIgc3Ryb2tlLXdpZHRoPSIxcHgiIGQ9Ik0gOSwyIFYgNiBMMTYsNCBaIiBzdHlsZT0ic3Ryb2tlLWRhc2hhcnJheTogMCwgMDsiLz48cGF0aCBmaWxsPSJub25lIiBzdHJva2U9IiMwMDAwMDAiIHN0cm9rZS13aWR0aD0iMXB4IiBkPSJNIDAsMSBMIDYsNyBNIDYsMSBMIDAsNyIgc3R5bGU9InN0cm9rZS1kYXNoYXJyYXk6IDAsIDA7Ii8+PC9tYXJrZXI+PC9kZWZzPjxkZWZzPjxtYXJrZXIgaWQ9ImZpbGxlZC1oZWFkIiByZWZYPSIxOCIgcmVmWT0iNyIgbWFya2VyV2lkdGg9IjIwIiBtYXJrZXJIZWlnaHQ9IjI4IiBvcmllbnQ9ImF1dG8iPjxwYXRoIGQ9Ik0gMTgsNyBMOSwxMyBMMTQsNyBMOSwxIFoiLz48L21hcmtlcj48L2RlZnM+PGcgc3R5bGU9InRyYW5zZm9ybTogbWF0cml4KDAuMjgyOTAzLCAwLCAwLCAwLjI4MjkwMywgNDQuMTk2MSwgMjguMDAzMik7IiB0cmFuc2Zvcm09Im1hdHJpeCgwLjI4MjkwMjUxOTU5MzI5MzYsMCwwLDAuMjgyOTAyNTE5NTkzMjkzNiw0NC4xOTYwOTAwMjMxODIyNDQsMjguMDAzMTczMzgxMjc0MTc3KSIgY2xhc3M9InN2Zy1wYW4tem9vbV92aWV3cG9ydCIgaWQ9InZpZXdwb3J0LTIwMjUwNTAyMDIyMDU5ODQ0Ij48c3R5bGU+I2dyYXBoLTEwMntmb250LWZhbWlseToidHJlYnVjaGV0IG1zIix2ZXJkYW5hLGFyaWFsLHNhbnMtc2VyaWY7Zm9udC1zaXplOjE2cHg7ZmlsbDojMzMzO31Aa2V5ZnJhbWVzIGVkZ2UtYW5pbWF0aW9uLWZyYW1le2Zyb217c3Ryb2tlLWRhc2hvZmZzZXQ6MDt9fUBrZXlmcmFtZXMgZGFzaHt0b3tzdHJva2UtZGFzaG9mZnNldDowO319I2dyYXBoLTEwMiAuZWRnZS1hbmltYXRpb24tc2xvd3tzdHJva2UtZGFzaGFycmF5OjksNSFpbXBvcnRhbnQ7c3Ryb2tlLWRhc2hvZmZzZXQ6OTAwO2FuaW1hdGlvbjpkYXNoIDUwcyBsaW5lYXIgaW5maW5pdGU7c3Ryb2tlLWxpbmVjYXA6cm91bmQ7fSNncmFwaC0xMDIgLmVkZ2UtYW5pbWF0aW9uLWZhc3R7c3Ryb2tlLWRhc2hhcnJheTo5LDUhaW1wb3J0YW50O3N0cm9rZS1kYXNob2Zmc2V0OjkwMDthbmltYXRpb246ZGFzaCAyMHMgbGluZWFyIGluZmluaXRlO3N0cm9rZS1saW5lY2FwOnJvdW5kO30jZ3JhcGgtMTAyIC5lcnJvci1pY29ue2ZpbGw6IzU1MjIyMjt9I2dyYXBoLTEwMiAuZXJyb3ItdGV4dHtmaWxsOiM1NTIyMjI7c3Ryb2tlOiM1NTIyMjI7fSNncmFwaC0xMDIgLmVkZ2UtdGhpY2tuZXNzLW5vcm1hbHtzdHJva2Utd2lkdGg6MXB4O30jZ3JhcGgtMTAyIC5lZGdlLXRoaWNrbmVzcy10aGlja3tzdHJva2Utd2lkdGg6My41cHg7fSNncmFwaC0xMDIgLmVkZ2UtcGF0dGVybi1zb2xpZHtzdHJva2UtZGFzaGFycmF5OjA7fSNncmFwaC0xMDIgLmVkZ2UtdGhpY2tuZXNzLWludmlzaWJsZXtzdHJva2Utd2lkdGg6MDtmaWxsOm5vbmU7fSNncmFwaC0xMDIgLmVkZ2UtcGF0dGVybi1kYXNoZWR7c3Ryb2tlLWRhc2hhcnJheTozO30jZ3JhcGgtMTAyIC5lZGdlLXBhdHRlcm4tZG90dGVke3N0cm9rZS1kYXNoYXJyYXk6Mjt9I2dyYXBoLTEwMiAubWFya2Vye2ZpbGw6IzMzMzMzMztzdHJva2U6IzMzMzMzMzt9I2dyYXBoLTEwMiAubWFya2VyLmNyb3Nze3N0cm9rZTojMzMzMzMzO30jZ3JhcGgtMTAyIHN2Z3tmb250LWZhbWlseToidHJlYnVjaGV0IG1zIix2ZXJkYW5hLGFyaWFsLHNhbnMtc2VyaWY7Zm9udC1zaXplOjE2cHg7fSNncmFwaC0xMDIgcHttYXJnaW46MDt9I2dyYXBoLTEwMiAucGVyc29ue3N0cm9rZTpoc2woMjQwLCA2MCUsIDg2LjI3NDUwOTgwMzklKTtmaWxsOiNFQ0VDRkY7fSNncmFwaC0xMDIgOnJvb3R7LS1tZXJtYWlkLWZvbnQtZmFtaWx5OiJ0cmVidWNoZXQgbXMiLHZlcmRhbmEsYXJpYWwsc2Fucy1zZXJpZjt9PC9zdHlsZT48Zy8+PGcgY2xhc3M9InBlcnNvbi1tYW4iPjxyZWN0IHg9IjE1MCIgeT0iMTY2IiBmaWxsPSIjNDM4REQ1IiBzdHJva2U9IiMzQzdGQzAiIHdpZHRoPSIyMTYiIGhlaWdodD0iMTA1IiByeD0iMi41IiByeT0iMi41IiBzdHJva2Utd2lkdGg9IjAuNSIvPjx0ZXh0IGZpbGw9IiNGRkZGRkYiIGZvbnQtZmFtaWx5PSImcXVvdDtPcGVuIFNhbnMmcXVvdDssIHNhbnMtc2VyaWYiIGZvbnQtc2l6ZT0iMTIiIGZvbnQtc3R5bGU9Iml0YWxpYyIgbGVuZ3RoQWRqdXN0PSJzcGFjaW5nIiB0ZXh0TGVuZ3RoPSI2MyIgeD0iMjI2LjUiIHk9IjE4NiI+Jmx0OyZsdDtjb250YWluZXImZ3Q7Jmd0OzwvdGV4dD48dGV4dCB4PSIyNTgiIHk9IjIwNCIgZmlsbD0iI0ZGRkZGRiIgc3R5bGU9InRleHQtYW5jaG9yOiBtaWRkbGU7IGZvbnQtc2l6ZTogMTZweDsgZm9udC13ZWlnaHQ6IGJvbGQ7IGZvbnQtZmFtaWx5OiAmcXVvdDtPcGVuIFNhbnMmcXVvdDssIHNhbnMtc2VyaWY7Ij48dHNwYW4gZHk9IjAiIGFsaWdubWVudC1iYXNlbGluZT0ibWF0aGVtYXRpY2FsIj5JbnRlcmZhY2UgZGUgVXN1w6FyaW88L3RzcGFuPjwvdGV4dD48dGV4dCB4PSIyNTgiIHk9IjIyNiIgZmlsbD0iI0ZGRkZGRiIgZm9udC1zdHlsZT0iaXRhbGljIiBzdHlsZT0idGV4dC1hbmNob3I6IG1pZGRsZTsgZm9udC1zaXplOiAxNHB4OyBmb250LXdlaWdodDogbm9ybWFsOyBmb250LWZhbWlseTogJnF1b3Q7T3BlbiBTYW5zJnF1b3Q7LCBzYW5zLXNlcmlmOyI+PHRzcGFuIGR5PSIwIiBhbGlnbm1lbnQtYmFzZWxpbmU9Im1hdGhlbWF0aWNhbCI+W0NvbnNvbGVdPC90c3Bhbj48L3RleHQ+PHRleHQgeD0iMjU4IiB5PSIyNjAiIGZpbGw9IiNGRkZGRkYiIHN0eWxlPSJ0ZXh0LWFuY2hvcjogbWlkZGxlOyBmb250LXNpemU6IDE0cHg7IGZvbnQtd2VpZ2h0OiBub3JtYWw7IGZvbnQtZmFtaWx5OiAmcXVvdDtPcGVuIFNhbnMmcXVvdDssIHNhbnMtc2VyaWY7Ij48dHNwYW4gZHk9IjAiIGFsaWdubWVudC1iYXNlbGluZT0ibWF0aGVtYXRpY2FsIj5Qcm92w6ogaW50ZXJmYWNlIHBhcmEgdXN1w6FyaW9zPC90c3Bhbj48L3RleHQ+PC9nPjxnIGNsYXNzPSJwZXJzb24tbWFuIj48cmVjdCB4PSIyMDAiIHk9IjQ3NyIgZmlsbD0iI0M3RTlCMCIgc3Ryb2tlPSIjNzhBOEQ4IiB3aWR0aD0iMzUzIiBoZWlnaHQ9IjEwNSIgcng9IjIuNSIgcnk9IjIuNSIgc3Ryb2tlLXdpZHRoPSIwLjUiLz48dGV4dCBmaWxsPSIjRkZGRkZGIiBmb250LWZhbWlseT0iJnF1b3Q7T3BlbiBTYW5zJnF1b3Q7LCBzYW5zLXNlcmlmIiBmb250LXNpemU9IjEyIiBmb250LXN0eWxlPSJpdGFsaWMiIGxlbmd0aEFkanVzdD0ic3BhY2luZyIgdGV4dExlbmd0aD0iNzMiIHg9IjM0MCIgeT0iNDk3Ij4mbHQ7Jmx0O2NvbXBvbmVudCZndDsmZ3Q7PC90ZXh0Pjx0ZXh0IHg9IjM3Ni41IiB5PSI1MTUiIGZpbGw9IiNGRkZGRkYiIHN0eWxlPSJ0ZXh0LWFuY2hvcjogbWlkZGxlOyBmb250LXNpemU6IDE2cHg7IGZvbnQtd2VpZ2h0OiBib2xkOyBmb250LWZhbWlseTogJnF1b3Q7T3BlbiBTYW5zJnF1b3Q7LCBzYW5zLXNlcmlmOyI+PHRzcGFuIGR5PSIwIiBhbGlnbm1lbnQtYmFzZWxpbmU9Im1hdGhlbWF0aWNhbCI+RmFjaGFkYTwvdHNwYW4+PC90ZXh0Pjx0ZXh0IHg9IjM3Ni41IiB5PSI1MzciIGZpbGw9IiNGRkZGRkYiIGZvbnQtc3R5bGU9Iml0YWxpYyIgc3R5bGU9InRleHQtYW5jaG9yOiBtaWRkbGU7IGZvbnQtc2l6ZTogMTRweDsgZm9udC13ZWlnaHQ6IG5vcm1hbDsgZm9udC1mYW1pbHk6ICZxdW90O09wZW4gU2FucyZxdW90Oywgc2Fucy1zZXJpZjsiPjx0c3BhbiBkeT0iMCIgYWxpZ25tZW50LWJhc2VsaW5lPSJtYXRoZW1hdGljYWwiPltTaW5nbGV0b25dPC90c3Bhbj48L3RleHQ+PHRleHQgeD0iMzc2LjUiIHk9IjU3MSIgZmlsbD0iI0ZGRkZGRiIgc3R5bGU9InRleHQtYW5jaG9yOiBtaWRkbGU7IGZvbnQtc2l6ZTogMTRweDsgZm9udC13ZWlnaHQ6IG5vcm1hbDsgZm9udC1mYW1pbHk6ICZxdW90O09wZW4gU2FucyZxdW90Oywgc2Fucy1zZXJpZjsiPjx0c3BhbiBkeT0iMCIgYWxpZ25tZW50LWJhc2VsaW5lPSJtYXRoZW1hdGljYWwiPlBvbnRvIMO6bmljbyBkZSBhY2Vzc28gw6BzIGZ1bmNpb25hbGlkYWRlcyBkbyBzaXN0ZW1hPC90c3Bhbj48L3RleHQ+PC9nPjxnIGNsYXNzPSJwZXJzb24tbWFuIj48cmVjdCB4PSIyMDAiIHk9IjY4MiIgZmlsbD0iIzg1QkJGMCIgc3Ryb2tlPSIjNzhBOEQ4IiB3aWR0aD0iMzkwIiBoZWlnaHQ9IjEwNSIgcng9IjIuNSIgcnk9IjIuNSIgc3Ryb2tlLXdpZHRoPSIwLjUiLz48dGV4dCBmaWxsPSIjRkZGRkZGIiBmb250LWZhbWlseT0iJnF1b3Q7T3BlbiBTYW5zJnF1b3Q7LCBzYW5zLXNlcmlmIiBmb250LXNpemU9IjEyIiBmb250LXN0eWxlPSJpdGFsaWMiIGxlbmd0aEFkanVzdD0ic3BhY2luZyIgdGV4dExlbmd0aD0iNzMiIHg9IjM1OC41IiB5PSI3MDIiPiZsdDsmbHQ7Y29tcG9uZW50Jmd0OyZndDs8L3RleHQ+PHRleHQgeD0iMzk1IiB5PSI3MjAiIGZpbGw9IiNGRkZGRkYiIHN0eWxlPSJ0ZXh0LWFuY2hvcjogbWlkZGxlOyBmb250LXNpemU6IDE2cHg7IGZvbnQtd2VpZ2h0OiBib2xkOyBmb250LWZhbWlseTogJnF1b3Q7T3BlbiBTYW5zJnF1b3Q7LCBzYW5zLXNlcmlmOyI+PHRzcGFuIGR5PSIwIiBhbGlnbm1lbnQtYmFzZWxpbmU9Im1hdGhlbWF0aWNhbCI+R2VyZW5jaWFkb3JlczwvdHNwYW4+PC90ZXh0Pjx0ZXh0IHg9IjM5NSIgeT0iNzQyIiBmaWxsPSIjRkZGRkZGIiBmb250LXN0eWxlPSJpdGFsaWMiIHN0eWxlPSJ0ZXh0LWFuY2hvcjogbWlkZGxlOyBmb250LXNpemU6IDE0cHg7IGZvbnQtd2VpZ2h0OiBub3JtYWw7IGZvbnQtZmFtaWx5OiAmcXVvdDtPcGVuIFNhbnMmcXVvdDssIHNhbnMtc2VyaWY7Ij48dHNwYW4gZHk9IjAiIGFsaWdubWVudC1iYXNlbGluZT0ibWF0aGVtYXRpY2FsIj5bUHl0aG9uXTwvdHNwYW4+PC90ZXh0Pjx0ZXh0IHg9IjM5NSIgeT0iNzc2IiBmaWxsPSIjRkZGRkZGIiBzdHlsZT0idGV4dC1hbmNob3I6IG1pZGRsZTsgZm9udC1zaXplOiAxNHB4OyBmb250LXdlaWdodDogbm9ybWFsOyBmb250LWZhbWlseTogJnF1b3Q7T3BlbiBTYW5zJnF1b3Q7LCBzYW5zLXNlcmlmOyI+PHRzcGFuIGR5PSIwIiBhbGlnbm1lbnQtYmFzZWxpbmU9Im1hdGhlbWF0aWNhbCI+R2VyZW5jaWEgb3BlcmHDp8O1ZXMgZXNwZWPDrWZpY2FzIHBhcmEgY2FkYSB0aXBvIGRlIGVudGlkYWRlPC90c3Bhbj48L3RleHQ+PC9nPjxnIGNsYXNzPSJwZXJzb24tbWFuIj48cmVjdCB4PSIyMDAiIHk9Ijg4NyIgZmlsbD0iIzg1QkJGMCIgc3Ryb2tlPSIjNzhBOEQ4IiB3aWR0aD0iMjE2IiBoZWlnaHQ9IjEwNSIgcng9IjIuNSIgcnk9IjIuNSIgc3Ryb2tlLXdpZHRoPSIwLjUiLz48dGV4dCBmaWxsPSIjRkZGRkZGIiBmb250LWZhbWlseT0iJnF1b3Q7T3BlbiBTYW5zJnF1b3Q7LCBzYW5zLXNlcmlmIiBmb250LXNpemU9IjEyIiBmb250LXN0eWxlPSJpdGFsaWMiIGxlbmd0aEFkanVzdD0ic3BhY2luZyIgdGV4dExlbmd0aD0iNzMiIHg9IjI3MS41IiB5PSI5MDciPiZsdDsmbHQ7Y29tcG9uZW50Jmd0OyZndDs8L3RleHQ+PHRleHQgeD0iMzA4IiB5PSI5MjUiIGZpbGw9IiNGRkZGRkYiIHN0eWxlPSJ0ZXh0LWFuY2hvcjogbWlkZGxlOyBmb250LXNpemU6IDE2cHg7IGZvbnQtd2VpZ2h0OiBib2xkOyBmb250LWZhbWlseTogJnF1b3Q7T3BlbiBTYW5zJnF1b3Q7LCBzYW5zLXNlcmlmOyI+PHRzcGFuIGR5PSIwIiBhbGlnbm1lbnQtYmFzZWxpbmU9Im1hdGhlbWF0aWNhbCI+RW50aWRhZGVzIGRlIERvbcOtbmlvPC90c3Bhbj48L3RleHQ+PHRleHQgeD0iMzA4IiB5PSI5NDciIGZpbGw9IiNGRkZGRkYiIGZvbnQtc3R5bGU9Iml0YWxpYyIgc3R5bGU9InRleHQtYW5jaG9yOiBtaWRkbGU7IGZvbnQtc2l6ZTogMTRweDsgZm9udC13ZWlnaHQ6IG5vcm1hbDsgZm9udC1mYW1pbHk6ICZxdW90O09wZW4gU2FucyZxdW90Oywgc2Fucy1zZXJpZjsiPjx0c3BhbiBkeT0iMCIgYWxpZ25tZW50LWJhc2VsaW5lPSJtYXRoZW1hdGljYWwiPltQeXRob25dPC90c3Bhbj48L3RleHQ+PHRleHQgeD0iMzA4IiB5PSI5ODEiIGZpbGw9IiNGRkZGRkYiIHN0eWxlPSJ0ZXh0LWFuY2hvcjogbWlkZGxlOyBmb250LXNpemU6IDE0cHg7IGZvbnQtd2VpZ2h0OiBub3JtYWw7IGZvbnQtZmFtaWx5OiAmcXVvdDtPcGVuIFNhbnMmcXVvdDssIHNhbnMtc2VyaWY7Ij48dHNwYW4gZHk9IjAiIGFsaWdubWVudC1iYXNlbGluZT0ibWF0aGVtYXRpY2FsIj5Nb2RlbG9zIGRlIGRhZG9zIGRvIHNpc3RlbWE8L3RzcGFuPjwvdGV4dD48L2c+PGcgY2xhc3M9InBlcnNvbi1tYW4iPjxyZWN0IHg9IjIwMCIgeT0iMTA5MiIgZmlsbD0iI0ZGRDBCMCIgc3Ryb2tlPSIjNzhBOEQ4IiB3aWR0aD0iMjQyIiBoZWlnaHQ9IjEwNSIgcng9IjIuNSIgcnk9IjIuNSIgc3Ryb2tlLXdpZHRoPSIwLjUiLz48dGV4dCBmaWxsPSIjRkZGRkZGIiBmb250LWZhbWlseT0iJnF1b3Q7T3BlbiBTYW5zJnF1b3Q7LCBzYW5zLXNlcmlmIiBmb250LXNpemU9IjEyIiBmb250LXN0eWxlPSJpdGFsaWMiIGxlbmd0aEFkanVzdD0ic3BhY2luZyIgdGV4dExlbmd0aD0iNzMiIHg9IjI4NC41IiB5PSIxMTEyIj4mbHQ7Jmx0O2NvbXBvbmVudCZndDsmZ3Q7PC90ZXh0Pjx0ZXh0IHg9IjMyMSIgeT0iMTEzMCIgZmlsbD0iI0ZGRkZGRiIgc3R5bGU9InRleHQtYW5jaG9yOiBtaWRkbGU7IGZvbnQtc2l6ZTogMTZweDsgZm9udC13ZWlnaHQ6IGJvbGQ7IGZvbnQtZmFtaWx5OiAmcXVvdDtPcGVuIFNhbnMmcXVvdDssIHNhbnMtc2VyaWY7Ij48dHNwYW4gZHk9IjAiIGFsaWdubWVudC1iYXNlbGluZT0ibWF0aGVtYXRpY2FsIj5Db21hbmRvczwvdHNwYW4+PC90ZXh0Pjx0ZXh0IHg9IjMyMSIgeT0iMTE1MiIgZmlsbD0iI0ZGRkZGRiIgZm9udC1zdHlsZT0iaXRhbGljIiBzdHlsZT0idGV4dC1hbmNob3I6IG1pZGRsZTsgZm9udC1zaXplOiAxNHB4OyBmb250LXdlaWdodDogbm9ybWFsOyBmb250LWZhbWlseTogJnF1b3Q7T3BlbiBTYW5zJnF1b3Q7LCBzYW5zLXNlcmlmOyI+PHRzcGFuIGR5PSIwIiBhbGlnbm1lbnQtYmFzZWxpbmU9Im1hdGhlbWF0aWNhbCI+W0NvbW1hbmQgUGF0dGVybl08L3RzcGFuPjwvdGV4dD48dGV4dCB4PSIzMjEiIHk9IjExODYiIGZpbGw9IiNGRkZGRkYiIHN0eWxlPSJ0ZXh0LWFuY2hvcjogbWlkZGxlOyBmb250LXNpemU6IDE0cHg7IGZvbnQtd2VpZ2h0OiBub3JtYWw7IGZvbnQtZmFtaWx5OiAmcXVvdDtPcGVuIFNhbnMmcXVvdDssIHNhbnMtc2VyaWY7Ij48dHNwYW4gZHk9IjAiIGFsaWdubWVudC1iYXNlbGluZT0ibWF0aGVtYXRpY2FsIj5FbmNhcHN1bGEgb3BlcmHDp8O1ZXMgY29tbyBvYmpldG9zPC90c3Bhbj48L3RleHQ+PC9nPjxnIGNsYXNzPSJwZXJzb24tbWFuIj48cmVjdCB4PSIyMDAiIHk9IjEyOTciIGZpbGw9IiNGRkIwRTAiIHN0cm9rZT0iIzc4QThEOCIgd2lkdGg9IjI5NyIgaGVpZ2h0PSIxMDUiIHJ4PSIyLjUiIHJ5PSIyLjUiIHN0cm9rZS13aWR0aD0iMC41Ii8+PHRleHQgZmlsbD0iI0ZGRkZGRiIgZm9udC1mYW1pbHk9IiZxdW90O09wZW4gU2FucyZxdW90Oywgc2Fucy1zZXJpZiIgZm9udC1zaXplPSIxMiIgZm9udC1zdHlsZT0iaXRhbGljIiBsZW5ndGhBZGp1c3Q9InNwYWNpbmciIHRleHRMZW5ndGg9IjczIiB4PSIzMTIiIHk9IjEzMTciPiZsdDsmbHQ7Y29tcG9uZW50Jmd0OyZndDs8L3RleHQ+PHRleHQgeD0iMzQ4LjUiIHk9IjEzMzUiIGZpbGw9IiNGRkZGRkYiIHN0eWxlPSJ0ZXh0LWFuY2hvcjogbWlkZGxlOyBmb250LXNpemU6IDE2cHg7IGZvbnQtd2VpZ2h0OiBib2xkOyBmb250LWZhbWlseTogJnF1b3Q7T3BlbiBTYW5zJnF1b3Q7LCBzYW5zLXNlcmlmOyI+PHRzcGFuIGR5PSIwIiBhbGlnbm1lbnQtYmFzZWxpbmU9Im1hdGhlbWF0aWNhbCI+TWVtZW50b3M8L3RzcGFuPjwvdGV4dD48dGV4dCB4PSIzNDguNSIgeT0iMTM1NyIgZmlsbD0iI0ZGRkZGRiIgZm9udC1zdHlsZT0iaXRhbGljIiBzdHlsZT0idGV4dC1hbmNob3I6IG1pZGRsZTsgZm9udC1zaXplOiAxNHB4OyBmb250LXdlaWdodDogbm9ybWFsOyBmb250LWZhbWlseTogJnF1b3Q7T3BlbiBTYW5zJnF1b3Q7LCBzYW5zLXNlcmlmOyI+PHRzcGFuIGR5PSIwIiBhbGlnbm1lbnQtYmFzZWxpbmU9Im1hdGhlbWF0aWNhbCI+W01lbWVudG8gUGF0dGVybl08L3RzcGFuPjwvdGV4dD48dGV4dCB4PSIzNDguNSIgeT0iMTM5MSIgZmlsbD0iI0ZGRkZGRiIgc3R5bGU9InRleHQtYW5jaG9yOiBtaWRkbGU7IGZvbnQtc2l6ZTogMTRweDsgZm9udC13ZWlnaHQ6IG5vcm1hbDsgZm9udC1mYW1pbHk6ICZxdW90O09wZW4gU2FucyZxdW90Oywgc2Fucy1zZXJpZjsiPjx0c3BhbiBkeT0iMCIgYWxpZ25tZW50LWJhc2VsaW5lPSJtYXRoZW1hdGljYWwiPkFybWF6ZW5hIGVzdGFkb3MgcGFyYSBkZXNmYXplciBvcGVyYcOnw7VlczwvdHNwYW4+PC90ZXh0PjwvZz48ZyBjbGFzcz0icGVyc29uLW1hbiI+PHJlY3QgeD0iMjAwIiB5PSIxNTAyIiBmaWxsPSIjRDBDMEZGIiBzdHJva2U9IiM3OEE4RDgiIHdpZHRoPSIyNTUiIGhlaWdodD0iMTA1IiByeD0iMi41IiByeT0iMi41IiBzdHJva2Utd2lkdGg9IjAuNSIvPjx0ZXh0IGZpbGw9IiNGRkZGRkYiIGZvbnQtZmFtaWx5PSImcXVvdDtPcGVuIFNhbnMmcXVvdDssIHNhbnMtc2VyaWYiIGZvbnQtc2l6ZT0iMTIiIGZvbnQtc3R5bGU9Iml0YWxpYyIgbGVuZ3RoQWRqdXN0PSJzcGFjaW5nIiB0ZXh0TGVuZ3RoPSI3MyIgeD0iMjkxIiB5PSIxNTIyIj4mbHQ7Jmx0O2NvbXBvbmVudCZndDsmZ3Q7PC90ZXh0Pjx0ZXh0IHg9IjMyNy41IiB5PSIxNTQwIiBmaWxsPSIjRkZGRkZGIiBzdHlsZT0idGV4dC1hbmNob3I6IG1pZGRsZTsgZm9udC1zaXplOiAxNnB4OyBmb250LXdlaWdodDogYm9sZDsgZm9udC1mYW1pbHk6ICZxdW90O09wZW4gU2FucyZxdW90Oywgc2Fucy1zZXJpZjsiPjx0c3BhbiBkeT0iMCIgYWxpZ25tZW50LWJhc2VsaW5lPSJtYXRoZW1hdGljYWwiPlJlbGF0w7NyaW9zPC90c3Bhbj48L3RleHQ+PHRleHQgeD0iMzI3LjUiIHk9IjE1NjIiIGZpbGw9IiNGRkZGRkYiIGZvbnQtc3R5bGU9Iml0YWxpYyIgc3R5bGU9InRleHQtYW5jaG9yOiBtaWRkbGU7IGZvbnQtc2l6ZTogMTRweDsgZm9udC13ZWlnaHQ6IG5vcm1hbDsgZm9udC1mYW1pbHk6ICZxdW90O09wZW4gU2FucyZxdW90Oywgc2Fucy1zZXJpZjsiPjx0c3BhbiBkeT0iMCIgYWxpZ25tZW50LWJhc2VsaW5lPSJtYXRoZW1hdGljYWwiPltUZW1wbGF0ZSBNZXRob2RdPC90c3Bhbj48L3RleHQ+PHRleHQgeD0iMzI3LjUiIHk9IjE1OTYiIGZpbGw9IiNGRkZGRkYiIHN0eWxlPSJ0ZXh0LWFuY2hvcjogbWlkZGxlOyBmb250LXNpemU6IDE0cHg7IGZvbnQtd2VpZ2h0OiBub3JtYWw7IGZvbnQtZmFtaWx5OiAmcXVvdDtPcGVuIFNhbnMmcXVvdDssIHNhbnMtc2VyaWY7Ij48dHNwYW4gZHk9IjAiIGFsaWdubWVudC1iYXNlbGluZT0ibWF0aGVtYXRpY2FsIj5HZXJhIHJlbGF0w7NyaW9zIGNvbSBlc3RydXR1cmEgZGVmaW5pZGE8L3RzcGFuPjwvdGV4dD48L2c+PGc+PHJlY3QgeD0iMTUwIiB5PSIzNzciIGZpbGw9Im5vbmUiIHN0cm9rZT0iIzQ0NDQ0NCIgd2lkdGg9IjQ5MCIgaGVpZ2h0PSIxMjgwIiByeD0iMi41IiByeT0iMi41IiBzdHJva2Utd2lkdGg9IjEiIHN0cm9rZS1kYXNoYXJyYXk9IjcuMCw3LjAiLz48dGV4dCB4PSIzOTUiIHk9IjM4NSIgZmlsbD0iIzQ0NDQ0NCIgc3R5bGU9InRleHQtYW5jaG9yOiBtaWRkbGU7IGZvbnQtc2l6ZTogMTZweDsgZm9udC13ZWlnaHQ6IGJvbGQ7IGZvbnQtZmFtaWx5OiAmcXVvdDtPcGVuIFNhbnMmcXVvdDssIHNhbnMtc2VyaWY7Ij48dHNwYW4gZHk9IjAiIGFsaWdubWVudC1iYXNlbGluZT0ibWF0aGVtYXRpY2FsIj5Mw7NnaWNhIGRlIEFwbGljYcOnw6NvPC90c3Bhbj48L3RleHQ+PHRleHQgeD0iMzk1IiB5PSI0MDciIGZpbGw9IiM0NDQ0NDQiIHN0eWxlPSJ0ZXh0LWFuY2hvcjogbWlkZGxlOyBmb250LXNpemU6IDE0cHg7IGZvbnQtd2VpZ2h0OiBub3JtYWw7IGZvbnQtZmFtaWx5OiAmcXVvdDtPcGVuIFNhbnMmcXVvdDssIHNhbnMtc2VyaWY7Ij48dHNwYW4gZHk9IjAiIGFsaWdubWVudC1iYXNlbGluZT0ibWF0aGVtYXRpY2FsIj5bQ09OVEFJTkVSXTwvdHNwYW4+PC90ZXh0PjwvZz48ZyBjbGFzcz0icGVyc29uLW1hbiI+PHJlY3QgeD0iNzQwIiB5PSI0NzciIGZpbGw9IiNCOURDRkYiIHN0cm9rZT0iIzc4QThEOCIgd2lkdGg9IjI3NyIgaGVpZ2h0PSIxMDUiIHJ4PSIyLjUiIHJ5PSIyLjUiIHN0cm9rZS13aWR0aD0iMC41Ii8+PHRleHQgZmlsbD0iI0ZGRkZGRiIgZm9udC1mYW1pbHk9IiZxdW90O09wZW4gU2FucyZxdW90Oywgc2Fucy1zZXJpZiIgZm9udC1zaXplPSIxMiIgZm9udC1zdHlsZT0iaXRhbGljIiBsZW5ndGhBZGp1c3Q9InNwYWNpbmciIHRleHRMZW5ndGg9IjczIiB4PSI4NDIiIHk9IjQ5NyI+Jmx0OyZsdDtjb21wb25lbnQmZ3Q7Jmd0OzwvdGV4dD48dGV4dCB4PSI4NzguNSIgeT0iNTE1IiBmaWxsPSIjRkZGRkZGIiBzdHlsZT0idGV4dC1hbmNob3I6IG1pZGRsZTsgZm9udC1zaXplOiAxNnB4OyBmb250LXdlaWdodDogYm9sZDsgZm9udC1mYW1pbHk6ICZxdW90O09wZW4gU2FucyZxdW90Oywgc2Fucy1zZXJpZjsiPjx0c3BhbiBkeT0iMCIgYWxpZ25tZW50LWJhc2VsaW5lPSJtYXRoZW1hdGljYWwiPkZhY3RvcnkgREFPPC90c3Bhbj48L3RleHQ+PHRleHQgeD0iODc4LjUiIHk9IjUzNyIgZmlsbD0iI0ZGRkZGRiIgZm9udC1zdHlsZT0iaXRhbGljIiBzdHlsZT0idGV4dC1hbmNob3I6IG1pZGRsZTsgZm9udC1zaXplOiAxNHB4OyBmb250LXdlaWdodDogbm9ybWFsOyBmb250LWZhbWlseTogJnF1b3Q7T3BlbiBTYW5zJnF1b3Q7LCBzYW5zLXNlcmlmOyI+PHRzcGFuIGR5PSIwIiBhbGlnbm1lbnQtYmFzZWxpbmU9Im1hdGhlbWF0aWNhbCI+W0Fic3RyYWN0IEZhY3RvcnldPC90c3Bhbj48L3RleHQ+PHRleHQgeD0iODc4LjUiIHk9IjU3MSIgZmlsbD0iI0ZGRkZGRiIgc3R5bGU9InRleHQtYW5jaG9yOiBtaWRkbGU7IGZvbnQtc2l6ZTogMTRweDsgZm9udC13ZWlnaHQ6IG5vcm1hbDsgZm9udC1mYW1pbHk6ICZxdW90O09wZW4gU2FucyZxdW90Oywgc2Fucy1zZXJpZjsiPjx0c3BhbiBkeT0iMCIgYWxpZ25tZW50LWJhc2VsaW5lPSJtYXRoZW1hdGljYWwiPkNyaWEgaW1wbGVtZW50YcOnw7VlcyBjb25jcmV0YXMgZGUgREFPczwvdHNwYW4+PC90ZXh0PjwvZz48ZyBjbGFzcz0icGVyc29uLW1hbiI+PHJlY3QgeD0iNzQwIiB5PSI2ODIiIGZpbGw9IiNDMEY3RkYiIHN0cm9rZT0iIzc4QThEOCIgd2lkdGg9IjIxNiIgaGVpZ2h0PSIxMDUiIHJ4PSIyLjUiIHJ5PSIyLjUiIHN0cm9rZS13aWR0aD0iMC41Ii8+PHRleHQgZmlsbD0iI0ZGRkZGRiIgZm9udC1mYW1pbHk9IiZxdW90O09wZW4gU2FucyZxdW90Oywgc2Fucy1zZXJpZiIgZm9udC1zaXplPSIxMiIgZm9udC1zdHlsZT0iaXRhbGljIiBsZW5ndGhBZGp1c3Q9InNwYWNpbmciIHRleHRMZW5ndGg9IjczIiB4PSI4MTEuNSIgeT0iNzAyIj4mbHQ7Jmx0O2NvbXBvbmVudCZndDsmZ3Q7PC90ZXh0Pjx0ZXh0IHg9Ijg0OCIgeT0iNzIwIiBmaWxsPSIjRkZGRkZGIiBzdHlsZT0idGV4dC1hbmNob3I6IG1pZGRsZTsgZm9udC1zaXplOiAxNnB4OyBmb250LXdlaWdodDogYm9sZDsgZm9udC1mYW1pbHk6ICZxdW90O09wZW4gU2FucyZxdW90Oywgc2Fucy1zZXJpZjsiPjx0c3BhbiBkeT0iMCIgYWxpZ25tZW50LWJhc2VsaW5lPSJtYXRoZW1hdGljYWwiPkRBT3M8L3RzcGFuPjwvdGV4dD48dGV4dCB4PSI4NDgiIHk9Ijc0MiIgZmlsbD0iI0ZGRkZGRiIgZm9udC1zdHlsZT0iaXRhbGljIiBzdHlsZT0idGV4dC1hbmNob3I6IG1pZGRsZTsgZm9udC1zaXplOiAxNHB4OyBmb250LXdlaWdodDogbm9ybWFsOyBmb250LWZhbWlseTogJnF1b3Q7T3BlbiBTYW5zJnF1b3Q7LCBzYW5zLXNlcmlmOyI+PHRzcGFuIGR5PSIwIiBhbGlnbm1lbnQtYmFzZWxpbmU9Im1hdGhlbWF0aWNhbCI+W0RhdGEgQWNjZXNzIE9iamVjdHNdPC90c3Bhbj48L3RleHQ+PHRleHQgeD0iODQ4IiB5PSI3NzYiIGZpbGw9IiNGRkZGRkYiIHN0eWxlPSJ0ZXh0LWFuY2hvcjogbWlkZGxlOyBmb250LXNpemU6IDE0cHg7IGZvbnQtd2VpZ2h0OiBub3JtYWw7IGZvbnQtZmFtaWx5OiAmcXVvdDtPcGVuIFNhbnMmcXVvdDssIHNhbnMtc2VyaWY7Ij48dHNwYW4gZHk9IjAiIGFsaWdubWVudC1iYXNlbGluZT0ibWF0aGVtYXRpY2FsIj5JbnRlcmZhY2VzIHBhcmEgYWNlc3NvIGEgZGFkb3M8L3RzcGFuPjwvdGV4dD48L2c+PGcgY2xhc3M9InBlcnNvbi1tYW4iPjxyZWN0IHg9Ijc0MCIgeT0iODg3IiBmaWxsPSIjQzBGN0ZGIiBzdHJva2U9IiM3OEE4RDgiIHdpZHRoPSIzMzkiIGhlaWdodD0iMTA1IiByeD0iMi41IiByeT0iMi41IiBzdHJva2Utd2lkdGg9IjAuNSIvPjx0ZXh0IGZpbGw9IiNGRkZGRkYiIGZvbnQtZmFtaWx5PSImcXVvdDtPcGVuIFNhbnMmcXVvdDssIHNhbnMtc2VyaWYiIGZvbnQtc2l6ZT0iMTIiIGZvbnQtc3R5bGU9Iml0YWxpYyIgbGVuZ3RoQWRqdXN0PSJzcGFjaW5nIiB0ZXh0TGVuZ3RoPSI3MyIgeD0iODczIiB5PSI5MDciPiZsdDsmbHQ7Y29tcG9uZW50Jmd0OyZndDs8L3RleHQ+PHRleHQgeD0iOTA5LjUiIHk9IjkyNSIgZmlsbD0iI0ZGRkZGRiIgc3R5bGU9InRleHQtYW5jaG9yOiBtaWRkbGU7IGZvbnQtc2l6ZTogMTZweDsgZm9udC13ZWlnaHQ6IGJvbGQ7IGZvbnQtZmFtaWx5OiAmcXVvdDtPcGVuIFNhbnMmcXVvdDssIHNhbnMtc2VyaWY7Ij48dHNwYW4gZHk9IjAiIGFsaWdubWVudC1iYXNlbGluZT0ibWF0aGVtYXRpY2FsIj5JbXBsZW1lbnRhw6fDtWVzIERBTzwvdHNwYW4+PC90ZXh0Pjx0ZXh0IHg9IjkwOS41IiB5PSI5NDciIGZpbGw9IiNGRkZGRkYiIGZvbnQtc3R5bGU9Iml0YWxpYyIgc3R5bGU9InRleHQtYW5jaG9yOiBtaWRkbGU7IGZvbnQtc2l6ZTogMTRweDsgZm9udC13ZWlnaHQ6IG5vcm1hbDsgZm9udC1mYW1pbHk6ICZxdW90O09wZW4gU2FucyZxdW90Oywgc2Fucy1zZXJpZjsiPjx0c3BhbiBkeT0iMCIgYWxpZ25tZW50LWJhc2VsaW5lPSJtYXRoZW1hdGljYWwiPltQeXRob25dPC90c3Bhbj48L3RleHQ+PHRleHQgeD0iOTA5LjUiIHk9Ijk4MSIgZmlsbD0iI0ZGRkZGRiIgc3R5bGU9InRleHQtYW5jaG9yOiBtaWRkbGU7IGZvbnQtc2l6ZTogMTRweDsgZm9udC13ZWlnaHQ6IG5vcm1hbDsgZm9udC1mYW1pbHk6ICZxdW90O09wZW4gU2FucyZxdW90Oywgc2Fucy1zZXJpZjsiPjx0c3BhbiBkeT0iMCIgYWxpZ25tZW50LWJhc2VsaW5lPSJtYXRoZW1hdGljYWwiPkltcGxlbWVudGHDp8O1ZXMgY29uY3JldGFzIHBhcmEgbWVtw7NyaWEgZSBhcnF1aXZvPC90c3Bhbj48L3RleHQ+PC9nPjxnPjxyZWN0IHg9IjY5MCIgeT0iMzc3IiBmaWxsPSJub25lIiBzdHJva2U9IiM0NDQ0NDQiIHdpZHRoPSI0MzkiIGhlaWdodD0iNjY1IiByeD0iMi41IiByeT0iMi41IiBzdHJva2Utd2lkdGg9IjEiIHN0cm9rZS1kYXNoYXJyYXk9IjcuMCw3LjAiLz48dGV4dCB4PSI5MDkuNSIgeT0iMzg1IiBmaWxsPSIjNDQ0NDQ0IiBzdHlsZT0idGV4dC1hbmNob3I6IG1pZGRsZTsgZm9udC1zaXplOiAxNnB4OyBmb250LXdlaWdodDogYm9sZDsgZm9udC1mYW1pbHk6ICZxdW90O09wZW4gU2FucyZxdW90Oywgc2Fucy1zZXJpZjsiPjx0c3BhbiBkeT0iMCIgYWxpZ25tZW50LWJhc2VsaW5lPSJtYXRoZW1hdGljYWwiPkNhbWFkYSBkZSBQZXJzaXN0w6puY2lhPC90c3Bhbj48L3RleHQ+PHRleHQgeD0iOTA5LjUiIHk9IjQwNyIgZmlsbD0iIzQ0NDQ0NCIgc3R5bGU9InRleHQtYW5jaG9yOiBtaWRkbGU7IGZvbnQtc2l6ZTogMTRweDsgZm9udC13ZWlnaHQ6IG5vcm1hbDsgZm9udC1mYW1pbHk6ICZxdW90O09wZW4gU2FucyZxdW90Oywgc2Fucy1zZXJpZjsiPjx0c3BhbiBkeT0iMCIgYWxpZ25tZW50LWJhc2VsaW5lPSJtYXRoZW1hdGljYWwiPltDT05UQUlORVJdPC90c3Bhbj48L3RleHQ+PC9nPjxnPjxsaW5lIHgxPSIyOTAuNzEzMjA0OTUxODU2OTQiIHkxPSIyNzEiIHgyPSIzODguMjc5NDk3MDk4NjQ2MDYiIHkyPSI0NzciIHN0cm9rZS13aWR0aD0iMSIgc3Ryb2tlPSIjNDQ0NDQ0IiBtYXJrZXItZW5kPSJ1cmwoI2Fycm93aGVhZCkiIHN0eWxlPSJmaWxsOiBub25lOyIvPjx0ZXh0IHg9IjM1MC40OTYzNTEwMjUyNTE1IiB5PSIzNzQiIGZpbGw9IiM0NDQ0NDQiIHN0eWxlPSJ0ZXh0LWFuY2hvcjogbWlkZGxlOyBmb250LXNpemU6IDEycHg7IGZvbnQtd2VpZ2h0OiBub3JtYWw7IGZvbnQtZmFtaWx5OiAmcXVvdDtPcGVuIFNhbnMmcXVvdDssIHNhbnMtc2VyaWY7Ij48dHNwYW4gZHk9IjAiIGFsaWdubWVudC1iYXNlbGluZT0ibWF0aGVtYXRpY2FsIj5Vc2E8L3RzcGFuPjwvdGV4dD48cGF0aCBmaWxsPSJub25lIiBzdHJva2Utd2lkdGg9IjEiIHN0cm9rZT0iIzQ0NDQ0NCIgZD0iTTQxNi4yNTcyODE1NTMzOTgwNiw1ODIgUTQyNi4xMzM1MzQ5MzU1NDAzLDYzMiA0NTUuNzYyMjk1MDgxOTY3Miw2ODIiIG1hcmtlci1lbmQ9InVybCgjYXJyb3doZWFkKSIvPjx0ZXh0IHg9IjQ0Ny4wMDk3ODgzMTc2ODI2IiB5PSI2MzIiIGZpbGw9IiM0NDQ0NDQiIHN0eWxlPSJ0ZXh0LWFuY2hvcjogbWlkZGxlOyBmb250LXNpemU6IDEycHg7IGZvbnQtd2VpZ2h0OiBub3JtYWw7IGZvbnQtZmFtaWx5OiAmcXVvdDtPcGVuIFNhbnMmcXVvdDssIHNhbnMtc2VyaWY7Ij48dHNwYW4gZHk9IjAiIGFsaWdubWVudC1iYXNlbGluZT0ibWF0aGVtYXRpY2FsIj5Vc2E8L3RzcGFuPjwvdGV4dD48cGF0aCBmaWxsPSJub25lIiBzdHJva2Utd2lkdGg9IjEiIHN0cm9rZT0iIzQ0NDQ0NCIgZD0iTTM4Ni4wMTY4NTM5MzI1ODQyNCw1ODIgUTM3My44ODA5NzM3ODI3NzE1NSw4MzcgMzM3LjQ3MzMzMzMzMzMzMzM2LDEwOTIiIG1hcmtlci1lbmQ9InVybCgjYXJyb3doZWFkKSIvPjx0ZXh0IHg9IjM3Mi43NDUwOTM2MzI5NTg4IiB5PSI4MzciIGZpbGw9IiM0NDQ0NDQiIHN0eWxlPSJ0ZXh0LWFuY2hvcjogbWlkZGxlOyBmb250LXNpemU6IDEycHg7IGZvbnQtd2VpZ2h0OiBub3JtYWw7IGZvbnQtZmFtaWx5OiAmcXVvdDtPcGVuIFNhbnMmcXVvdDssIHNhbnMtc2VyaWY7Ij48dHNwYW4gZHk9IjAiIGFsaWdubWVudC1iYXNlbGluZT0ibWF0aGVtYXRpY2FsIj5Vc2E8L3RzcGFuPjwvdGV4dD48cGF0aCBmaWxsPSJub25lIiBzdHJva2Utd2lkdGg9IjEiIHN0cm9rZT0iIzQ0NDQ0NCIgZD0iTTQxNy4wMTk0MTc0NzU3MjgyLDc4NyBRNDA2LjU0NzM0OTk5MjA0MjAzLDgzNyAzNzUuMTMxMTQ3NTQwOTgzNiw4ODciIG1hcmtlci1lbmQ9InVybCgjYXJyb3doZWFkKSIvPjx0ZXh0IHg9IjQyMC41NzUyODI1MDgzNTU5IiB5PSI4MzciIGZpbGw9IiM0NDQ0NDQiIHN0eWxlPSJ0ZXh0LWFuY2hvcjogbWlkZGxlOyBmb250LXNpemU6IDEycHg7IGZvbnQtd2VpZ2h0OiBub3JtYWw7IGZvbnQtZmFtaWx5OiAmcXVvdDtPcGVuIFNhbnMmcXVvdDssIHNhbnMtc2VyaWY7Ij48dHNwYW4gZHk9IjAiIGFsaWdubWVudC1iYXNlbGluZT0ibWF0aGVtYXRpY2FsIj5NYW5pcHVsYTwvdHNwYW4+PC90ZXh0PjxwYXRoIGZpbGw9Im5vbmUiIHN0cm9rZS13aWR0aD0iMSIgc3Ryb2tlPSIjNDQ0NDQ0IiBkPSJNNDA2LjY3OTc3NTI4MDg5ODg3LDc4NyBRMzk2LjY4NDgzMTQ2MDY3NDE2LDEwNDIgMzY2LjcsMTI5NyIgbWFya2VyLWVuZD0idXJsKCNhcnJvd2hlYWQpIi8+PHRleHQgeD0iNDEwLjE4OTg4NzY0MDQ0OTQ2IiB5PSIxMDQyIiBmaWxsPSIjNDQ0NDQ0IiBzdHlsZT0idGV4dC1hbmNob3I6IG1pZGRsZTsgZm9udC1zaXplOiAxMnB4OyBmb250LXdlaWdodDogbm9ybWFsOyBmb250LWZhbWlseTogJnF1b3Q7T3BlbiBTYW5zJnF1b3Q7LCBzYW5zLXNlcmlmOyI+PHRzcGFuIGR5PSIwIiBhbGlnbm1lbnQtYmFzZWxpbmU9Im1hdGhlbWF0aWNhbCI+Q3JpYS9Vc2E8L3RzcGFuPjwvdGV4dD48cGF0aCBmaWxsPSJub25lIiBzdHJva2Utd2lkdGg9IjEiIHN0cm9rZT0iIzQ0NDQ0NCIgZD0iTTQwMi42NzE5MTk3NzA3NzM2LDc4NyBRMzg3LjIxMzYzMDM4MTgyNjIsMTE0NC41IDM0MC44Mzg3NjIyMTQ5ODM3LDE1MDIiIG1hcmtlci1lbmQ9InVybCgjYXJyb3doZWFkKSIvPjx0ZXh0IHg9IjM4Mi43NTUzNDA5OTI4Nzg3IiB5PSIxMTQ0LjUiIGZpbGw9IiM0NDQ0NDQiIHN0eWxlPSJ0ZXh0LWFuY2hvcjogbWlkZGxlOyBmb250LXNpemU6IDEycHg7IGZvbnQtd2VpZ2h0OiBub3JtYWw7IGZvbnQtZmFtaWx5OiAmcXVvdDtPcGVuIFNhbnMmcXVvdDssIHNhbnMtc2VyaWY7Ij48dHNwYW4gZHk9IjAiIGFsaWdubWVudC1iYXNlbGluZT0ibWF0aGVtYXRpY2FsIj5Vc2E8L3RzcGFuPjwvdGV4dD48cGF0aCBmaWxsPSJub25lIiBzdHJva2Utd2lkdGg9IjEiIHN0cm9rZT0iIzQ0NDQ0NCIgZD0iTTU5MCw3NTAuMjk4NjExMTExMTExMSBRNjI3LjUsNzUwLjYxNjY5Njg1OTkwMzQgNzQwLDc1MC45MzQ3ODI2MDg2OTU2IiBtYXJrZXItZW5kPSJ1cmwoI2Fycm93aGVhZCkiLz48dGV4dCB4PSI2NzYiIHk9Ijc1MC42MTY2OTY4NTk5MDM0IiBmaWxsPSIjNDQ0NDQ0IiBzdHlsZT0idGV4dC1hbmNob3I6IG1pZGRsZTsgZm9udC1zaXplOiAxMnB4OyBmb250LXdlaWdodDogbm9ybWFsOyBmb250LWZhbWlseTogJnF1b3Q7T3BlbiBTYW5zJnF1b3Q7LCBzYW5zLXNlcmlmOyI+PHRzcGFuIGR5PSIwIiBhbGlnbm1lbnQtYmFzZWxpbmU9Im1hdGhlbWF0aWNhbCI+VXNhPC90c3Bhbj48L3RleHQ+PHBhdGggZmlsbD0ibm9uZSIgc3Ryb2tlLXdpZHRoPSIxIiBzdHJva2U9IiM0NDQ0NDQiIGQ9Ik0zNDkuNjM2MzYzNjM2MzYzNiwxMDkyIFEzNjQuNDExMDU2NTExMDU2NSw5MzkuNSA0MDguNzM1MTM1MTM1MTM1MSw3ODciIG1hcmtlci1lbmQ9InVybCgjYXJyb3doZWFkKSIvPjx0ZXh0IHg9IjQ0MC42ODU3NDkzODU3NDk0IiB5PSI5MzkuNSIgZmlsbD0iIzQ0NDQ0NCIgc3R5bGU9InRleHQtYW5jaG9yOiBtaWRkbGU7IGZvbnQtc2l6ZTogMTJweDsgZm9udC13ZWlnaHQ6IG5vcm1hbDsgZm9udC1mYW1pbHk6ICZxdW90O09wZW4gU2FucyZxdW90Oywgc2Fucy1zZXJpZjsiPjx0c3BhbiBkeT0iMCIgYWxpZ25tZW50LWJhc2VsaW5lPSJtYXRoZW1hdGljYWwiPkV4ZWN1dGEgb3BlcmHDp8O1ZXMgZW08L3RzcGFuPjwvdGV4dD48cGF0aCBmaWxsPSJub25lIiBzdHJva2Utd2lkdGg9IjEiIHN0cm9rZT0iIzQ0NDQ0NCIgZD0iTTg5Ny43NDA1NDA1NDA1NDA2LDU4MiBROTA1Ljc2NTE5NTYxNTE5NTYsNzM0LjUgOTI5LjgzOTE2MDgzOTE2MDksODg3IiBtYXJrZXItZW5kPSJ1cmwoI2Fycm93aGVhZCkiLz48dGV4dCB4PSI5MjQuNzg5ODUwNjg5ODUwNyIgeT0iNzM0LjUiIGZpbGw9IiM0NDQ0NDQiIHN0eWxlPSJ0ZXh0LWFuY2hvcjogbWlkZGxlOyBmb250LXNpemU6IDEycHg7IGZvbnQtd2VpZ2h0OiBub3JtYWw7IGZvbnQtZmFtaWx5OiAmcXVvdDtPcGVuIFNhbnMmcXVvdDssIHNhbnMtc2VyaWY7Ij48dHNwYW4gZHk9IjAiIGFsaWdubWVudC1iYXNlbGluZT0ibWF0aGVtYXRpY2FsIj5DcmlhPC90c3Bhbj48L3RleHQ+PHBhdGggZmlsbD0ibm9uZSIgc3Ryb2tlLXdpZHRoPSIxIiBzdHJva2U9IiM0NDQ0NDQiIGQ9Ik04ODIuNTU4MjUyNDI3MTg0NSw3ODcgUTg5OC41ODg3NzEyODc2MDE1LDgzNyA5NDYuNjgwMzI3ODY4ODUyNSw4ODciIG1hcmtlci1lbmQ9InVybCgjYXJyb3doZWFkKSIvPjx0ZXh0IHg9Ijk2My42MTkyOTAxNDgwMTg1IiB5PSI4MzciIGZpbGw9IiM0NDQ0NDQiIHN0eWxlPSJ0ZXh0LWFuY2hvcjogbWlkZGxlOyBmb250LXNpemU6IDEycHg7IGZvbnQtd2VpZ2h0OiBub3JtYWw7IGZvbnQtZmFtaWx5OiAmcXVvdDtPcGVuIFNhbnMmcXVvdDssIHNhbnMtc2VyaWY7Ij48dHNwYW4gZHk9IjAiIGFsaWdubWVudC1iYXNlbGluZT0ibWF0aGVtYXRpY2FsIj5JbXBsZW1lbnRhZG8gcG9yPC90c3Bhbj48L3RleHQ+PC9nPjx0ZXh0IHg9IjM4OS41IiB5PSIyMCI+Q29tcG9uZW50ZXMgZG8gU2lzdGVtYSBkZSBCaWJsaW90ZWNhPC90ZXh0PjwvZz48L3N2Zz4=;" vertex="1" parent="1">
          <mxGeometry x="180" y="380" width="270" height="454.53" as="geometry" />
        </mxCell>
        <mxCell id="N4wvzvUzEeqzLbN_h-wU-4" value="" style="shape=image;verticalLabelPosition=bottom;labelBackgroundColor=default;verticalAlign=top;aspect=fixed;imageAspect=0;editableCssRules=.*;image=data:image/svg+xml,PHN2ZyB4bWxuczp4bGluaz0iaHR0cDovL3d3dy53My5vcmcvMTk5OS94bGluayIgeG1sbnM9Imh0dHA6Ly93d3cudzMub3JnLzIwMDAvc3ZnIiBoZWlnaHQ9IjQ4MS41NjU4MjY0MTYwMTU2IiBpZD0iZ3JhcGgtMTAzIiB3aWR0aD0iMTk5LjM0ODA1Mjk3ODUxNTYyIiBzdHlsZT0ib3ZlcmZsb3c6IGhpZGRlbjsgbWF4LXdpZHRoOiAxMDAlOyB0b3VjaC1hY3Rpb246IG5vbmU7IHVzZXItc2VsZWN0OiBub25lOyAtd2Via2l0LXVzZXItZHJhZzogbm9uZTsgLXdlYmtpdC10YXAtaGlnaGxpZ2h0LWNvbG9yOiByZ2JhKDAsIDAsIDAsIDApOyIgcm9sZT0iZ3JhcGhpY3MtZG9jdW1lbnQgZG9jdW1lbnQiIGFyaWEtcm9sZWRlc2NyaXB0aW9uPSJjNCIgdmlld0JveD0iNzQuNzIwMjk4NzY3MDg5ODQgMjguNjM5NzU5MDYzNzIwNzAzIDE5OS4zNDgwNTI5Nzg1MTU2MiA0ODEuNTY1ODI2NDE2MDE1NiI+PGRlZnM+PHN5bWJvbCBpZD0iY29tcHV0ZXIiIHdpZHRoPSIyNCIgaGVpZ2h0PSIyNCI+PHBhdGggdHJhbnNmb3JtPSJzY2FsZSguNSkiIGQ9Ik0yIDJ2MTNoMjB2LTEzaC0yMHptMTggMTFoLTE2di05aDE2djl6bS0xMC4yMjggNmwuNDY2LTFoMy41MjRsLjQ2NyAxaC00LjQ1N3ptMTQuMjI4IDNoLTI0bDItNmgyLjEwNGwtMS4zMyA0aDE4LjQ1bC0xLjI5Ny00aDIuMDczbDIgNnptLTUtMTBoLTE0di03aDE0djd6Ii8+PC9zeW1ib2w+PC9kZWZzPjxkZWZzPjxzeW1ib2wgaWQ9ImRhdGFiYXNlIiBmaWxsLXJ1bGU9ImV2ZW5vZGQiIGNsaXAtcnVsZT0iZXZlbm9kZCI+PHBhdGggdHJhbnNmb3JtPSJzY2FsZSguNSkiIGQ9Ik0xMi4yNTguMDAxbC4yNTYuMDA0LjI1NS4wMDUuMjUzLjAwOC4yNTEuMDEuMjQ5LjAxMi4yNDcuMDE1LjI0Ni4wMTYuMjQyLjAxOS4yNDEuMDIuMjM5LjAyMy4yMzYuMDI0LjIzMy4wMjcuMjMxLjAyOC4yMjkuMDMxLjIyNS4wMzIuMjIzLjAzNC4yMi4wMzYuMjE3LjAzOC4yMTQuMDQuMjExLjA0MS4yMDguMDQzLjIwNS4wNDUuMjAxLjA0Ni4xOTguMDQ4LjE5NC4wNS4xOTEuMDUxLjE4Ny4wNTMuMTgzLjA1NC4xOC4wNTYuMTc1LjA1Ny4xNzIuMDU5LjE2OC4wNi4xNjMuMDYxLjE2LjA2My4xNTUuMDY0LjE1LjA2Ni4wNzQuMDMzLjA3My4wMzMuMDcxLjAzNC4wNy4wMzQuMDY5LjAzNS4wNjguMDM1LjA2Ny4wMzUuMDY2LjAzNS4wNjQuMDM2LjA2NC4wMzYuMDYyLjAzNi4wNi4wMzYuMDYuMDM3LjA1OC4wMzcuMDU4LjAzNy4wNTUuMDM4LjA1NS4wMzguMDUzLjAzOC4wNTIuMDM4LjA1MS4wMzkuMDUuMDM5LjA0OC4wMzkuMDQ3LjAzOS4wNDUuMDQuMDQ0LjA0LjA0My4wNC4wNDEuMDQuMDQuMDQxLjAzOS4wNDEuMDM3LjA0MS4wMzYuMDQxLjAzNC4wNDEuMDMzLjA0Mi4wMzIuMDQyLjAzLjA0Mi4wMjkuMDQyLjAyNy4wNDIuMDI2LjA0My4wMjQuMDQzLjAyMy4wNDMuMDIxLjA0My4wMi4wNDMuMDE4LjA0NC4wMTcuMDQzLjAxNS4wNDQuMDEzLjA0NC4wMTIuMDQ0LjAxMS4wNDUuMDA5LjA0NC4wMDcuMDQ1LjAwNi4wNDUuMDA0LjA0NS4wMDIuMDQ1LjAwMS4wNDV2MTdsLS4wMDEuMDQ1LS4wMDIuMDQ1LS4wMDQuMDQ1LS4wMDYuMDQ1LS4wMDcuMDQ1LS4wMDkuMDQ0LS4wMTEuMDQ1LS4wMTIuMDQ0LS4wMTMuMDQ0LS4wMTUuMDQ0LS4wMTcuMDQzLS4wMTguMDQ0LS4wMi4wNDMtLjAyMS4wNDMtLjAyMy4wNDMtLjAyNC4wNDMtLjAyNi4wNDMtLjAyNy4wNDItLjAyOS4wNDItLjAzLjA0Mi0uMDMyLjA0Mi0uMDMzLjA0Mi0uMDM0LjA0MS0uMDM2LjA0MS0uMDM3LjA0MS0uMDM5LjA0MS0uMDQuMDQxLS4wNDEuMDQtLjA0My4wNC0uMDQ0LjA0LS4wNDUuMDQtLjA0Ny4wMzktLjA0OC4wMzktLjA1LjAzOS0uMDUxLjAzOS0uMDUyLjAzOC0uMDUzLjAzOC0uMDU1LjAzOC0uMDU1LjAzOC0uMDU4LjAzNy0uMDU4LjAzNy0uMDYuMDM3LS4wNi4wMzYtLjA2Mi4wMzYtLjA2NC4wMzYtLjA2NC4wMzYtLjA2Ni4wMzUtLjA2Ny4wMzUtLjA2OC4wMzUtLjA2OS4wMzUtLjA3LjAzNC0uMDcxLjAzNC0uMDczLjAzMy0uMDc0LjAzMy0uMTUuMDY2LS4xNTUuMDY0LS4xNi4wNjMtLjE2My4wNjEtLjE2OC4wNi0uMTcyLjA1OS0uMTc1LjA1Ny0uMTguMDU2LS4xODMuMDU0LS4xODcuMDUzLS4xOTEuMDUxLS4xOTQuMDUtLjE5OC4wNDgtLjIwMS4wNDYtLjIwNS4wNDUtLjIwOC4wNDMtLjIxMS4wNDEtLjIxNC4wNC0uMjE3LjAzOC0uMjIuMDM2LS4yMjMuMDM0LS4yMjUuMDMyLS4yMjkuMDMxLS4yMzEuMDI4LS4yMzMuMDI3LS4yMzYuMDI0LS4yMzkuMDIzLS4yNDEuMDItLjI0Mi4wMTktLjI0Ni4wMTYtLjI0Ny4wMTUtLjI0OS4wMTItLjI1MS4wMS0uMjUzLjAwOC0uMjU1LjAwNS0uMjU2LjAwNC0uMjU4LjAwMS0uMjU4LS4wMDEtLjI1Ni0uMDA0LS4yNTUtLjAwNS0uMjUzLS4wMDgtLjI1MS0uMDEtLjI0OS0uMDEyLS4yNDctLjAxNS0uMjQ1LS4wMTYtLjI0My0uMDE5LS4yNDEtLjAyLS4yMzgtLjAyMy0uMjM2LS4wMjQtLjIzNC0uMDI3LS4yMzEtLjAyOC0uMjI4LS4wMzEtLjIyNi0uMDMyLS4yMjMtLjAzNC0uMjItLjAzNi0uMjE3LS4wMzgtLjIxNC0uMDQtLjIxMS0uMDQxLS4yMDgtLjA0My0uMjA0LS4wNDUtLjIwMS0uMDQ2LS4xOTgtLjA0OC0uMTk1LS4wNS0uMTktLjA1MS0uMTg3LS4wNTMtLjE4NC0uMDU0LS4xNzktLjA1Ni0uMTc2LS4wNTctLjE3Mi0uMDU5LS4xNjctLjA2LS4xNjQtLjA2MS0uMTU5LS4wNjMtLjE1NS0uMDY0LS4xNTEtLjA2Ni0uMDc0LS4wMzMtLjA3Mi0uMDMzLS4wNzItLjAzNC0uMDctLjAzNC0uMDY5LS4wMzUtLjA2OC0uMDM1LS4wNjctLjAzNS0uMDY2LS4wMzUtLjA2NC0uMDM2LS4wNjMtLjAzNi0uMDYyLS4wMzYtLjA2MS0uMDM2LS4wNi0uMDM3LS4wNTgtLjAzNy0uMDU3LS4wMzctLjA1Ni0uMDM4LS4wNTUtLjAzOC0uMDUzLS4wMzgtLjA1Mi0uMDM4LS4wNTEtLjAzOS0uMDQ5LS4wMzktLjA0OS0uMDM5LS4wNDYtLjAzOS0uMDQ2LS4wNC0uMDQ0LS4wNC0uMDQzLS4wNC0uMDQxLS4wNC0uMDQtLjA0MS0uMDM5LS4wNDEtLjAzNy0uMDQxLS4wMzYtLjA0MS0uMDM0LS4wNDEtLjAzMy0uMDQyLS4wMzItLjA0Mi0uMDMtLjA0Mi0uMDI5LS4wNDItLjAyNy0uMDQyLS4wMjYtLjA0My0uMDI0LS4wNDMtLjAyMy0uMDQzLS4wMjEtLjA0My0uMDItLjA0My0uMDE4LS4wNDQtLjAxNy0uMDQzLS4wMTUtLjA0NC0uMDEzLS4wNDQtLjAxMi0uMDQ0LS4wMTEtLjA0NS0uMDA5LS4wNDQtLjAwNy0uMDQ1LS4wMDYtLjA0NS0uMDA0LS4wNDUtLjAwMi0uMDQ1LS4wMDEtLjA0NXYtMTdsLjAwMS0uMDQ1LjAwMi0uMDQ1LjAwNC0uMDQ1LjAwNi0uMDQ1LjAwNy0uMDQ1LjAwOS0uMDQ0LjAxMS0uMDQ1LjAxMi0uMDQ0LjAxMy0uMDQ0LjAxNS0uMDQ0LjAxNy0uMDQzLjAxOC0uMDQ0LjAyLS4wNDMuMDIxLS4wNDMuMDIzLS4wNDMuMDI0LS4wNDMuMDI2LS4wNDMuMDI3LS4wNDIuMDI5LS4wNDIuMDMtLjA0Mi4wMzItLjA0Mi4wMzMtLjA0Mi4wMzQtLjA0MS4wMzYtLjA0MS4wMzctLjA0MS4wMzktLjA0MS4wNC0uMDQxLjA0MS0uMDQuMDQzLS4wNC4wNDQtLjA0LjA0Ni0uMDQuMDQ2LS4wMzkuMDQ5LS4wMzkuMDQ5LS4wMzkuMDUxLS4wMzkuMDUyLS4wMzguMDUzLS4wMzguMDU1LS4wMzguMDU2LS4wMzguMDU3LS4wMzcuMDU4LS4wMzcuMDYtLjAzNy4wNjEtLjAzNi4wNjItLjAzNi4wNjMtLjAzNi4wNjQtLjAzNi4wNjYtLjAzNS4wNjctLjAzNS4wNjgtLjAzNS4wNjktLjAzNS4wNy0uMDM0LjA3Mi0uMDM0LjA3Mi0uMDMzLjA3NC0uMDMzLjE1MS0uMDY2LjE1NS0uMDY0LjE1OS0uMDYzLjE2NC0uMDYxLjE2Ny0uMDYuMTcyLS4wNTkuMTc2LS4wNTcuMTc5LS4wNTYuMTg0LS4wNTQuMTg3LS4wNTMuMTktLjA1MS4xOTUtLjA1LjE5OC0uMDQ4LjIwMS0uMDQ2LjIwNC0uMDQ1LjIwOC0uMDQzLjIxMS0uMDQxLjIxNC0uMDQuMjE3LS4wMzguMjItLjAzNi4yMjMtLjAzNC4yMjYtLjAzMi4yMjgtLjAzMS4yMzEtLjAyOC4yMzQtLjAyNy4yMzYtLjAyNC4yMzgtLjAyMy4yNDEtLjAyLjI0My0uMDE5LjI0NS0uMDE2LjI0Ny0uMDE1LjI0OS0uMDEyLjI1MS0uMDEuMjUzLS4wMDguMjU1LS4wMDUuMjU2LS4wMDQuMjU4LS4wMDEuMjU4LjAwMXptLTkuMjU4IDIwLjQ5OXYuMDFsLjAwMS4wMjEuMDAzLjAyMS4wMDQuMDIyLjAwNS4wMjEuMDA2LjAyMi4wMDcuMDIyLjAwOS4wMjMuMDEuMDIyLjAxMS4wMjMuMDEyLjAyMy4wMTMuMDIzLjAxNS4wMjMuMDE2LjAyNC4wMTcuMDIzLjAxOC4wMjQuMDE5LjAyNC4wMjEuMDI0LjAyMi4wMjUuMDIzLjAyNC4wMjQuMDI1LjA1Mi4wNDkuMDU2LjA1LjA2MS4wNTEuMDY2LjA1MS4wNy4wNTEuMDc1LjA1MS4wNzkuMDUyLjA4NC4wNTIuMDg4LjA1Mi4wOTIuMDUyLjA5Ny4wNTIuMTAyLjA1MS4xMDUuMDUyLjExLjA1Mi4xMTQuMDUxLjExOS4wNTEuMTIzLjA1MS4xMjcuMDUuMTMxLjA1LjEzNS4wNS4xMzkuMDQ4LjE0NC4wNDkuMTQ3LjA0Ny4xNTIuMDQ3LjE1NS4wNDcuMTYuMDQ1LjE2My4wNDUuMTY3LjA0My4xNzEuMDQzLjE3Ni4wNDEuMTc4LjA0MS4xODMuMDM5LjE4Ny4wMzkuMTkuMDM3LjE5NC4wMzUuMTk3LjAzNS4yMDIuMDMzLjIwNC4wMzEuMjA5LjAzLjIxMi4wMjkuMjE2LjAyNy4yMTkuMDI1LjIyMi4wMjQuMjI2LjAyMS4yMy4wMi4yMzMuMDE4LjIzNi4wMTYuMjQuMDE1LjI0My4wMTIuMjQ2LjAxLjI0OS4wMDguMjUzLjAwNS4yNTYuMDA0LjI1OS4wMDEuMjYtLjAwMS4yNTctLjAwNC4yNTQtLjAwNS4yNS0uMDA4LjI0Ny0uMDExLjI0NC0uMDEyLjI0MS0uMDE0LjIzNy0uMDE2LjIzMy0uMDE4LjIzMS0uMDIxLjIyNi0uMDIxLjIyNC0uMDI0LjIyLS4wMjYuMjE2LS4wMjcuMjEyLS4wMjguMjEtLjAzMS4yMDUtLjAzMS4yMDItLjAzNC4xOTgtLjAzNC4xOTQtLjAzNi4xOTEtLjAzNy4xODctLjAzOS4xODMtLjA0LjE3OS0uMDQuMTc1LS4wNDIuMTcyLS4wNDMuMTY4LS4wNDQuMTYzLS4wNDUuMTYtLjA0Ni4xNTUtLjA0Ni4xNTItLjA0Ny4xNDgtLjA0OC4xNDMtLjA0OS4xMzktLjA0OS4xMzYtLjA1LjEzMS0uMDUuMTI2LS4wNS4xMjMtLjA1MS4xMTgtLjA1Mi4xMTQtLjA1MS4xMS0uMDUyLjEwNi0uMDUyLjEwMS0uMDUyLjA5Ni0uMDUyLjA5Mi0uMDUyLjA4OC0uMDUzLjA4My0uMDUxLjA3OS0uMDUyLjA3NC0uMDUyLjA3LS4wNTEuMDY1LS4wNTEuMDYtLjA1MS4wNTYtLjA1LjA1MS0uMDUuMDIzLS4wMjQuMDIzLS4wMjUuMDIxLS4wMjQuMDItLjAyNC4wMTktLjAyNC4wMTgtLjAyNC4wMTctLjAyNC4wMTUtLjAyMy4wMTQtLjAyNC4wMTMtLjAyMy4wMTItLjAyMy4wMS0uMDIzLjAxLS4wMjIuMDA4LS4wMjIuMDA2LS4wMjIuMDA2LS4wMjIuMDA0LS4wMjIuMDA0LS4wMjEuMDAxLS4wMjEuMDAxLS4wMjF2LTQuMTI3bC0uMDc3LjA1NS0uMDguMDUzLS4wODMuMDU0LS4wODUuMDUzLS4wODcuMDUyLS4wOS4wNTItLjA5My4wNTEtLjA5NS4wNS0uMDk3LjA1LS4xLjA0OS0uMTAyLjA0OS0uMTA1LjA0OC0uMTA2LjA0Ny0uMTA5LjA0Ny0uMTExLjA0Ni0uMTE0LjA0NS0uMTE1LjA0NS0uMTE4LjA0NC0uMTIuMDQzLS4xMjIuMDQyLS4xMjQuMDQyLS4xMjYuMDQxLS4xMjguMDQtLjEzLjA0LS4xMzIuMDM4LS4xMzQuMDM4LS4xMzUuMDM3LS4xMzguMDM3LS4xMzkuMDM1LS4xNDIuMDM1LS4xNDMuMDM0LS4xNDQuMDMzLS4xNDcuMDMyLS4xNDguMDMxLS4xNS4wMy0uMTUxLjAzLS4xNTMuMDI5LS4xNTQuMDI3LS4xNTYuMDI3LS4xNTguMDI2LS4xNTkuMDI1LS4xNjEuMDI0LS4xNjIuMDIzLS4xNjMuMDIyLS4xNjUuMDIxLS4xNjYuMDItLjE2Ny4wMTktLjE2OS4wMTgtLjE2OS4wMTctLjE3MS4wMTYtLjE3My4wMTUtLjE3My4wMTQtLjE3NS4wMTMtLjE3NS4wMTItLjE3Ny4wMTEtLjE3OC4wMS0uMTc5LjAwOC0uMTc5LjAwOC0uMTgxLjAwNi0uMTgyLjAwNS0uMTgyLjAwNC0uMTg0LjAwMy0uMTg0LjAwMmgtLjM3bC0uMTg0LS4wMDItLjE4NC0uMDAzLS4xODItLjAwNC0uMTgyLS4wMDUtLjE4MS0uMDA2LS4xNzktLjAwOC0uMTc5LS4wMDgtLjE3OC0uMDEtLjE3Ni0uMDExLS4xNzYtLjAxMi0uMTc1LS4wMTMtLjE3My0uMDE0LS4xNzItLjAxNS0uMTcxLS4wMTYtLjE3LS4wMTctLjE2OS0uMDE4LS4xNjctLjAxOS0uMTY2LS4wMi0uMTY1LS4wMjEtLjE2My0uMDIyLS4xNjItLjAyMy0uMTYxLS4wMjQtLjE1OS0uMDI1LS4xNTctLjAyNi0uMTU2LS4wMjctLjE1NS0uMDI3LS4xNTMtLjAyOS0uMTUxLS4wMy0uMTUtLjAzLS4xNDgtLjAzMS0uMTQ2LS4wMzItLjE0NS0uMDMzLS4xNDMtLjAzNC0uMTQxLS4wMzUtLjE0LS4wMzUtLjEzNy0uMDM3LS4xMzYtLjAzNy0uMTM0LS4wMzgtLjEzMi0uMDM4LS4xMy0uMDQtLjEyOC0uMDQtLjEyNi0uMDQxLS4xMjQtLjA0Mi0uMTIyLS4wNDItLjEyLS4wNDQtLjExNy0uMDQzLS4xMTYtLjA0NS0uMTEzLS4wNDUtLjExMi0uMDQ2LS4xMDktLjA0Ny0uMTA2LS4wNDctLjEwNS0uMDQ4LS4xMDItLjA0OS0uMS0uMDQ5LS4wOTctLjA1LS4wOTUtLjA1LS4wOTMtLjA1Mi0uMDktLjA1MS0uMDg3LS4wNTItLjA4NS0uMDUzLS4wODMtLjA1NC0uMDgtLjA1NC0uMDc3LS4wNTR2NC4xMjd6bTAtNS42NTR2LjAxMWwuMDAxLjAyMS4wMDMuMDIxLjAwNC4wMjEuMDA1LjAyMi4wMDYuMDIyLjAwNy4wMjIuMDA5LjAyMi4wMS4wMjIuMDExLjAyMy4wMTIuMDIzLjAxMy4wMjMuMDE1LjAyNC4wMTYuMDIzLjAxNy4wMjQuMDE4LjAyNC4wMTkuMDI0LjAyMS4wMjQuMDIyLjAyNC4wMjMuMDI1LjAyNC4wMjQuMDUyLjA1LjA1Ni4wNS4wNjEuMDUuMDY2LjA1MS4wNy4wNTEuMDc1LjA1Mi4wNzkuMDUxLjA4NC4wNTIuMDg4LjA1Mi4wOTIuMDUyLjA5Ny4wNTIuMTAyLjA1Mi4xMDUuMDUyLjExLjA1MS4xMTQuMDUxLjExOS4wNTIuMTIzLjA1LjEyNy4wNTEuMTMxLjA1LjEzNS4wNDkuMTM5LjA0OS4xNDQuMDQ4LjE0Ny4wNDguMTUyLjA0Ny4xNTUuMDQ2LjE2LjA0NS4xNjMuMDQ1LjE2Ny4wNDQuMTcxLjA0Mi4xNzYuMDQyLjE3OC4wNC4xODMuMDQuMTg3LjAzOC4xOS4wMzcuMTk0LjAzNi4xOTcuMDM0LjIwMi4wMzMuMjA0LjAzMi4yMDkuMDMuMjEyLjAyOC4yMTYuMDI3LjIxOS4wMjUuMjIyLjAyNC4yMjYuMDIyLjIzLjAyLjIzMy4wMTguMjM2LjAxNi4yNC4wMTQuMjQzLjAxMi4yNDYuMDEuMjQ5LjAwOC4yNTMuMDA2LjI1Ni4wMDMuMjU5LjAwMS4yNi0uMDAxLjI1Ny0uMDAzLjI1NC0uMDA2LjI1LS4wMDguMjQ3LS4wMS4yNDQtLjAxMi4yNDEtLjAxNS4yMzctLjAxNi4yMzMtLjAxOC4yMzEtLjAyLjIyNi0uMDIyLjIyNC0uMDI0LjIyLS4wMjUuMjE2LS4wMjcuMjEyLS4wMjkuMjEtLjAzLjIwNS0uMDMyLjIwMi0uMDMzLjE5OC0uMDM1LjE5NC0uMDM2LjE5MS0uMDM3LjE4Ny0uMDM5LjE4My0uMDM5LjE3OS0uMDQxLjE3NS0uMDQyLjE3Mi0uMDQzLjE2OC0uMDQ0LjE2My0uMDQ1LjE2LS4wNDUuMTU1LS4wNDcuMTUyLS4wNDcuMTQ4LS4wNDguMTQzLS4wNDguMTM5LS4wNS4xMzYtLjA0OS4xMzEtLjA1LjEyNi0uMDUxLjEyMy0uMDUxLjExOC0uMDUxLjExNC0uMDUyLjExLS4wNTIuMTA2LS4wNTIuMTAxLS4wNTIuMDk2LS4wNTIuMDkyLS4wNTIuMDg4LS4wNTIuMDgzLS4wNTIuMDc5LS4wNTIuMDc0LS4wNTEuMDctLjA1Mi4wNjUtLjA1MS4wNi0uMDUuMDU2LS4wNTEuMDUxLS4wNDkuMDIzLS4wMjUuMDIzLS4wMjQuMDIxLS4wMjUuMDItLjAyNC4wMTktLjAyNC4wMTgtLjAyNC4wMTctLjAyNC4wMTUtLjAyMy4wMTQtLjAyMy4wMTMtLjAyNC4wMTItLjAyMi4wMS0uMDIzLjAxLS4wMjMuMDA4LS4wMjIuMDA2LS4wMjIuMDA2LS4wMjIuMDA0LS4wMjEuMDA0LS4wMjIuMDAxLS4wMjEuMDAxLS4wMjF2LTQuMTM5bC0uMDc3LjA1NC0uMDguMDU0LS4wODMuMDU0LS4wODUuMDUyLS4wODcuMDUzLS4wOS4wNTEtLjA5My4wNTEtLjA5NS4wNTEtLjA5Ny4wNS0uMS4wNDktLjEwMi4wNDktLjEwNS4wNDgtLjEwNi4wNDctLjEwOS4wNDctLjExMS4wNDYtLjExNC4wNDUtLjExNS4wNDQtLjExOC4wNDQtLjEyLjA0NC0uMTIyLjA0Mi0uMTI0LjA0Mi0uMTI2LjA0MS0uMTI4LjA0LS4xMy4wMzktLjEzMi4wMzktLjEzNC4wMzgtLjEzNS4wMzctLjEzOC4wMzYtLjEzOS4wMzYtLjE0Mi4wMzUtLjE0My4wMzMtLjE0NC4wMzMtLjE0Ny4wMzMtLjE0OC4wMzEtLjE1LjAzLS4xNTEuMDMtLjE1My4wMjgtLjE1NC4wMjgtLjE1Ni4wMjctLjE1OC4wMjYtLjE1OS4wMjUtLjE2MS4wMjQtLjE2Mi4wMjMtLjE2My4wMjItLjE2NS4wMjEtLjE2Ni4wMi0uMTY3LjAxOS0uMTY5LjAxOC0uMTY5LjAxNy0uMTcxLjAxNi0uMTczLjAxNS0uMTczLjAxNC0uMTc1LjAxMy0uMTc1LjAxMi0uMTc3LjAxMS0uMTc4LjAwOS0uMTc5LjAwOS0uMTc5LjAwNy0uMTgxLjAwNy0uMTgyLjAwNS0uMTgyLjAwNC0uMTg0LjAwMy0uMTg0LjAwMmgtLjM3bC0uMTg0LS4wMDItLjE4NC0uMDAzLS4xODItLjAwNC0uMTgyLS4wMDUtLjE4MS0uMDA3LS4xNzktLjAwNy0uMTc5LS4wMDktLjE3OC0uMDA5LS4xNzYtLjAxMS0uMTc2LS4wMTItLjE3NS0uMDEzLS4xNzMtLjAxNC0uMTcyLS4wMTUtLjE3MS0uMDE2LS4xNy0uMDE3LS4xNjktLjAxOC0uMTY3LS4wMTktLjE2Ni0uMDItLjE2NS0uMDIxLS4xNjMtLjAyMi0uMTYyLS4wMjMtLjE2MS0uMDI0LS4xNTktLjAyNS0uMTU3LS4wMjYtLjE1Ni0uMDI3LS4xNTUtLjAyOC0uMTUzLS4wMjgtLjE1MS0uMDMtLjE1LS4wMy0uMTQ4LS4wMzEtLjE0Ni0uMDMzLS4xNDUtLjAzMy0uMTQzLS4wMzMtLjE0MS0uMDM1LS4xNC0uMDM2LS4xMzctLjAzNi0uMTM2LS4wMzctLjEzNC0uMDM4LS4xMzItLjAzOS0uMTMtLjAzOS0uMTI4LS4wNC0uMTI2LS4wNDEtLjEyNC0uMDQyLS4xMjItLjA0My0uMTItLjA0My0uMTE3LS4wNDQtLjExNi0uMDQ0LS4xMTMtLjA0Ni0uMTEyLS4wNDYtLjEwOS0uMDQ2LS4xMDYtLjA0Ny0uMTA1LS4wNDgtLjEwMi0uMDQ5LS4xLS4wNDktLjA5Ny0uMDUtLjA5NS0uMDUxLS4wOTMtLjA1MS0uMDktLjA1MS0uMDg3LS4wNTMtLjA4NS0uMDUyLS4wODMtLjA1NC0uMDgtLjA1NC0uMDc3LS4wNTR2NC4xMzl6bTAtNS42NjZ2LjAxMWwuMDAxLjAyLjAwMy4wMjIuMDA0LjAyMS4wMDUuMDIyLjAwNi4wMjEuMDA3LjAyMi4wMDkuMDIzLjAxLjAyMi4wMTEuMDIzLjAxMi4wMjMuMDEzLjAyMy4wMTUuMDIzLjAxNi4wMjQuMDE3LjAyNC4wMTguMDIzLjAxOS4wMjQuMDIxLjAyNS4wMjIuMDI0LjAyMy4wMjQuMDI0LjAyNS4wNTIuMDUuMDU2LjA1LjA2MS4wNS4wNjYuMDUxLjA3LjA1MS4wNzUuMDUyLjA3OS4wNTEuMDg0LjA1Mi4wODguMDUyLjA5Mi4wNTIuMDk3LjA1Mi4xMDIuMDUyLjEwNS4wNTEuMTEuMDUyLjExNC4wNTEuMTE5LjA1MS4xMjMuMDUxLjEyNy4wNS4xMzEuMDUuMTM1LjA1LjEzOS4wNDkuMTQ0LjA0OC4xNDcuMDQ4LjE1Mi4wNDcuMTU1LjA0Ni4xNi4wNDUuMTYzLjA0NS4xNjcuMDQzLjE3MS4wNDMuMTc2LjA0Mi4xNzguMDQuMTgzLjA0LjE4Ny4wMzguMTkuMDM3LjE5NC4wMzYuMTk3LjAzNC4yMDIuMDMzLjIwNC4wMzIuMjA5LjAzLjIxMi4wMjguMjE2LjAyNy4yMTkuMDI1LjIyMi4wMjQuMjI2LjAyMS4yMy4wMi4yMzMuMDE4LjIzNi4wMTcuMjQuMDE0LjI0My4wMTIuMjQ2LjAxLjI0OS4wMDguMjUzLjAwNi4yNTYuMDAzLjI1OS4wMDEuMjYtLjAwMS4yNTctLjAwMy4yNTQtLjAwNi4yNS0uMDA4LjI0Ny0uMDEuMjQ0LS4wMTMuMjQxLS4wMTQuMjM3LS4wMTYuMjMzLS4wMTguMjMxLS4wMi4yMjYtLjAyMi4yMjQtLjAyNC4yMi0uMDI1LjIxNi0uMDI3LjIxMi0uMDI5LjIxLS4wMy4yMDUtLjAzMi4yMDItLjAzMy4xOTgtLjAzNS4xOTQtLjAzNi4xOTEtLjAzNy4xODctLjAzOS4xODMtLjAzOS4xNzktLjA0MS4xNzUtLjA0Mi4xNzItLjA0My4xNjgtLjA0NC4xNjMtLjA0NS4xNi0uMDQ1LjE1NS0uMDQ3LjE1Mi0uMDQ3LjE0OC0uMDQ4LjE0My0uMDQ5LjEzOS0uMDQ5LjEzNi0uMDQ5LjEzMS0uMDUxLjEyNi0uMDUuMTIzLS4wNTEuMTE4LS4wNTIuMTE0LS4wNTEuMTEtLjA1Mi4xMDYtLjA1Mi4xMDEtLjA1Mi4wOTYtLjA1Mi4wOTItLjA1Mi4wODgtLjA1Mi4wODMtLjA1Mi4wNzktLjA1Mi4wNzQtLjA1Mi4wNy0uMDUxLjA2NS0uMDUxLjA2LS4wNTEuMDU2LS4wNS4wNTEtLjA0OS4wMjMtLjAyNS4wMjMtLjAyNS4wMjEtLjAyNC4wMi0uMDI0LjAxOS0uMDI0LjAxOC0uMDI0LjAxNy0uMDI0LjAxNS0uMDIzLjAxNC0uMDI0LjAxMy0uMDIzLjAxMi0uMDIzLjAxLS4wMjIuMDEtLjAyMy4wMDgtLjAyMi4wMDYtLjAyMi4wMDYtLjAyMi4wMDQtLjAyMi4wMDQtLjAyMS4wMDEtLjAyMS4wMDEtLjAyMXYtNC4xNTNsLS4wNzcuMDU0LS4wOC4wNTQtLjA4My4wNTMtLjA4NS4wNTMtLjA4Ny4wNTMtLjA5LjA1MS0uMDkzLjA1MS0uMDk1LjA1MS0uMDk3LjA1LS4xLjA0OS0uMTAyLjA0OC0uMTA1LjA0OC0uMTA2LjA0OC0uMTA5LjA0Ni0uMTExLjA0Ni0uMTE0LjA0Ni0uMTE1LjA0NC0uMTE4LjA0NC0uMTIuMDQzLS4xMjIuMDQzLS4xMjQuMDQyLS4xMjYuMDQxLS4xMjguMDQtLjEzLjAzOS0uMTMyLjAzOS0uMTM0LjAzOC0uMTM1LjAzNy0uMTM4LjAzNi0uMTM5LjAzNi0uMTQyLjAzNC0uMTQzLjAzNC0uMTQ0LjAzMy0uMTQ3LjAzMi0uMTQ4LjAzMi0uMTUuMDMtLjE1MS4wMy0uMTUzLjAyOC0uMTU0LjAyOC0uMTU2LjAyNy0uMTU4LjAyNi0uMTU5LjAyNC0uMTYxLjAyNC0uMTYyLjAyMy0uMTYzLjAyMy0uMTY1LjAyMS0uMTY2LjAyLS4xNjcuMDE5LS4xNjkuMDE4LS4xNjkuMDE3LS4xNzEuMDE2LS4xNzMuMDE1LS4xNzMuMDE0LS4xNzUuMDEzLS4xNzUuMDEyLS4xNzcuMDEtLjE3OC4wMS0uMTc5LjAwOS0uMTc5LjAwNy0uMTgxLjAwNi0uMTgyLjAwNi0uMTgyLjAwNC0uMTg0LjAwMy0uMTg0LjAwMS0uMTg1LjAwMS0uMTg1LS4wMDEtLjE4NC0uMDAxLS4xODQtLjAwMy0uMTgyLS4wMDQtLjE4Mi0uMDA2LS4xODEtLjAwNi0uMTc5LS4wMDctLjE3OS0uMDA5LS4xNzgtLjAxLS4xNzYtLjAxLS4xNzYtLjAxMi0uMTc1LS4wMTMtLjE3My0uMDE0LS4xNzItLjAxNS0uMTcxLS4wMTYtLjE3LS4wMTctLjE2OS0uMDE4LS4xNjctLjAxOS0uMTY2LS4wMi0uMTY1LS4wMjEtLjE2My0uMDIzLS4xNjItLjAyMy0uMTYxLS4wMjQtLjE1OS0uMDI0LS4xNTctLjAyNi0uMTU2LS4wMjctLjE1NS0uMDI4LS4xNTMtLjAyOC0uMTUxLS4wMy0uMTUtLjAzLS4xNDgtLjAzMi0uMTQ2LS4wMzItLjE0NS0uMDMzLS4xNDMtLjAzNC0uMTQxLS4wMzQtLjE0LS4wMzYtLjEzNy0uMDM2LS4xMzYtLjAzNy0uMTM0LS4wMzgtLjEzMi0uMDM5LS4xMy0uMDM5LS4xMjgtLjA0MS0uMTI2LS4wNDEtLjEyNC0uMDQxLS4xMjItLjA0My0uMTItLjA0My0uMTE3LS4wNDQtLjExNi0uMDQ0LS4xMTMtLjA0Ni0uMTEyLS4wNDYtLjEwOS0uMDQ2LS4xMDYtLjA0OC0uMTA1LS4wNDgtLjEwMi0uMDQ4LS4xLS4wNS0uMDk3LS4wNDktLjA5NS0uMDUxLS4wOTMtLjA1MS0uMDktLjA1Mi0uMDg3LS4wNTItLjA4NS0uMDUzLS4wODMtLjA1My0uMDgtLjA1NC0uMDc3LS4wNTR2NC4xNTN6bTguNzQtOC4xNzlsLS4yNTcuMDA0LS4yNTQuMDA1LS4yNS4wMDgtLjI0Ny4wMTEtLjI0NC4wMTItLjI0MS4wMTQtLjIzNy4wMTYtLjIzMy4wMTgtLjIzMS4wMjEtLjIyNi4wMjItLjIyNC4wMjMtLjIyLjAyNi0uMjE2LjAyNy0uMjEyLjAyOC0uMjEuMDMxLS4yMDUuMDMyLS4yMDIuMDMzLS4xOTguMDM0LS4xOTQuMDM2LS4xOTEuMDM4LS4xODcuMDM4LS4xODMuMDQtLjE3OS4wNDEtLjE3NS4wNDItLjE3Mi4wNDMtLjE2OC4wNDMtLjE2My4wNDUtLjE2LjA0Ni0uMTU1LjA0Ni0uMTUyLjA0OC0uMTQ4LjA0OC0uMTQzLjA0OC0uMTM5LjA0OS0uMTM2LjA1LS4xMzEuMDUtLjEyNi4wNTEtLjEyMy4wNTEtLjExOC4wNTEtLjExNC4wNTItLjExLjA1Mi0uMTA2LjA1Mi0uMTAxLjA1Mi0uMDk2LjA1Mi0uMDkyLjA1Mi0uMDg4LjA1Mi0uMDgzLjA1Mi0uMDc5LjA1Mi0uMDc0LjA1MS0uMDcuMDUyLS4wNjUuMDUxLS4wNi4wNS0uMDU2LjA1LS4wNTEuMDUtLjAyMy4wMjUtLjAyMy4wMjQtLjAyMS4wMjQtLjAyLjAyNS0uMDE5LjAyNC0uMDE4LjAyNC0uMDE3LjAyMy0uMDE1LjAyNC0uMDE0LjAyMy0uMDEzLjAyMy0uMDEyLjAyMy0uMDEuMDIzLS4wMS4wMjItLjAwOC4wMjItLjAwNi4wMjMtLjAwNi4wMjEtLjAwNC4wMjItLjAwNC4wMjEtLjAwMS4wMjEtLjAwMS4wMjEuMDAxLjAyMS4wMDEuMDIxLjAwNC4wMjEuMDA0LjAyMi4wMDYuMDIxLjAwNi4wMjMuMDA4LjAyMi4wMS4wMjIuMDEuMDIzLjAxMi4wMjMuMDEzLjAyMy4wMTQuMDIzLjAxNS4wMjQuMDE3LjAyMy4wMTguMDI0LjAxOS4wMjQuMDIuMDI1LjAyMS4wMjQuMDIzLjAyNC4wMjMuMDI1LjA1MS4wNS4wNTYuMDUuMDYuMDUuMDY1LjA1MS4wNy4wNTIuMDc0LjA1MS4wNzkuMDUyLjA4My4wNTIuMDg4LjA1Mi4wOTIuMDUyLjA5Ni4wNTIuMTAxLjA1Mi4xMDYuMDUyLjExLjA1Mi4xMTQuMDUyLjExOC4wNTEuMTIzLjA1MS4xMjYuMDUxLjEzMS4wNS4xMzYuMDUuMTM5LjA0OS4xNDMuMDQ4LjE0OC4wNDguMTUyLjA0OC4xNTUuMDQ2LjE2LjA0Ni4xNjMuMDQ1LjE2OC4wNDMuMTcyLjA0My4xNzUuMDQyLjE3OS4wNDEuMTgzLjA0LjE4Ny4wMzguMTkxLjAzOC4xOTQuMDM2LjE5OC4wMzQuMjAyLjAzMy4yMDUuMDMyLjIxLjAzMS4yMTIuMDI4LjIxNi4wMjcuMjIuMDI2LjIyNC4wMjMuMjI2LjAyMi4yMzEuMDIxLjIzMy4wMTguMjM3LjAxNi4yNDEuMDE0LjI0NC4wMTIuMjQ3LjAxMS4yNS4wMDguMjU0LjAwNS4yNTcuMDA0LjI2LjAwMS4yNi0uMDAxLjI1Ny0uMDA0LjI1NC0uMDA1LjI1LS4wMDguMjQ3LS4wMTEuMjQ0LS4wMTIuMjQxLS4wMTQuMjM3LS4wMTYuMjMzLS4wMTguMjMxLS4wMjEuMjI2LS4wMjIuMjI0LS4wMjMuMjItLjAyNi4yMTYtLjAyNy4yMTItLjAyOC4yMS0uMDMxLjIwNS0uMDMyLjIwMi0uMDMzLjE5OC0uMDM0LjE5NC0uMDM2LjE5MS0uMDM4LjE4Ny0uMDM4LjE4My0uMDQuMTc5LS4wNDEuMTc1LS4wNDIuMTcyLS4wNDMuMTY4LS4wNDMuMTYzLS4wNDUuMTYtLjA0Ni4xNTUtLjA0Ni4xNTItLjA0OC4xNDgtLjA0OC4xNDMtLjA0OC4xMzktLjA0OS4xMzYtLjA1LjEzMS0uMDUuMTI2LS4wNTEuMTIzLS4wNTEuMTE4LS4wNTEuMTE0LS4wNTIuMTEtLjA1Mi4xMDYtLjA1Mi4xMDEtLjA1Mi4wOTYtLjA1Mi4wOTItLjA1Mi4wODgtLjA1Mi4wODMtLjA1Mi4wNzktLjA1Mi4wNzQtLjA1MS4wNy0uMDUyLjA2NS0uMDUxLjA2LS4wNS4wNTYtLjA1LjA1MS0uMDUuMDIzLS4wMjUuMDIzLS4wMjQuMDIxLS4wMjQuMDItLjAyNS4wMTktLjAyNC4wMTgtLjAyNC4wMTctLjAyMy4wMTUtLjAyNC4wMTQtLjAyMy4wMTMtLjAyMy4wMTItLjAyMy4wMS0uMDIzLjAxLS4wMjIuMDA4LS4wMjIuMDA2LS4wMjMuMDA2LS4wMjEuMDA0LS4wMjIuMDA0LS4wMjEuMDAxLS4wMjEuMDAxLS4wMjEtLjAwMS0uMDIxLS4wMDEtLjAyMS0uMDA0LS4wMjEtLjAwNC0uMDIyLS4wMDYtLjAyMS0uMDA2LS4wMjMtLjAwOC0uMDIyLS4wMS0uMDIyLS4wMS0uMDIzLS4wMTItLjAyMy0uMDEzLS4wMjMtLjAxNC0uMDIzLS4wMTUtLjAyNC0uMDE3LS4wMjMtLjAxOC0uMDI0LS4wMTktLjAyNC0uMDItLjAyNS0uMDIxLS4wMjQtLjAyMy0uMDI0LS4wMjMtLjAyNS0uMDUxLS4wNS0uMDU2LS4wNS0uMDYtLjA1LS4wNjUtLjA1MS0uMDctLjA1Mi0uMDc0LS4wNTEtLjA3OS0uMDUyLS4wODMtLjA1Mi0uMDg4LS4wNTItLjA5Mi0uMDUyLS4wOTYtLjA1Mi0uMTAxLS4wNTItLjEwNi0uMDUyLS4xMS0uMDUyLS4xMTQtLjA1Mi0uMTE4LS4wNTEtLjEyMy0uMDUxLS4xMjYtLjA1MS0uMTMxLS4wNS0uMTM2LS4wNS0uMTM5LS4wNDktLjE0My0uMDQ4LS4xNDgtLjA0OC0uMTUyLS4wNDgtLjE1NS0uMDQ2LS4xNi0uMDQ2LS4xNjMtLjA0NS0uMTY4LS4wNDMtLjE3Mi0uMDQzLS4xNzUtLjA0Mi0uMTc5LS4wNDEtLjE4My0uMDQtLjE4Ny0uMDM4LS4xOTEtLjAzOC0uMTk0LS4wMzYtLjE5OC0uMDM0LS4yMDItLjAzMy0uMjA1LS4wMzItLjIxLS4wMzEtLjIxMi0uMDI4LS4yMTYtLjAyNy0uMjItLjAyNi0uMjI0LS4wMjMtLjIyNi0uMDIyLS4yMzEtLjAyMS0uMjMzLS4wMTgtLjIzNy0uMDE2LS4yNDEtLjAxNC0uMjQ0LS4wMTItLjI0Ny0uMDExLS4yNS0uMDA4LS4yNTQtLjAwNS0uMjU3LS4wMDQtLjI2LS4wMDEtLjI2LjAwMXoiLz48L3N5bWJvbD48L2RlZnM+PGRlZnM+PHN5bWJvbCBpZD0iY2xvY2siIHdpZHRoPSIyNCIgaGVpZ2h0PSIyNCI+PHBhdGggdHJhbnNmb3JtPSJzY2FsZSguNSkiIGQ9Ik0xMiAyYzUuNTE0IDAgMTAgNC40ODYgMTAgMTBzLTQuNDg2IDEwLTEwIDEwLTEwLTQuNDg2LTEwLTEwIDQuNDg2LTEwIDEwLTEwem0wLTJjLTYuNjI3IDAtMTIgNS4zNzMtMTIgMTJzNS4zNzMgMTIgMTIgMTIgMTItNS4zNzMgMTItMTItNS4zNzMtMTItMTItMTJ6bTUuODQ4IDEyLjQ1OWMuMjAyLjAzOC4yMDIuMzMzLjAwMS4zNzItMS45MDcuMzYxLTYuMDQ1IDEuMTExLTYuNTQ3IDEuMTExLS43MTkgMC0xLjMwMS0uNTgyLTEuMzAxLTEuMzAxIDAtLjUxMi43Ny01LjQ0NyAxLjEyNS03LjQ0NS4wMzQtLjE5Mi4zMTItLjE4MS4zNDMuMDE0bC45ODUgNi4yMzggNS4zOTQgMS4wMTF6Ii8+PC9zeW1ib2w+PC9kZWZzPjxkZWZzPjxtYXJrZXIgaWQ9ImFycm93aGVhZCIgcmVmWD0iOSIgcmVmWT0iNSIgbWFya2VyVW5pdHM9InVzZXJTcGFjZU9uVXNlIiBtYXJrZXJXaWR0aD0iMTIiIG1hcmtlckhlaWdodD0iMTIiIG9yaWVudD0iYXV0byI+PHBhdGggZD0iTSAwIDAgTCAxMCA1IEwgMCAxMCB6Ii8+PC9tYXJrZXI+PC9kZWZzPjxkZWZzPjxtYXJrZXIgaWQ9ImFycm93ZW5kIiByZWZYPSIxIiByZWZZPSI1IiBtYXJrZXJVbml0cz0idXNlclNwYWNlT25Vc2UiIG1hcmtlcldpZHRoPSIxMiIgbWFya2VySGVpZ2h0PSIxMiIgb3JpZW50PSJhdXRvIj48cGF0aCBkPSJNIDEwIDAgTCAwIDUgTCAxMCAxMCB6Ii8+PC9tYXJrZXI+PC9kZWZzPjxkZWZzPjxtYXJrZXIgaWQ9ImNyb3NzaGVhZCIgbWFya2VyV2lkdGg9IjE1IiBtYXJrZXJIZWlnaHQ9IjgiIG9yaWVudD0iYXV0byIgcmVmWD0iMTYiIHJlZlk9IjQiPjxwYXRoIGZpbGw9ImJsYWNrIiBzdHJva2U9IiMwMDAwMDAiIHN0cm9rZS13aWR0aD0iMXB4IiBkPSJNIDksMiBWIDYgTDE2LDQgWiIgc3R5bGU9InN0cm9rZS1kYXNoYXJyYXk6IDAsIDA7Ii8+PHBhdGggZmlsbD0ibm9uZSIgc3Ryb2tlPSIjMDAwMDAwIiBzdHJva2Utd2lkdGg9IjFweCIgZD0iTSAwLDEgTCA2LDcgTSA2LDEgTCAwLDciIHN0eWxlPSJzdHJva2UtZGFzaGFycmF5OiAwLCAwOyIvPjwvbWFya2VyPjwvZGVmcz48ZGVmcz48bWFya2VyIGlkPSJmaWxsZWQtaGVhZCIgcmVmWD0iMTgiIHJlZlk9IjciIG1hcmtlcldpZHRoPSIyMCIgbWFya2VySGVpZ2h0PSIyOCIgb3JpZW50PSJhdXRvIj48cGF0aCBkPSJNIDE4LDcgTDksMTMgTDE0LDcgTDksMSBaIi8+PC9tYXJrZXI+PC9kZWZzPjxnIHN0eWxlPSJ0cmFuc2Zvcm06IG1hdHJpeCgwLjIwNjgyOCwgMCwgMCwgMC4yMDY4MjgsIDQ0LjE5NjEsIDI4LjAwMzIpOyIgdHJhbnNmb3JtPSJtYXRyaXgoMC4yMDY4Mjc4OTI0NzU3NjkzLDAsMCwwLjIwNjgyNzg5MjQ3NTc2OTMsNDQuMTk2MDkwMDIzMTgyMjQ0LDI4LjAwMzE3MzM4MTI3NDE3NykiIGNsYXNzPSJzdmctcGFuLXpvb21fdmlld3BvcnQiIGlkPSJ2aWV3cG9ydC0yMDI1MDUwMjAyMjIyMzI2NSI+PHN0eWxlPiNncmFwaC0xMDN7Zm9udC1mYW1pbHk6InRyZWJ1Y2hldCBtcyIsdmVyZGFuYSxhcmlhbCxzYW5zLXNlcmlmO2ZvbnQtc2l6ZToxNnB4O2ZpbGw6IzMzMzt9QGtleWZyYW1lcyBlZGdlLWFuaW1hdGlvbi1mcmFtZXtmcm9te3N0cm9rZS1kYXNob2Zmc2V0OjA7fX1Aa2V5ZnJhbWVzIGRhc2h7dG97c3Ryb2tlLWRhc2hvZmZzZXQ6MDt9fSNncmFwaC0xMDMgLmVkZ2UtYW5pbWF0aW9uLXNsb3d7c3Ryb2tlLWRhc2hhcnJheTo5LDUhaW1wb3J0YW50O3N0cm9rZS1kYXNob2Zmc2V0OjkwMDthbmltYXRpb246ZGFzaCA1MHMgbGluZWFyIGluZmluaXRlO3N0cm9rZS1saW5lY2FwOnJvdW5kO30jZ3JhcGgtMTAzIC5lZGdlLWFuaW1hdGlvbi1mYXN0e3N0cm9rZS1kYXNoYXJyYXk6OSw1IWltcG9ydGFudDtzdHJva2UtZGFzaG9mZnNldDo5MDA7YW5pbWF0aW9uOmRhc2ggMjBzIGxpbmVhciBpbmZpbml0ZTtzdHJva2UtbGluZWNhcDpyb3VuZDt9I2dyYXBoLTEwMyAuZXJyb3ItaWNvbntmaWxsOiM1NTIyMjI7fSNncmFwaC0xMDMgLmVycm9yLXRleHR7ZmlsbDojNTUyMjIyO3N0cm9rZTojNTUyMjIyO30jZ3JhcGgtMTAzIC5lZGdlLXRoaWNrbmVzcy1ub3JtYWx7c3Ryb2tlLXdpZHRoOjFweDt9I2dyYXBoLTEwMyAuZWRnZS10aGlja25lc3MtdGhpY2t7c3Ryb2tlLXdpZHRoOjMuNXB4O30jZ3JhcGgtMTAzIC5lZGdlLXBhdHRlcm4tc29saWR7c3Ryb2tlLWRhc2hhcnJheTowO30jZ3JhcGgtMTAzIC5lZGdlLXRoaWNrbmVzcy1pbnZpc2libGV7c3Ryb2tlLXdpZHRoOjA7ZmlsbDpub25lO30jZ3JhcGgtMTAzIC5lZGdlLXBhdHRlcm4tZGFzaGVke3N0cm9rZS1kYXNoYXJyYXk6Mzt9I2dyYXBoLTEwMyAuZWRnZS1wYXR0ZXJuLWRvdHRlZHtzdHJva2UtZGFzaGFycmF5OjI7fSNncmFwaC0xMDMgLm1hcmtlcntmaWxsOiMzMzMzMzM7c3Ryb2tlOiMzMzMzMzM7fSNncmFwaC0xMDMgLm1hcmtlci5jcm9zc3tzdHJva2U6IzMzMzMzMzt9I2dyYXBoLTEwMyBzdmd7Zm9udC1mYW1pbHk6InRyZWJ1Y2hldCBtcyIsdmVyZGFuYSxhcmlhbCxzYW5zLXNlcmlmO2ZvbnQtc2l6ZToxNnB4O30jZ3JhcGgtMTAzIHB7bWFyZ2luOjA7fSNncmFwaC0xMDMgLnBlcnNvbntzdHJva2U6aHNsKDI0MCwgNjAlLCA4Ni4yNzQ1MDk4MDM5JSk7ZmlsbDojRUNFQ0ZGO30jZ3JhcGgtMTAzIDpyb290ey0tbWVybWFpZC1mb250LWZhbWlseToidHJlYnVjaGV0IG1zIix2ZXJkYW5hLGFyaWFsLHNhbnMtc2VyaWY7fTwvc3R5bGU+PGcvPjxnIGNsYXNzPSJwZXJzb24tbWFuIj48cmVjdCB4PSIyMDAiIHk9IjIyMiIgZmlsbD0iI0M3RTlCMCIgc3Ryb2tlPSIjNzhBOEQ4IiB3aWR0aD0iMzYyIiBoZWlnaHQ9IjEwNSIgcng9IjIuNSIgcnk9IjIuNSIgc3Ryb2tlLXdpZHRoPSIwLjUiLz48dGV4dCBmaWxsPSIjRkZGRkZGIiBmb250LWZhbWlseT0iJnF1b3Q7T3BlbiBTYW5zJnF1b3Q7LCBzYW5zLXNlcmlmIiBmb250LXNpemU9IjEyIiBmb250LXN0eWxlPSJpdGFsaWMiIGxlbmd0aEFkanVzdD0ic3BhY2luZyIgdGV4dExlbmd0aD0iNzMiIHg9IjM0NC41IiB5PSIyNDIiPiZsdDsmbHQ7Y29tcG9uZW50Jmd0OyZndDs8L3RleHQ+PHRleHQgeD0iMzgxIiB5PSIyNjAiIGZpbGw9IiNGRkZGRkYiIHN0eWxlPSJ0ZXh0LWFuY2hvcjogbWlkZGxlOyBmb250LXNpemU6IDE2cHg7IGZvbnQtd2VpZ2h0OiBib2xkOyBmb250LWZhbWlseTogJnF1b3Q7T3BlbiBTYW5zJnF1b3Q7LCBzYW5zLXNlcmlmOyI+PHRzcGFuIGR5PSIwIiBhbGlnbm1lbnQtYmFzZWxpbmU9Im1hdGhlbWF0aWNhbCI+RmFjaGFkYTwvdHNwYW4+PC90ZXh0Pjx0ZXh0IHg9IjM4MSIgeT0iMjgyIiBmaWxsPSIjRkZGRkZGIiBmb250LXN0eWxlPSJpdGFsaWMiIHN0eWxlPSJ0ZXh0LWFuY2hvcjogbWlkZGxlOyBmb250LXNpemU6IDE0cHg7IGZvbnQtd2VpZ2h0OiBub3JtYWw7IGZvbnQtZmFtaWx5OiAmcXVvdDtPcGVuIFNhbnMmcXVvdDssIHNhbnMtc2VyaWY7Ij48dHNwYW4gZHk9IjAiIGFsaWdubWVudC1iYXNlbGluZT0ibWF0aGVtYXRpY2FsIj5bU2luZ2xldG9uXTwvdHNwYW4+PC90ZXh0Pjx0ZXh0IHg9IjM4MSIgeT0iMzE2IiBmaWxsPSIjRkZGRkZGIiBzdHlsZT0idGV4dC1hbmNob3I6IG1pZGRsZTsgZm9udC1zaXplOiAxNHB4OyBmb250LXdlaWdodDogbm9ybWFsOyBmb250LWZhbWlseTogJnF1b3Q7T3BlbiBTYW5zJnF1b3Q7LCBzYW5zLXNlcmlmOyI+PHRzcGFuIGR5PSIwIiBhbGlnbm1lbnQtYmFzZWxpbmU9Im1hdGhlbWF0aWNhbCI+UHJvdsOqIGludGVyZmFjZSBzaW1wbGlmaWNhZGEgcGFyYSB0b2RvcyBvcyBzdWJzaXN0ZW1hczwvdHNwYW4+PC90ZXh0PjwvZz48Zz48cmVjdCB4PSIxNTAiIHk9IjEyMiIgZmlsbD0ibm9uZSIgc3Ryb2tlPSIjNDQ0NDQ0IiB3aWR0aD0iNDYyIiBoZWlnaHQ9IjI1NSIgcng9IjIuNSIgcnk9IjIuNSIgc3Ryb2tlLXdpZHRoPSIxIiBzdHJva2UtZGFzaGFycmF5PSI3LjAsNy4wIi8+PHRleHQgeD0iMzgxIiB5PSIxMzAiIGZpbGw9IiM0NDQ0NDQiIHN0eWxlPSJ0ZXh0LWFuY2hvcjogbWlkZGxlOyBmb250LXNpemU6IDE2cHg7IGZvbnQtd2VpZ2h0OiBib2xkOyBmb250LWZhbWlseTogJnF1b3Q7T3BlbiBTYW5zJnF1b3Q7LCBzYW5zLXNlcmlmOyI+PHRzcGFuIGR5PSIwIiBhbGlnbm1lbnQtYmFzZWxpbmU9Im1hdGhlbWF0aWNhbCI+RmFjYWRlICZhbXA7IFNpbmdsZXRvbjwvdHNwYW4+PC90ZXh0Pjx0ZXh0IHg9IjM4MSIgeT0iMTUyIiBmaWxsPSIjNDQ0NDQ0IiBzdHlsZT0idGV4dC1hbmNob3I6IG1pZGRsZTsgZm9udC1zaXplOiAxNHB4OyBmb250LXdlaWdodDogbm9ybWFsOyBmb250LWZhbWlseTogJnF1b3Q7T3BlbiBTYW5zJnF1b3Q7LCBzYW5zLXNlcmlmOyI+PHRzcGFuIGR5PSIwIiBhbGlnbm1lbnQtYmFzZWxpbmU9Im1hdGhlbWF0aWNhbCI+W0NPTlRBSU5FUl08L3RzcGFuPjwvdGV4dD48L2c+PGcgY2xhc3M9InBlcnNvbi1tYW4iPjxyZWN0IHg9IjcxMiIgeT0iMjIyIiBmaWxsPSIjQjlEQ0ZGIiBzdHJva2U9IiM3OEE4RDgiIHdpZHRoPSIyNTAiIGhlaWdodD0iMTA1IiByeD0iMi41IiByeT0iMi41IiBzdHJva2Utd2lkdGg9IjAuNSIvPjx0ZXh0IGZpbGw9IiNGRkZGRkYiIGZvbnQtZmFtaWx5PSImcXVvdDtPcGVuIFNhbnMmcXVvdDssIHNhbnMtc2VyaWYiIGZvbnQtc2l6ZT0iMTIiIGZvbnQtc3R5bGU9Iml0YWxpYyIgbGVuZ3RoQWRqdXN0PSJzcGFjaW5nIiB0ZXh0TGVuZ3RoPSI3MyIgeD0iODAwLjUiIHk9IjI0MiI+Jmx0OyZsdDtjb21wb25lbnQmZ3Q7Jmd0OzwvdGV4dD48dGV4dCB4PSI4MzciIHk9IjI2MCIgZmlsbD0iI0ZGRkZGRiIgc3R5bGU9InRleHQtYW5jaG9yOiBtaWRkbGU7IGZvbnQtc2l6ZTogMTZweDsgZm9udC13ZWlnaHQ6IGJvbGQ7IGZvbnQtZmFtaWx5OiAmcXVvdDtPcGVuIFNhbnMmcXVvdDssIHNhbnMtc2VyaWY7Ij48dHNwYW4gZHk9IjAiIGFsaWdubWVudC1iYXNlbGluZT0ibWF0aGVtYXRpY2FsIj5EQU9GYWN0b3J5PC90c3Bhbj48L3RleHQ+PHRleHQgeD0iODM3IiB5PSIyODIiIGZpbGw9IiNGRkZGRkYiIGZvbnQtc3R5bGU9Iml0YWxpYyIgc3R5bGU9InRleHQtYW5jaG9yOiBtaWRkbGU7IGZvbnQtc2l6ZTogMTRweDsgZm9udC13ZWlnaHQ6IG5vcm1hbDsgZm9udC1mYW1pbHk6ICZxdW90O09wZW4gU2FucyZxdW90Oywgc2Fucy1zZXJpZjsiPjx0c3BhbiBkeT0iMCIgYWxpZ25tZW50LWJhc2VsaW5lPSJtYXRoZW1hdGljYWwiPltBYnN0cmFjdCBGYWN0b3J5XTwvdHNwYW4+PC90ZXh0Pjx0ZXh0IHg9IjgzNyIgeT0iMzE2IiBmaWxsPSIjRkZGRkZGIiBzdHlsZT0idGV4dC1hbmNob3I6IG1pZGRsZTsgZm9udC1zaXplOiAxNHB4OyBmb250LXdlaWdodDogbm9ybWFsOyBmb250LWZhbWlseTogJnF1b3Q7T3BlbiBTYW5zJnF1b3Q7LCBzYW5zLXNlcmlmOyI+PHRzcGFuIGR5PSIwIiBhbGlnbm1lbnQtYmFzZWxpbmU9Im1hdGhlbWF0aWNhbCI+SW50ZXJmYWNlIHBhcmEgY3JpYXIgZmFtw61saWFzIGRlIERBT3M8L3RzcGFuPjwvdGV4dD48L2c+PGcgY2xhc3M9InBlcnNvbi1tYW4iPjxyZWN0IHg9IjcxMiIgeT0iNDI3IiBmaWxsPSIjQjlEQ0ZGIiBzdHJva2U9IiM3OEE4RDgiIHdpZHRoPSIyNzkiIGhlaWdodD0iMTA1IiByeD0iMi41IiByeT0iMi41IiBzdHJva2Utd2lkdGg9IjAuNSIvPjx0ZXh0IGZpbGw9IiNGRkZGRkYiIGZvbnQtZmFtaWx5PSImcXVvdDtPcGVuIFNhbnMmcXVvdDssIHNhbnMtc2VyaWYiIGZvbnQtc2l6ZT0iMTIiIGZvbnQtc3R5bGU9Iml0YWxpYyIgbGVuZ3RoQWRqdXN0PSJzcGFjaW5nIiB0ZXh0TGVuZ3RoPSI3MyIgeD0iODE1IiB5PSI0NDciPiZsdDsmbHQ7Y29tcG9uZW50Jmd0OyZndDs8L3RleHQ+PHRleHQgeD0iODUxLjUiIHk9IjQ2NSIgZmlsbD0iI0ZGRkZGRiIgc3R5bGU9InRleHQtYW5jaG9yOiBtaWRkbGU7IGZvbnQtc2l6ZTogMTZweDsgZm9udC13ZWlnaHQ6IGJvbGQ7IGZvbnQtZmFtaWx5OiAmcXVvdDtPcGVuIFNhbnMmcXVvdDssIHNhbnMtc2VyaWY7Ij48dHNwYW4gZHk9IjAiIGFsaWdubWVudC1iYXNlbGluZT0ibWF0aGVtYXRpY2FsIj5NZW1vcmlhREFPRmFjdG9yeTwvdHNwYW4+PC90ZXh0Pjx0ZXh0IHg9Ijg1MS41IiB5PSI0ODciIGZpbGw9IiNGRkZGRkYiIGZvbnQtc3R5bGU9Iml0YWxpYyIgc3R5bGU9InRleHQtYW5jaG9yOiBtaWRkbGU7IGZvbnQtc2l6ZTogMTRweDsgZm9udC13ZWlnaHQ6IG5vcm1hbDsgZm9udC1mYW1pbHk6ICZxdW90O09wZW4gU2FucyZxdW90Oywgc2Fucy1zZXJpZjsiPjx0c3BhbiBkeT0iMCIgYWxpZ25tZW50LWJhc2VsaW5lPSJtYXRoZW1hdGljYWwiPltDb25jcmV0ZSBGYWN0b3J5XTwvdHNwYW4+PC90ZXh0Pjx0ZXh0IHg9Ijg1MS41IiB5PSI1MjEiIGZpbGw9IiNGRkZGRkYiIHN0eWxlPSJ0ZXh0LWFuY2hvcjogbWlkZGxlOyBmb250LXNpemU6IDE0cHg7IGZvbnQtd2VpZ2h0OiBub3JtYWw7IGZvbnQtZmFtaWx5OiAmcXVvdDtPcGVuIFNhbnMmcXVvdDssIHNhbnMtc2VyaWY7Ij48dHNwYW4gZHk9IjAiIGFsaWdubWVudC1iYXNlbGluZT0ibWF0aGVtYXRpY2FsIj5DcmlhIERBT3MgcGFyYSBwZXJzaXN0w6puY2lhIGVtIG1lbcOzcmlhPC90c3Bhbj48L3RleHQ+PC9nPjxnIGNsYXNzPSJwZXJzb24tbWFuIj48cmVjdCB4PSI3MTIiIHk9IjYzMiIgZmlsbD0iI0I5RENGRiIgc3Ryb2tlPSIjNzhBOEQ4IiB3aWR0aD0iMjcxIiBoZWlnaHQ9IjEwNSIgcng9IjIuNSIgcnk9IjIuNSIgc3Ryb2tlLXdpZHRoPSIwLjUiLz48dGV4dCBmaWxsPSIjRkZGRkZGIiBmb250LWZhbWlseT0iJnF1b3Q7T3BlbiBTYW5zJnF1b3Q7LCBzYW5zLXNlcmlmIiBmb250LXNpemU9IjEyIiBmb250LXN0eWxlPSJpdGFsaWMiIGxlbmd0aEFkanVzdD0ic3BhY2luZyIgdGV4dExlbmd0aD0iNzMiIHg9IjgxMSIgeT0iNjUyIj4mbHQ7Jmx0O2NvbXBvbmVudCZndDsmZ3Q7PC90ZXh0Pjx0ZXh0IHg9Ijg0Ny41IiB5PSI2NzAiIGZpbGw9IiNGRkZGRkYiIHN0eWxlPSJ0ZXh0LWFuY2hvcjogbWlkZGxlOyBmb250LXNpemU6IDE2cHg7IGZvbnQtd2VpZ2h0OiBib2xkOyBmb250LWZhbWlseTogJnF1b3Q7T3BlbiBTYW5zJnF1b3Q7LCBzYW5zLXNlcmlmOyI+PHRzcGFuIGR5PSIwIiBhbGlnbm1lbnQtYmFzZWxpbmU9Im1hdGhlbWF0aWNhbCI+QXJxdWl2b0RBT0ZhY3Rvcnk8L3RzcGFuPjwvdGV4dD48dGV4dCB4PSI4NDcuNSIgeT0iNjkyIiBmaWxsPSIjRkZGRkZGIiBmb250LXN0eWxlPSJpdGFsaWMiIHN0eWxlPSJ0ZXh0LWFuY2hvcjogbWlkZGxlOyBmb250LXNpemU6IDE0cHg7IGZvbnQtd2VpZ2h0OiBub3JtYWw7IGZvbnQtZmFtaWx5OiAmcXVvdDtPcGVuIFNhbnMmcXVvdDssIHNhbnMtc2VyaWY7Ij48dHNwYW4gZHk9IjAiIGFsaWdubWVudC1iYXNlbGluZT0ibWF0aGVtYXRpY2FsIj5bQ29uY3JldGUgRmFjdG9yeV08L3RzcGFuPjwvdGV4dD48dGV4dCB4PSI4NDcuNSIgeT0iNzI2IiBmaWxsPSIjRkZGRkZGIiBzdHlsZT0idGV4dC1hbmNob3I6IG1pZGRsZTsgZm9udC1zaXplOiAxNHB4OyBmb250LXdlaWdodDogbm9ybWFsOyBmb250LWZhbWlseTogJnF1b3Q7T3BlbiBTYW5zJnF1b3Q7LCBzYW5zLXNlcmlmOyI+PHRzcGFuIGR5PSIwIiBhbGlnbm1lbnQtYmFzZWxpbmU9Im1hdGhlbWF0aWNhbCI+Q3JpYSBEQU9zIHBhcmEgcGVyc2lzdMOqbmNpYSBlbSBhcnF1aXZvPC90c3Bhbj48L3RleHQ+PC9nPjxnPjxyZWN0IHg9IjY2MiIgeT0iMTIyIiBmaWxsPSJub25lIiBzdHJva2U9IiM0NDQ0NDQiIHdpZHRoPSIzNzkiIGhlaWdodD0iNjY1IiByeD0iMi41IiByeT0iMi41IiBzdHJva2Utd2lkdGg9IjEiIHN0cm9rZS1kYXNoYXJyYXk9IjcuMCw3LjAiLz48dGV4dCB4PSI4NTEuNSIgeT0iMTMwIiBmaWxsPSIjNDQ0NDQ0IiBzdHlsZT0idGV4dC1hbmNob3I6IG1pZGRsZTsgZm9udC1zaXplOiAxNnB4OyBmb250LXdlaWdodDogYm9sZDsgZm9udC1mYW1pbHk6ICZxdW90O09wZW4gU2FucyZxdW90Oywgc2Fucy1zZXJpZjsiPjx0c3BhbiBkeT0iMCIgYWxpZ25tZW50LWJhc2VsaW5lPSJtYXRoZW1hdGljYWwiPkZhY3RvcnkgUGF0dGVybnM8L3RzcGFuPjwvdGV4dD48dGV4dCB4PSI4NTEuNSIgeT0iMTUyIiBmaWxsPSIjNDQ0NDQ0IiBzdHlsZT0idGV4dC1hbmNob3I6IG1pZGRsZTsgZm9udC1zaXplOiAxNHB4OyBmb250LXdlaWdodDogbm9ybWFsOyBmb250LWZhbWlseTogJnF1b3Q7T3BlbiBTYW5zJnF1b3Q7LCBzYW5zLXNlcmlmOyI+PHRzcGFuIGR5PSIwIiBhbGlnbm1lbnQtYmFzZWxpbmU9Im1hdGhlbWF0aWNhbCI+W0NPTlRBSU5FUl08L3RzcGFuPjwvdGV4dD48L2c+PGcgY2xhc3M9InBlcnNvbi1tYW4iPjxyZWN0IHg9IjIwMCIgeT0iOTkzIiBmaWxsPSIjRkZEMEIwIiBzdHJva2U9IiM3OEE4RDgiIHdpZHRoPSIyNTIiIGhlaWdodD0iMTA1IiByeD0iMi41IiByeT0iMi41IiBzdHJva2Utd2lkdGg9IjAuNSIvPjx0ZXh0IGZpbGw9IiNGRkZGRkYiIGZvbnQtZmFtaWx5PSImcXVvdDtPcGVuIFNhbnMmcXVvdDssIHNhbnMtc2VyaWYiIGZvbnQtc2l6ZT0iMTIiIGZvbnQtc3R5bGU9Iml0YWxpYyIgbGVuZ3RoQWRqdXN0PSJzcGFjaW5nIiB0ZXh0TGVuZ3RoPSI3MyIgeD0iMjg5LjUiIHk9IjEwMTMiPiZsdDsmbHQ7Y29tcG9uZW50Jmd0OyZndDs8L3RleHQ+PHRleHQgeD0iMzI2IiB5PSIxMDMxIiBmaWxsPSIjRkZGRkZGIiBzdHlsZT0idGV4dC1hbmNob3I6IG1pZGRsZTsgZm9udC1zaXplOiAxNnB4OyBmb250LXdlaWdodDogYm9sZDsgZm9udC1mYW1pbHk6ICZxdW90O09wZW4gU2FucyZxdW90Oywgc2Fucy1zZXJpZjsiPjx0c3BhbiBkeT0iMCIgYWxpZ25tZW50LWJhc2VsaW5lPSJtYXRoZW1hdGljYWwiPkludm9rZXI8L3RzcGFuPjwvdGV4dD48dGV4dCB4PSIzMjYiIHk9IjEwNTMiIGZpbGw9IiNGRkZGRkYiIGZvbnQtc3R5bGU9Iml0YWxpYyIgc3R5bGU9InRleHQtYW5jaG9yOiBtaWRkbGU7IGZvbnQtc2l6ZTogMTRweDsgZm9udC13ZWlnaHQ6IG5vcm1hbDsgZm9udC1mYW1pbHk6ICZxdW90O09wZW4gU2FucyZxdW90Oywgc2Fucy1zZXJpZjsiPjx0c3BhbiBkeT0iMCIgYWxpZ25tZW50LWJhc2VsaW5lPSJtYXRoZW1hdGljYWwiPltDb21tYW5kXTwvdHNwYW4+PC90ZXh0Pjx0ZXh0IHg9IjMyNiIgeT0iMTA4NyIgZmlsbD0iI0ZGRkZGRiIgc3R5bGU9InRleHQtYW5jaG9yOiBtaWRkbGU7IGZvbnQtc2l6ZTogMTRweDsgZm9udC13ZWlnaHQ6IG5vcm1hbDsgZm9udC1mYW1pbHk6ICZxdW90O09wZW4gU2FucyZxdW90Oywgc2Fucy1zZXJpZjsiPjx0c3BhbiBkeT0iMCIgYWxpZ25tZW50LWJhc2VsaW5lPSJtYXRoZW1hdGljYWwiPkludm9jYSBjb21hbmRvcyBlIG1hbnTDqW0gaGlzdMOzcmljbzwvdHNwYW4+PC90ZXh0PjwvZz48ZyBjbGFzcz0icGVyc29uLW1hbiI+PHJlY3QgeD0iMjAwIiB5PSIxMTk4IiBmaWxsPSIjRkZEMEIwIiBzdHJva2U9IiM3OEE4RDgiIHdpZHRoPSIyMzIiIGhlaWdodD0iMTA1IiByeD0iMi41IiByeT0iMi41IiBzdHJva2Utd2lkdGg9IjAuNSIvPjx0ZXh0IGZpbGw9IiNGRkZGRkYiIGZvbnQtZmFtaWx5PSImcXVvdDtPcGVuIFNhbnMmcXVvdDssIHNhbnMtc2VyaWYiIGZvbnQtc2l6ZT0iMTIiIGZvbnQtc3R5bGU9Iml0YWxpYyIgbGVuZ3RoQWRqdXN0PSJzcGFjaW5nIiB0ZXh0TGVuZ3RoPSI3MyIgeD0iMjc5LjUiIHk9IjEyMTgiPiZsdDsmbHQ7Y29tcG9uZW50Jmd0OyZndDs8L3RleHQ+PHRleHQgeD0iMzE2IiB5PSIxMjM2IiBmaWxsPSIjRkZGRkZGIiBzdHlsZT0idGV4dC1hbmNob3I6IG1pZGRsZTsgZm9udC1zaXplOiAxNnB4OyBmb250LXdlaWdodDogYm9sZDsgZm9udC1mYW1pbHk6ICZxdW90O09wZW4gU2FucyZxdW90Oywgc2Fucy1zZXJpZjsiPjx0c3BhbiBkeT0iMCIgYWxpZ25tZW50LWJhc2VsaW5lPSJtYXRoZW1hdGljYWwiPkNvbWFuZG88L3RzcGFuPjwvdGV4dD48dGV4dCB4PSIzMTYiIHk9IjEyNTgiIGZpbGw9IiNGRkZGRkYiIGZvbnQtc3R5bGU9Iml0YWxpYyIgc3R5bGU9InRleHQtYW5jaG9yOiBtaWRkbGU7IGZvbnQtc2l6ZTogMTRweDsgZm9udC13ZWlnaHQ6IG5vcm1hbDsgZm9udC1mYW1pbHk6ICZxdW90O09wZW4gU2FucyZxdW90Oywgc2Fucy1zZXJpZjsiPjx0c3BhbiBkeT0iMCIgYWxpZ25tZW50LWJhc2VsaW5lPSJtYXRoZW1hdGljYWwiPltJbnRlcmZhY2VdPC90c3Bhbj48L3RleHQ+PHRleHQgeD0iMzE2IiB5PSIxMjkyIiBmaWxsPSIjRkZGRkZGIiBzdHlsZT0idGV4dC1hbmNob3I6IG1pZGRsZTsgZm9udC1zaXplOiAxNHB4OyBmb250LXdlaWdodDogbm9ybWFsOyBmb250LWZhbWlseTogJnF1b3Q7T3BlbiBTYW5zJnF1b3Q7LCBzYW5zLXNlcmlmOyI+PHRzcGFuIGR5PSIwIiBhbGlnbm1lbnQtYmFzZWxpbmU9Im1hdGhlbWF0aWNhbCI+SW50ZXJmYWNlIHBhcmEgdG9kb3Mgb3MgY29tYW5kb3M8L3RzcGFuPjwvdGV4dD48L2c+PGcgY2xhc3M9InBlcnNvbi1tYW4iPjxyZWN0IHg9IjIwMCIgeT0iMTQwMyIgZmlsbD0iI0ZGRDBCMCIgc3Ryb2tlPSIjNzhBOEQ4IiB3aWR0aD0iMzI1IiBoZWlnaHQ9IjEwNSIgcng9IjIuNSIgcnk9IjIuNSIgc3Ryb2tlLXdpZHRoPSIwLjUiLz48dGV4dCBmaWxsPSIjRkZGRkZGIiBmb250LWZhbWlseT0iJnF1b3Q7T3BlbiBTYW5zJnF1b3Q7LCBzYW5zLXNlcmlmIiBmb250LXNpemU9IjEyIiBmb250LXN0eWxlPSJpdGFsaWMiIGxlbmd0aEFkanVzdD0ic3BhY2luZyIgdGV4dExlbmd0aD0iNzMiIHg9IjMyNiIgeT0iMTQyMyI+Jmx0OyZsdDtjb21wb25lbnQmZ3Q7Jmd0OzwvdGV4dD48dGV4dCB4PSIzNjIuNSIgeT0iMTQ0MSIgZmlsbD0iI0ZGRkZGRiIgc3R5bGU9InRleHQtYW5jaG9yOiBtaWRkbGU7IGZvbnQtc2l6ZTogMTZweDsgZm9udC13ZWlnaHQ6IGJvbGQ7IGZvbnQtZmFtaWx5OiAmcXVvdDtPcGVuIFNhbnMmcXVvdDssIHNhbnMtc2VyaWY7Ij48dHNwYW4gZHk9IjAiIGFsaWdubWVudC1iYXNlbGluZT0ibWF0aGVtYXRpY2FsIj5Db21hbmRvcyBDb25jcmV0b3M8L3RzcGFuPjwvdGV4dD48dGV4dCB4PSIzNjIuNSIgeT0iMTQ2MyIgZmlsbD0iI0ZGRkZGRiIgZm9udC1zdHlsZT0iaXRhbGljIiBzdHlsZT0idGV4dC1hbmNob3I6IG1pZGRsZTsgZm9udC1zaXplOiAxNHB4OyBmb250LXdlaWdodDogbm9ybWFsOyBmb250LWZhbWlseTogJnF1b3Q7T3BlbiBTYW5zJnF1b3Q7LCBzYW5zLXNlcmlmOyI+PHRzcGFuIGR5PSIwIiBhbGlnbm1lbnQtYmFzZWxpbmU9Im1hdGhlbWF0aWNhbCI+W0ltcGxlbWVudGHDp8O1ZXNdPC90c3Bhbj48L3RleHQ+PHRleHQgeD0iMzYyLjUiIHk9IjE0OTciIGZpbGw9IiNGRkZGRkYiIHN0eWxlPSJ0ZXh0LWFuY2hvcjogbWlkZGxlOyBmb250LXNpemU6IDE0cHg7IGZvbnQtd2VpZ2h0OiBub3JtYWw7IGZvbnQtZmFtaWx5OiAmcXVvdDtPcGVuIFNhbnMmcXVvdDssIHNhbnMtc2VyaWY7Ij48dHNwYW4gZHk9IjAiIGFsaWdubWVudC1iYXNlbGluZT0ibWF0aGVtYXRpY2FsIj5JbXBsZW1lbnRhw6fDtWVzIGVzcGVjw61maWNhcyBwYXJhIGNhZGEgb3BlcmHDp8OjbzwvdHNwYW4+PC90ZXh0PjwvZz48Zz48cmVjdCB4PSIxNTAiIHk9Ijg5MyIgZmlsbD0ibm9uZSIgc3Ryb2tlPSIjNDQ0NDQ0IiB3aWR0aD0iNDI1IiBoZWlnaHQ9IjY2NSIgcng9IjIuNSIgcnk9IjIuNSIgc3Ryb2tlLXdpZHRoPSIxIiBzdHJva2UtZGFzaGFycmF5PSI3LjAsNy4wIi8+PHRleHQgeD0iMzYyLjUiIHk9IjkwMSIgZmlsbD0iIzQ0NDQ0NCIgc3R5bGU9InRleHQtYW5jaG9yOiBtaWRkbGU7IGZvbnQtc2l6ZTogMTZweDsgZm9udC13ZWlnaHQ6IGJvbGQ7IGZvbnQtZmFtaWx5OiAmcXVvdDtPcGVuIFNhbnMmcXVvdDssIHNhbnMtc2VyaWY7Ij48dHNwYW4gZHk9IjAiIGFsaWdubWVudC1iYXNlbGluZT0ibWF0aGVtYXRpY2FsIj5Db21tYW5kIFBhdHRlcm48L3RzcGFuPjwvdGV4dD48dGV4dCB4PSIzNjIuNSIgeT0iOTIzIiBmaWxsPSIjNDQ0NDQ0IiBzdHlsZT0idGV4dC1hbmNob3I6IG1pZGRsZTsgZm9udC1zaXplOiAxNHB4OyBmb250LXdlaWdodDogbm9ybWFsOyBmb250LWZhbWlseTogJnF1b3Q7T3BlbiBTYW5zJnF1b3Q7LCBzYW5zLXNlcmlmOyI+PHRzcGFuIGR5PSIwIiBhbGlnbm1lbnQtYmFzZWxpbmU9Im1hdGhlbWF0aWNhbCI+W0NPTlRBSU5FUl08L3RzcGFuPjwvdGV4dD48L2c+PGcgY2xhc3M9InBlcnNvbi1tYW4iPjxyZWN0IHg9IjY3NSIgeT0iOTkzIiBmaWxsPSIjRkZCMEUwIiBzdHJva2U9IiM3OEE4RDgiIHdpZHRoPSIyMjciIGhlaWdodD0iMTA1IiByeD0iMi41IiByeT0iMi41IiBzdHJva2Utd2lkdGg9IjAuNSIvPjx0ZXh0IGZpbGw9IiNGRkZGRkYiIGZvbnQtZmFtaWx5PSImcXVvdDtPcGVuIFNhbnMmcXVvdDssIHNhbnMtc2VyaWYiIGZvbnQtc2l6ZT0iMTIiIGZvbnQtc3R5bGU9Iml0YWxpYyIgbGVuZ3RoQWRqdXN0PSJzcGFjaW5nIiB0ZXh0TGVuZ3RoPSI3MyIgeD0iNzUyIiB5PSIxMDEzIj4mbHQ7Jmx0O2NvbXBvbmVudCZndDsmZ3Q7PC90ZXh0Pjx0ZXh0IHg9Ijc4OC41IiB5PSIxMDMxIiBmaWxsPSIjRkZGRkZGIiBzdHlsZT0idGV4dC1hbmNob3I6IG1pZGRsZTsgZm9udC1zaXplOiAxNnB4OyBmb250LXdlaWdodDogYm9sZDsgZm9udC1mYW1pbHk6ICZxdW90O09wZW4gU2FucyZxdW90Oywgc2Fucy1zZXJpZjsiPjx0c3BhbiBkeT0iMCIgYWxpZ25tZW50LWJhc2VsaW5lPSJtYXRoZW1hdGljYWwiPkdlcmVuY2lhZG9yIGNvbSBNZW1lbnRvPC90c3Bhbj48L3RleHQ+PHRleHQgeD0iNzg4LjUiIHk9IjEwNTMiIGZpbGw9IiNGRkZGRkYiIGZvbnQtc3R5bGU9Iml0YWxpYyIgc3R5bGU9InRleHQtYW5jaG9yOiBtaWRkbGU7IGZvbnQtc2l6ZTogMTRweDsgZm9udC13ZWlnaHQ6IG5vcm1hbDsgZm9udC1mYW1pbHk6ICZxdW90O09wZW4gU2FucyZxdW90Oywgc2Fucy1zZXJpZjsiPjx0c3BhbiBkeT0iMCIgYWxpZ25tZW50LWJhc2VsaW5lPSJtYXRoZW1hdGljYWwiPltPcmlnaW5hdG9yXTwvdHNwYW4+PC90ZXh0Pjx0ZXh0IHg9Ijc4OC41IiB5PSIxMDg3IiBmaWxsPSIjRkZGRkZGIiBzdHlsZT0idGV4dC1hbmNob3I6IG1pZGRsZTsgZm9udC1zaXplOiAxNHB4OyBmb250LXdlaWdodDogbm9ybWFsOyBmb250LWZhbWlseTogJnF1b3Q7T3BlbiBTYW5zJnF1b3Q7LCBzYW5zLXNlcmlmOyI+PHRzcGFuIGR5PSIwIiBhbGlnbm1lbnQtYmFzZWxpbmU9Im1hdGhlbWF0aWNhbCI+Q3JpYSBlIHJlc3RhdXJhIG1lbWVudG9zPC90c3Bhbj48L3RleHQ+PC9nPjxnIGNsYXNzPSJwZXJzb24tbWFuIj48cmVjdCB4PSI2NzUiIHk9IjExOTgiIGZpbGw9IiNGRkIwRTAiIHN0cm9rZT0iIzc4QThEOCIgd2lkdGg9IjIxNiIgaGVpZ2h0PSIxMDUiIHJ4PSIyLjUiIHJ5PSIyLjUiIHN0cm9rZS13aWR0aD0iMC41Ii8+PHRleHQgZmlsbD0iI0ZGRkZGRiIgZm9udC1mYW1pbHk9IiZxdW90O09wZW4gU2FucyZxdW90Oywgc2Fucy1zZXJpZiIgZm9udC1zaXplPSIxMiIgZm9udC1zdHlsZT0iaXRhbGljIiBsZW5ndGhBZGp1c3Q9InNwYWNpbmciIHRleHRMZW5ndGg9IjczIiB4PSI3NDYuNSIgeT0iMTIxOCI+Jmx0OyZsdDtjb21wb25lbnQmZ3Q7Jmd0OzwvdGV4dD48dGV4dCB4PSI3ODMiIHk9IjEyMzYiIGZpbGw9IiNGRkZGRkYiIHN0eWxlPSJ0ZXh0LWFuY2hvcjogbWlkZGxlOyBmb250LXNpemU6IDE2cHg7IGZvbnQtd2VpZ2h0OiBib2xkOyBmb250LWZhbWlseTogJnF1b3Q7T3BlbiBTYW5zJnF1b3Q7LCBzYW5zLXNlcmlmOyI+PHRzcGFuIGR5PSIwIiBhbGlnbm1lbnQtYmFzZWxpbmU9Im1hdGhlbWF0aWNhbCI+TWVtZW50bzwvdHNwYW4+PC90ZXh0Pjx0ZXh0IHg9Ijc4MyIgeT0iMTI1OCIgZmlsbD0iI0ZGRkZGRiIgZm9udC1zdHlsZT0iaXRhbGljIiBzdHlsZT0idGV4dC1hbmNob3I6IG1pZGRsZTsgZm9udC1zaXplOiAxNHB4OyBmb250LXdlaWdodDogbm9ybWFsOyBmb250LWZhbWlseTogJnF1b3Q7T3BlbiBTYW5zJnF1b3Q7LCBzYW5zLXNlcmlmOyI+PHRzcGFuIGR5PSIwIiBhbGlnbm1lbnQtYmFzZWxpbmU9Im1hdGhlbWF0aWNhbCI+W1N0YXRlIEhvbGRlcl08L3RzcGFuPjwvdGV4dD48dGV4dCB4PSI3ODMiIHk9IjEyOTIiIGZpbGw9IiNGRkZGRkYiIHN0eWxlPSJ0ZXh0LWFuY2hvcjogbWlkZGxlOyBmb250LXNpemU6IDE0cHg7IGZvbnQtd2VpZ2h0OiBub3JtYWw7IGZvbnQtZmFtaWx5OiAmcXVvdDtPcGVuIFNhbnMmcXVvdDssIHNhbnMtc2VyaWY7Ij48dHNwYW4gZHk9IjAiIGFsaWdubWVudC1iYXNlbGluZT0ibWF0aGVtYXRpY2FsIj5Bcm1hemVuYSBlc3RhZG8gZG9zIG9iamV0b3M8L3RzcGFuPjwvdGV4dD48L2c+PGc+PHJlY3QgeD0iNjI1IiB5PSI4OTMiIGZpbGw9Im5vbmUiIHN0cm9rZT0iIzQ0NDQ0NCIgd2lkdGg9IjMyNyIgaGVpZ2h0PSI0NjAiIHJ4PSIyLjUiIHJ5PSIyLjUiIHN0cm9rZS13aWR0aD0iMSIgc3Ryb2tlLWRhc2hhcnJheT0iNy4wLDcuMCIvPjx0ZXh0IHg9Ijc4OC41IiB5PSI5MDEiIGZpbGw9IiM0NDQ0NDQiIHN0eWxlPSJ0ZXh0LWFuY2hvcjogbWlkZGxlOyBmb250LXNpemU6IDE2cHg7IGZvbnQtd2VpZ2h0OiBib2xkOyBmb250LWZhbWlseTogJnF1b3Q7T3BlbiBTYW5zJnF1b3Q7LCBzYW5zLXNlcmlmOyI+PHRzcGFuIGR5PSIwIiBhbGlnbm1lbnQtYmFzZWxpbmU9Im1hdGhlbWF0aWNhbCI+TWVtZW50byBQYXR0ZXJuPC90c3Bhbj48L3RleHQ+PHRleHQgeD0iNzg4LjUiIHk9IjkyMyIgZmlsbD0iIzQ0NDQ0NCIgc3R5bGU9InRleHQtYW5jaG9yOiBtaWRkbGU7IGZvbnQtc2l6ZTogMTRweDsgZm9udC13ZWlnaHQ6IG5vcm1hbDsgZm9udC1mYW1pbHk6ICZxdW90O09wZW4gU2FucyZxdW90Oywgc2Fucy1zZXJpZjsiPjx0c3BhbiBkeT0iMCIgYWxpZ25tZW50LWJhc2VsaW5lPSJtYXRoZW1hdGljYWwiPltDT05UQUlORVJdPC90c3Bhbj48L3RleHQ+PC9nPjxnIGNsYXNzPSJwZXJzb24tbWFuIj48cmVjdCB4PSIyMDAiIHk9IjE3NjQiIGZpbGw9IiNEMEMwRkYiIHN0cm9rZT0iIzc4QThEOCIgd2lkdGg9IjI4OSIgaGVpZ2h0PSIxMDUiIHJ4PSIyLjUiIHJ5PSIyLjUiIHN0cm9rZS13aWR0aD0iMC41Ii8+PHRleHQgZmlsbD0iI0ZGRkZGRiIgZm9udC1mYW1pbHk9IiZxdW90O09wZW4gU2FucyZxdW90Oywgc2Fucy1zZXJpZiIgZm9udC1zaXplPSIxMiIgZm9udC1zdHlsZT0iaXRhbGljIiBsZW5ndGhBZGp1c3Q9InNwYWNpbmciIHRleHRMZW5ndGg9IjczIiB4PSIzMDgiIHk9IjE3ODQiPiZsdDsmbHQ7Y29tcG9uZW50Jmd0OyZndDs8L3RleHQ+PHRleHQgeD0iMzQ0LjUiIHk9IjE4MDIiIGZpbGw9IiNGRkZGRkYiIHN0eWxlPSJ0ZXh0LWFuY2hvcjogbWlkZGxlOyBmb250LXNpemU6IDE2cHg7IGZvbnQtd2VpZ2h0OiBib2xkOyBmb250LWZhbWlseTogJnF1b3Q7T3BlbiBTYW5zJnF1b3Q7LCBzYW5zLXNlcmlmOyI+PHRzcGFuIGR5PSIwIiBhbGlnbm1lbnQtYmFzZWxpbmU9Im1hdGhlbWF0aWNhbCI+UmVsYXRvcmlvVGVtcGxhdGU8L3RzcGFuPjwvdGV4dD48dGV4dCB4PSIzNDQuNSIgeT0iMTgyNCIgZmlsbD0iI0ZGRkZGRiIgZm9udC1zdHlsZT0iaXRhbGljIiBzdHlsZT0idGV4dC1hbmNob3I6IG1pZGRsZTsgZm9udC1zaXplOiAxNHB4OyBmb250LXdlaWdodDogbm9ybWFsOyBmb250LWZhbWlseTogJnF1b3Q7T3BlbiBTYW5zJnF1b3Q7LCBzYW5zLXNlcmlmOyI+PHRzcGFuIGR5PSIwIiBhbGlnbm1lbnQtYmFzZWxpbmU9Im1hdGhlbWF0aWNhbCI+W0Fic3RyYWN0IENsYXNzXTwvdHNwYW4+PC90ZXh0Pjx0ZXh0IHg9IjM0NC41IiB5PSIxODU4IiBmaWxsPSIjRkZGRkZGIiBzdHlsZT0idGV4dC1hbmNob3I6IG1pZGRsZTsgZm9udC1zaXplOiAxNHB4OyBmb250LXdlaWdodDogbm9ybWFsOyBmb250LWZhbWlseTogJnF1b3Q7T3BlbiBTYW5zJnF1b3Q7LCBzYW5zLXNlcmlmOyI+PHRzcGFuIGR5PSIwIiBhbGlnbm1lbnQtYmFzZWxpbmU9Im1hdGhlbWF0aWNhbCI+RGVmaW5lIGFsZ29yaXRtbyBwYXJhIGdlcmHDp8OjbyBkZSByZWxhdMOzcmlvczwvdHNwYW4+PC90ZXh0PjwvZz48ZyBjbGFzcz0icGVyc29uLW1hbiI+PHJlY3QgeD0iMjAwIiB5PSIxOTY5IiBmaWxsPSIjRDBDMEZGIiBzdHJva2U9IiM3OEE4RDgiIHdpZHRoPSIzMDgiIGhlaWdodD0iMTA1IiByeD0iMi41IiByeT0iMi41IiBzdHJva2Utd2lkdGg9IjAuNSIvPjx0ZXh0IGZpbGw9IiNGRkZGRkYiIGZvbnQtZmFtaWx5PSImcXVvdDtPcGVuIFNhbnMmcXVvdDssIHNhbnMtc2VyaWYiIGZvbnQtc2l6ZT0iMTIiIGZvbnQtc3R5bGU9Iml0YWxpYyIgbGVuZ3RoQWRqdXN0PSJzcGFjaW5nIiB0ZXh0TGVuZ3RoPSI3MyIgeD0iMzE3LjUiIHk9IjE5ODkiPiZsdDsmbHQ7Y29tcG9uZW50Jmd0OyZndDs8L3RleHQ+PHRleHQgeD0iMzU0IiB5PSIyMDA3IiBmaWxsPSIjRkZGRkZGIiBzdHlsZT0idGV4dC1hbmNob3I6IG1pZGRsZTsgZm9udC1zaXplOiAxNnB4OyBmb250LXdlaWdodDogYm9sZDsgZm9udC1mYW1pbHk6ICZxdW90O09wZW4gU2FucyZxdW90Oywgc2Fucy1zZXJpZjsiPjx0c3BhbiBkeT0iMCIgYWxpZ25tZW50LWJhc2VsaW5lPSJtYXRoZW1hdGljYWwiPlJlbGF0w7NyaW9zIENvbmNyZXRvczwvdHNwYW4+PC90ZXh0Pjx0ZXh0IHg9IjM1NCIgeT0iMjAyOSIgZmlsbD0iI0ZGRkZGRiIgZm9udC1zdHlsZT0iaXRhbGljIiBzdHlsZT0idGV4dC1hbmNob3I6IG1pZGRsZTsgZm9udC1zaXplOiAxNHB4OyBmb250LXdlaWdodDogbm9ybWFsOyBmb250LWZhbWlseTogJnF1b3Q7T3BlbiBTYW5zJnF1b3Q7LCBzYW5zLXNlcmlmOyI+PHRzcGFuIGR5PSIwIiBhbGlnbm1lbnQtYmFzZWxpbmU9Im1hdGhlbWF0aWNhbCI+W0ltcGxlbWVudGHDp8O1ZXNdPC90c3Bhbj48L3RleHQ+PHRleHQgeD0iMzU0IiB5PSIyMDYzIiBmaWxsPSIjRkZGRkZGIiBzdHlsZT0idGV4dC1hbmNob3I6IG1pZGRsZTsgZm9udC1zaXplOiAxNHB4OyBmb250LXdlaWdodDogbm9ybWFsOyBmb250LWZhbWlseTogJnF1b3Q7T3BlbiBTYW5zJnF1b3Q7LCBzYW5zLXNlcmlmOyI+PHRzcGFuIGR5PSIwIiBhbGlnbm1lbnQtYmFzZWxpbmU9Im1hdGhlbWF0aWNhbCI+SW1wbGVtZW50YW0gcGFzc29zIGVzcGVjw61maWNvcyBkbyBhbGdvcml0bW88L3RzcGFuPjwvdGV4dD48L2c+PGc+PHJlY3QgeD0iMTUwIiB5PSIxNjY0IiBmaWxsPSJub25lIiBzdHJva2U9IiM0NDQ0NDQiIHdpZHRoPSI0MDgiIGhlaWdodD0iNDYwIiByeD0iMi41IiByeT0iMi41IiBzdHJva2Utd2lkdGg9IjEiIHN0cm9rZS1kYXNoYXJyYXk9IjcuMCw3LjAiLz48dGV4dCB4PSIzNTQiIHk9IjE2NzIiIGZpbGw9IiM0NDQ0NDQiIHN0eWxlPSJ0ZXh0LWFuY2hvcjogbWlkZGxlOyBmb250LXNpemU6IDE2cHg7IGZvbnQtd2VpZ2h0OiBib2xkOyBmb250LWZhbWlseTogJnF1b3Q7T3BlbiBTYW5zJnF1b3Q7LCBzYW5zLXNlcmlmOyI+PHRzcGFuIGR5PSIwIiBhbGlnbm1lbnQtYmFzZWxpbmU9Im1hdGhlbWF0aWNhbCI+VGVtcGxhdGUgTWV0aG9kPC90c3Bhbj48L3RleHQ+PHRleHQgeD0iMzU0IiB5PSIxNjk0IiBmaWxsPSIjNDQ0NDQ0IiBzdHlsZT0idGV4dC1hbmNob3I6IG1pZGRsZTsgZm9udC1zaXplOiAxNHB4OyBmb250LXdlaWdodDogbm9ybWFsOyBmb250LWZhbWlseTogJnF1b3Q7T3BlbiBTYW5zJnF1b3Q7LCBzYW5zLXNlcmlmOyI+PHRzcGFuIGR5PSIwIiBhbGlnbm1lbnQtYmFzZWxpbmU9Im1hdGhlbWF0aWNhbCI+W0NPTlRBSU5FUl08L3RzcGFuPjwvdGV4dD48L2c+PGcgY2xhc3M9InBlcnNvbi1tYW4iPjxyZWN0IHg9IjY1OCIgeT0iMTc2NCIgZmlsbD0iI0MwRjdGRiIgc3Ryb2tlPSIjNzhBOEQ4IiB3aWR0aD0iMjY2IiBoZWlnaHQ9IjEwNSIgcng9IjIuNSIgcnk9IjIuNSIgc3Ryb2tlLXdpZHRoPSIwLjUiLz48dGV4dCBmaWxsPSIjRkZGRkZGIiBmb250LWZhbWlseT0iJnF1b3Q7T3BlbiBTYW5zJnF1b3Q7LCBzYW5zLXNlcmlmIiBmb250LXNpemU9IjEyIiBmb250LXN0eWxlPSJpdGFsaWMiIGxlbmd0aEFkanVzdD0ic3BhY2luZyIgdGV4dExlbmd0aD0iNzMiIHg9Ijc1NC41IiB5PSIxNzg0Ij4mbHQ7Jmx0O2NvbXBvbmVudCZndDsmZ3Q7PC90ZXh0Pjx0ZXh0IHg9Ijc5MSIgeT0iMTgwMiIgZmlsbD0iI0ZGRkZGRiIgc3R5bGU9InRleHQtYW5jaG9yOiBtaWRkbGU7IGZvbnQtc2l6ZTogMTZweDsgZm9udC13ZWlnaHQ6IGJvbGQ7IGZvbnQtZmFtaWx5OiAmcXVvdDtPcGVuIFNhbnMmcXVvdDssIHNhbnMtc2VyaWY7Ij48dHNwYW4gZHk9IjAiIGFsaWdubWVudC1iYXNlbGluZT0ibWF0aGVtYXRpY2FsIj5BYnN0cmFjdERBTzwvdHNwYW4+PC90ZXh0Pjx0ZXh0IHg9Ijc5MSIgeT0iMTgyNCIgZmlsbD0iI0ZGRkZGRiIgZm9udC1zdHlsZT0iaXRhbGljIiBzdHlsZT0idGV4dC1hbmNob3I6IG1pZGRsZTsgZm9udC1zaXplOiAxNHB4OyBmb250LXdlaWdodDogbm9ybWFsOyBmb250LWZhbWlseTogJnF1b3Q7T3BlbiBTYW5zJnF1b3Q7LCBzYW5zLXNlcmlmOyI+PHRzcGFuIGR5PSIwIiBhbGlnbm1lbnQtYmFzZWxpbmU9Im1hdGhlbWF0aWNhbCI+W0ludGVyZmFjZV08L3RzcGFuPjwvdGV4dD48dGV4dCB4PSI3OTEiIHk9IjE4NTgiIGZpbGw9IiNGRkZGRkYiIHN0eWxlPSJ0ZXh0LWFuY2hvcjogbWlkZGxlOyBmb250LXNpemU6IDE0cHg7IGZvbnQtd2VpZ2h0OiBub3JtYWw7IGZvbnQtZmFtaWx5OiAmcXVvdDtPcGVuIFNhbnMmcXVvdDssIHNhbnMtc2VyaWY7Ij48dHNwYW4gZHk9IjAiIGFsaWdubWVudC1iYXNlbGluZT0ibWF0aGVtYXRpY2FsIj5JbnRlcmZhY2UgZ2Vuw6lyaWNhIHBhcmEgYWNlc3NvIGEgZGFkb3M8L3RzcGFuPjwvdGV4dD48L2c+PGcgY2xhc3M9InBlcnNvbi1tYW4iPjxyZWN0IHg9IjY1OCIgeT0iMTk2OSIgZmlsbD0iI0MwRjdGRiIgc3Ryb2tlPSIjNzhBOEQ4IiB3aWR0aD0iMjUxIiBoZWlnaHQ9IjEwNSIgcng9IjIuNSIgcnk9IjIuNSIgc3Ryb2tlLXdpZHRoPSIwLjUiLz48dGV4dCBmaWxsPSIjRkZGRkZGIiBmb250LWZhbWlseT0iJnF1b3Q7T3BlbiBTYW5zJnF1b3Q7LCBzYW5zLXNlcmlmIiBmb250LXNpemU9IjEyIiBmb250LXN0eWxlPSJpdGFsaWMiIGxlbmd0aEFkanVzdD0ic3BhY2luZyIgdGV4dExlbmd0aD0iNzMiIHg9Ijc0NyIgeT0iMTk4OSI+Jmx0OyZsdDtjb21wb25lbnQmZ3Q7Jmd0OzwvdGV4dD48dGV4dCB4PSI3ODMuNSIgeT0iMjAwNyIgZmlsbD0iI0ZGRkZGRiIgc3R5bGU9InRleHQtYW5jaG9yOiBtaWRkbGU7IGZvbnQtc2l6ZTogMTZweDsgZm9udC13ZWlnaHQ6IGJvbGQ7IGZvbnQtZmFtaWx5OiAmcXVvdDtPcGVuIFNhbnMmcXVvdDssIHNhbnMtc2VyaWY7Ij48dHNwYW4gZHk9IjAiIGFsaWdubWVudC1iYXNlbGluZT0ibWF0aGVtYXRpY2FsIj5JbnRlcmZhY2VzIERBTzwvdHNwYW4+PC90ZXh0Pjx0ZXh0IHg9Ijc4My41IiB5PSIyMDI5IiBmaWxsPSIjRkZGRkZGIiBmb250LXN0eWxlPSJpdGFsaWMiIHN0eWxlPSJ0ZXh0LWFuY2hvcjogbWlkZGxlOyBmb250LXNpemU6IDE0cHg7IGZvbnQtd2VpZ2h0OiBub3JtYWw7IGZvbnQtZmFtaWx5OiAmcXVvdDtPcGVuIFNhbnMmcXVvdDssIHNhbnMtc2VyaWY7Ij48dHNwYW4gZHk9IjAiIGFsaWdubWVudC1iYXNlbGluZT0ibWF0aGVtYXRpY2FsIj5bSW50ZXJmYWNlcyBlc3BlY8OtZmljYXNdPC90c3Bhbj48L3RleHQ+PHRleHQgeD0iNzgzLjUiIHk9IjIwNjMiIGZpbGw9IiNGRkZGRkYiIHN0eWxlPSJ0ZXh0LWFuY2hvcjogbWlkZGxlOyBmb250LXNpemU6IDE0cHg7IGZvbnQtd2VpZ2h0OiBub3JtYWw7IGZvbnQtZmFtaWx5OiAmcXVvdDtPcGVuIFNhbnMmcXVvdDssIHNhbnMtc2VyaWY7Ij48dHNwYW4gZHk9IjAiIGFsaWdubWVudC1iYXNlbGluZT0ibWF0aGVtYXRpY2FsIj5JbnRlcmZhY2VzIHBhcmEgY2FkYSB0aXBvIGRlIGVudGlkYWRlPC90c3Bhbj48L3RleHQ+PC9nPjxnIGNsYXNzPSJwZXJzb24tbWFuIj48cmVjdCB4PSI2NTgiIHk9IjIxNzQiIGZpbGw9IiNDMEY3RkYiIHN0cm9rZT0iIzc4QThEOCIgd2lkdGg9IjQwMSIgaGVpZ2h0PSIxMDUiIHJ4PSIyLjUiIHJ5PSIyLjUiIHN0cm9rZS13aWR0aD0iMC41Ii8+PHRleHQgZmlsbD0iI0ZGRkZGRiIgZm9udC1mYW1pbHk9IiZxdW90O09wZW4gU2FucyZxdW90Oywgc2Fucy1zZXJpZiIgZm9udC1zaXplPSIxMiIgZm9udC1zdHlsZT0iaXRhbGljIiBsZW5ndGhBZGp1c3Q9InNwYWNpbmciIHRleHRMZW5ndGg9IjczIiB4PSI4MjIiIHk9IjIxOTQiPiZsdDsmbHQ7Y29tcG9uZW50Jmd0OyZndDs8L3RleHQ+PHRleHQgeD0iODU4LjUiIHk9IjIyMTIiIGZpbGw9IiNGRkZGRkYiIHN0eWxlPSJ0ZXh0LWFuY2hvcjogbWlkZGxlOyBmb250LXNpemU6IDE2cHg7IGZvbnQtd2VpZ2h0OiBib2xkOyBmb250LWZhbWlseTogJnF1b3Q7T3BlbiBTYW5zJnF1b3Q7LCBzYW5zLXNlcmlmOyI+PHRzcGFuIGR5PSIwIiBhbGlnbm1lbnQtYmFzZWxpbmU9Im1hdGhlbWF0aWNhbCI+SW1wbGVtZW50YcOnw7VlcyBEQU88L3RzcGFuPjwvdGV4dD48dGV4dCB4PSI4NTguNSIgeT0iMjIzNCIgZmlsbD0iI0ZGRkZGRiIgZm9udC1zdHlsZT0iaXRhbGljIiBzdHlsZT0idGV4dC1hbmNob3I6IG1pZGRsZTsgZm9udC1zaXplOiAxNHB4OyBmb250LXdlaWdodDogbm9ybWFsOyBmb250LWZhbWlseTogJnF1b3Q7T3BlbiBTYW5zJnF1b3Q7LCBzYW5zLXNlcmlmOyI+PHRzcGFuIGR5PSIwIiBhbGlnbm1lbnQtYmFzZWxpbmU9Im1hdGhlbWF0aWNhbCI+W0NsYXNzZXMgY29uY3JldGFzXTwvdHNwYW4+PC90ZXh0Pjx0ZXh0IHg9Ijg1OC41IiB5PSIyMjY4IiBmaWxsPSIjRkZGRkZGIiBzdHlsZT0idGV4dC1hbmNob3I6IG1pZGRsZTsgZm9udC1zaXplOiAxNHB4OyBmb250LXdlaWdodDogbm9ybWFsOyBmb250LWZhbWlseTogJnF1b3Q7T3BlbiBTYW5zJnF1b3Q7LCBzYW5zLXNlcmlmOyI+PHRzcGFuIGR5PSIwIiBhbGlnbm1lbnQtYmFzZWxpbmU9Im1hdGhlbWF0aWNhbCI+SW1wbGVtZW50YcOnw7VlcyBwYXJhIGRpZmVyZW50ZXMgbWVjYW5pc21vcyBkZSBwZXJzaXN0w6puY2lhPC90c3Bhbj48L3RleHQ+PC9nPjxnPjxyZWN0IHg9IjYwOCIgeT0iMTY2NCIgZmlsbD0ibm9uZSIgc3Ryb2tlPSIjNDQ0NDQ0IiB3aWR0aD0iNTAxIiBoZWlnaHQ9IjY2NSIgcng9IjIuNSIgcnk9IjIuNSIgc3Ryb2tlLXdpZHRoPSIxIiBzdHJva2UtZGFzaGFycmF5PSI3LjAsNy4wIi8+PHRleHQgeD0iODU4LjUiIHk9IjE2NzIiIGZpbGw9IiM0NDQ0NDQiIHN0eWxlPSJ0ZXh0LWFuY2hvcjogbWlkZGxlOyBmb250LXNpemU6IDE2cHg7IGZvbnQtd2VpZ2h0OiBib2xkOyBmb250LWZhbWlseTogJnF1b3Q7T3BlbiBTYW5zJnF1b3Q7LCBzYW5zLXNlcmlmOyI+PHRzcGFuIGR5PSIwIiBhbGlnbm1lbnQtYmFzZWxpbmU9Im1hdGhlbWF0aWNhbCI+REFPIFBhdHRlcm48L3RzcGFuPjwvdGV4dD48dGV4dCB4PSI4NTguNSIgeT0iMTY5NCIgZmlsbD0iIzQ0NDQ0NCIgc3R5bGU9InRleHQtYW5jaG9yOiBtaWRkbGU7IGZvbnQtc2l6ZTogMTRweDsgZm9udC13ZWlnaHQ6IG5vcm1hbDsgZm9udC1mYW1pbHk6ICZxdW90O09wZW4gU2FucyZxdW90Oywgc2Fucy1zZXJpZjsiPjx0c3BhbiBkeT0iMCIgYWxpZ25tZW50LWJhc2VsaW5lPSJtYXRoZW1hdGljYWwiPltDT05UQUlORVJdPC90c3Bhbj48L3RleHQ+PC9nPjxnPjxsaW5lIHgxPSI4NjUuNDQxNzQ3NTcyODE1NSIgeTE9IjMyNyIgeDI9Ijg5NC41MzI3ODY4ODUyNDU5IiB5Mj0iNDI3IiBzdHJva2Utd2lkdGg9IjEiIHN0cm9rZT0iIzQ0NDQ0NCIgbWFya2VyLWVuZD0idXJsKCNhcnJvd2hlYWQpIiBzdHlsZT0iZmlsbDogbm9uZTsiLz48dGV4dCB4PSI5MDEuNDg3MjY3MjI5MDMwNyIgeT0iMzc3IiBmaWxsPSIjNDQ0NDQ0IiBzdHlsZT0idGV4dC1hbmNob3I6IG1pZGRsZTsgZm9udC1zaXplOiAxMnB4OyBmb250LXdlaWdodDogbm9ybWFsOyBmb250LWZhbWlseTogJnF1b3Q7T3BlbiBTYW5zJnF1b3Q7LCBzYW5zLXNlcmlmOyI+PHRzcGFuIGR5PSIwIiBhbGlnbm1lbnQtYmFzZWxpbmU9Im1hdGhlbWF0aWNhbCI+ZXN0ZW5kZTwvdHNwYW4+PC90ZXh0PjxwYXRoIGZpbGw9Im5vbmUiIHN0cm9rZS13aWR0aD0iMSIgc3Ryb2tlPSIjNDQ0NDQ0IiBkPSJNODUyLjM4MTA4MTA4MTA4MTEsMzI3IFE4NTUuNzQ5OTcxNjQ5OTcxNyw0NzkuNSA4NjUuODU2NjQzMzU2NjQzMyw2MzIiIG1hcmtlci1lbmQ9InVybCgjYXJyb3doZWFkKSIvPjx0ZXh0IHg9Ijg4MC42MTg4NjIyMTg4NjIyIiB5PSI0NzkuNSIgZmlsbD0iIzQ0NDQ0NCIgc3R5bGU9InRleHQtYW5jaG9yOiBtaWRkbGU7IGZvbnQtc2l6ZTogMTJweDsgZm9udC13ZWlnaHQ6IG5vcm1hbDsgZm9udC1mYW1pbHk6ICZxdW90O09wZW4gU2FucyZxdW90Oywgc2Fucy1zZXJpZjsiPjx0c3BhbiBkeT0iMCIgYWxpZ25tZW50LWJhc2VsaW5lPSJtYXRoZW1hdGljYWwiPmVzdGVuZGU8L3RzcGFuPjwvdGV4dD48cGF0aCBmaWxsPSJub25lIiBzdHJva2Utd2lkdGg9IjEiIHN0cm9rZT0iIzQ0NDQ0NCIgZD0iTTM0OS4xMzEwNjc5NjExNjUwNiwxMzAzIFEzNjIuNDU2OTA3NTI4MjUwODQsMTM1MyA0MDIuNDM0NDI2MjI5NTA4MiwxNDAzIiBtYXJrZXItZW5kPSJ1cmwoI2Fycm93aGVhZCkiLz48dGV4dCB4PSI0MjQuMjgyNzQ3MDk1MzM2NiIgeT0iMTM1MyIgZmlsbD0iIzQ0NDQ0NCIgc3R5bGU9InRleHQtYW5jaG9yOiBtaWRkbGU7IGZvbnQtc2l6ZTogMTJweDsgZm9udC13ZWlnaHQ6IG5vcm1hbDsgZm9udC1mYW1pbHk6ICZxdW90O09wZW4gU2FucyZxdW90Oywgc2Fucy1zZXJpZjsiPjx0c3BhbiBkeT0iMCIgYWxpZ25tZW50LWJhc2VsaW5lPSJtYXRoZW1hdGljYWwiPmltcGxlbWVudGFkbyBwb3I8L3RzcGFuPjwvdGV4dD48cGF0aCBmaWxsPSJub25lIiBzdHJva2Utd2lkdGg9IjEiIHN0cm9rZT0iIzQ0NDQ0NCIgZD0iTTM0OS42NTA0ODU0MzY4OTMyLDEwOTggUTM1Mi4wODIxMjYzNzI3NTE5LDExNDggMzU5LjM3NzA0OTE4MDMyNzg0LDExOTgiIG1hcmtlci1lbmQ9InVybCgjYXJyb3doZWFkKSIvPjx0ZXh0IHg9IjM3NS41MTM3NjczMDg2MTA1IiB5PSIxMTQ4IiBmaWxsPSIjNDQ0NDQ0IiBzdHlsZT0idGV4dC1hbmNob3I6IG1pZGRsZTsgZm9udC1zaXplOiAxMnB4OyBmb250LXdlaWdodDogbm9ybWFsOyBmb250LWZhbWlseTogJnF1b3Q7T3BlbiBTYW5zJnF1b3Q7LCBzYW5zLXNlcmlmOyI+PHRzcGFuIGR5PSIwIiBhbGlnbm1lbnQtYmFzZWxpbmU9Im1hdGhlbWF0aWNhbCI+ZXhlY3V0YTwvdHNwYW4+PC90ZXh0PjxwYXRoIGZpbGw9Im5vbmUiIHN0cm9rZS13aWR0aD0iMSIgc3Ryb2tlPSIjNDQ0NDQ0IiBkPSJNODEwLjUxOTQxNzQ3NTcyODEsMTA5OCBRODEzLjQwODAwNTcyOTc0NjgsMTE0OCA4MjIuMDczNzcwNDkxODAzMywxMTk4IiBtYXJrZXItZW5kPSJ1cmwoI2Fycm93aGVhZCkiLz48dGV4dCB4PSI4NDkuNzk2NTkzOTgzNzY1NyIgeT0iMTE0OCIgZmlsbD0iIzQ0NDQ0NCIgc3R5bGU9InRleHQtYW5jaG9yOiBtaWRkbGU7IGZvbnQtc2l6ZTogMTJweDsgZm9udC13ZWlnaHQ6IG5vcm1hbDsgZm9udC1mYW1pbHk6ICZxdW90O09wZW4gU2FucyZxdW90Oywgc2Fucy1zZXJpZjsiPjx0c3BhbiBkeT0iMCIgYWxpZ25tZW50LWJhc2VsaW5lPSJtYXRoZW1hdGljYWwiPmNyaWEvcmVzdGF1cmE8L3RzcGFuPjwvdGV4dD48cGF0aCBmaWxsPSJub25lIiBzdHJva2Utd2lkdGg9IjEiIHN0cm9rZT0iIzQ0NDQ0NCIgZD0iTTM3NS44OTgwNTgyNTI0MjcyLDE4NjkgUTM4Mi44NjAwMTkwOTkxNTY0MywxOTE5IDQwMy43NDU5MDE2MzkzNDQyNSwxOTY5IiBtYXJrZXItZW5kPSJ1cmwoI2Fycm93aGVhZCkiLz48dGV4dCB4PSI0MjYuODIxOTc5OTQ1ODg1NyIgeT0iMTkxOSIgZmlsbD0iIzQ0NDQ0NCIgc3R5bGU9InRleHQtYW5jaG9yOiBtaWRkbGU7IGZvbnQtc2l6ZTogMTJweDsgZm9udC13ZWlnaHQ6IG5vcm1hbDsgZm9udC1mYW1pbHk6ICZxdW90O09wZW4gU2FucyZxdW90Oywgc2Fucy1zZXJpZjsiPjx0c3BhbiBkeT0iMCIgYWxpZ25tZW50LWJhc2VsaW5lPSJtYXRoZW1hdGljYWwiPmVzdGVuZGlkbyBwb3I8L3RzcGFuPjwvdGV4dD48cGF0aCBmaWxsPSJub25lIiBzdHJva2Utd2lkdGg9IjEiIHN0cm9rZT0iIzQ0NDQ0NCIgZD0iTTgxNi41ODczNzg2NDA3NzY3LDE4NjkgUTgxOS43NjIyNTUyOTIwNTgsMTkxOSA4MjkuMjg2ODg1MjQ1OTAxNywxOTY5IiBtYXJrZXItZW5kPSJ1cmwoI2Fycm93aGVhZCkiLz48dGV4dCB4PSI4NTkuOTM3MTMxOTQzMzM5MiIgeT0iMTkxOSIgZmlsbD0iIzQ0NDQ0NCIgc3R5bGU9InRleHQtYW5jaG9yOiBtaWRkbGU7IGZvbnQtc2l6ZTogMTJweDsgZm9udC13ZWlnaHQ6IG5vcm1hbDsgZm9udC1mYW1pbHk6ICZxdW90O09wZW4gU2FucyZxdW90Oywgc2Fucy1zZXJpZjsiPjx0c3BhbiBkeT0iMCIgYWxpZ25tZW50LWJhc2VsaW5lPSJtYXRoZW1hdGljYWwiPmVzdGVuZGlkbyBwb3I8L3RzcGFuPjwvdGV4dD48cGF0aCBmaWxsPSJub25lIiBzdHJva2Utd2lkdGg9IjEiIHN0cm9rZT0iIzQ0NDQ0NCIgZD0iTTgyNC4zNzg2NDA3NzY2OTkxLDIwNzQgUTg0My43MTAyMTAwOTA3MjEsMjEyNCA5MDEuNzA0OTE4MDMyNzg2OCwyMTc0IiBtYXJrZXItZW5kPSJ1cmwoI2Fycm93aGVhZCkiLz48dGV4dCB4PSI5MTEuNTQxNzc5NDA0NzQzIiB5PSIyMTI0IiBmaWxsPSIjNDQ0NDQ0IiBzdHlsZT0idGV4dC1hbmNob3I6IG1pZGRsZTsgZm9udC1zaXplOiAxMnB4OyBmb250LXdlaWdodDogbm9ybWFsOyBmb250LWZhbWlseTogJnF1b3Q7T3BlbiBTYW5zJnF1b3Q7LCBzYW5zLXNlcmlmOyI+PHRzcGFuIGR5PSIwIiBhbGlnbm1lbnQtYmFzZWxpbmU9Im1hdGhlbWF0aWNhbCI+aW1wbGVtZW50YWRvIHBvcjwvdHNwYW4+PC90ZXh0PjwvZz48dGV4dCB4PSIzNzkuNSIgeT0iMjAiPkRldGFsaGFtZW50byBkb3MgUGFkcsO1ZXMgZGUgUHJvamV0byAtIFNpc3RlbWEgZGUgQmlibGlvdGVjYTwvdGV4dD48L2c+PC9zdmc+;" vertex="1" parent="1">
          <mxGeometry x="1010" y="74.53" width="313.77" height="760" as="geometry" />
        </mxCell>
      </root>
    </mxGraphModel>
  </diagram>
</mxfile>
